M48
; DRILL file {KiCad 9.0.2+dfsg-1} date 2026-05-12T16:03:59+0300
; FORMAT={-:-/ absolute / metric / decimal}
; #@! TF.CreationDate,2026-05-12T16:03:59+03:00
; #@! TF.GenerationSoftware,Kicad,Pcbnew,9.0.2+dfsg-1
; #@! TF.FileFunction,Plated,1,2,PTH
FMAT,2
METRIC
; #@! TA.AperFunction,Plated,PTH,ViaDrill
T1C0.300
; #@! TA.AperFunction,Plated,PTH,ComponentDrill
T2C0.780
; #@! TA.AperFunction,Plated,PTH,ComponentDrill
T3C0.800
; #@! TA.AperFunction,Plated,PTH,ComponentDrill
T4C1.000
; #@! TA.AperFunction,Plated,PTH,ComponentDrill
T5C1.460
; #@! TA.AperFunction,Plated,PTH,ComponentDrill
T6C2.200
; #@! TA.AperFunction,Plated,PTH,ComponentDrill
T7C3.050
%
G90
G05
T1
X121.535Y-59.946
X121.535Y-64.946
X121.535Y-69.946
X121.535Y-84.946
X121.535Y-89.946
X121.535Y-104.946
X121.535Y-124.946
X126.535Y-41.189
X126.535Y-44.946
X126.535Y-49.946
X126.535Y-54.946
X126.535Y-59.946
X126.535Y-64.946
X126.535Y-69.946
X126.535Y-79.189
X126.535Y-84.946
X126.535Y-89.946
X126.535Y-94.946
X126.535Y-104.946
X126.535Y-109.946
X126.535Y-114.946
X126.535Y-120.689
X126.535Y-142.189
X126.535Y-144.946
X130.535Y-136.689
X131.535Y-36.439
X131.535Y-41.189
X131.535Y-44.946
X131.535Y-49.946
X131.535Y-54.946
X131.535Y-59.946
X131.535Y-64.946
X131.535Y-74.946
X131.535Y-79.189
X131.535Y-84.946
X131.535Y-89.946
X131.535Y-94.946
X131.535Y-109.946
X131.535Y-114.946
X131.535Y-120.689
X131.535Y-144.946
X136.535Y-36.439
X136.535Y-41.189
X136.535Y-44.946
X136.535Y-49.946
X136.535Y-54.946
X136.535Y-59.946
X136.535Y-64.946
X136.535Y-74.946
X136.535Y-79.189
X136.535Y-84.946
X136.535Y-89.946
X136.535Y-94.946
X136.535Y-104.946
X136.535Y-114.946
X136.535Y-120.689
X136.535Y-144.946
X141.535Y-31.439
X141.535Y-36.439
X141.535Y-41.189
X141.535Y-44.946
X141.535Y-49.946
X141.535Y-54.946
X141.535Y-59.946
X141.535Y-64.946
X141.535Y-69.946
X141.535Y-84.946
X141.535Y-89.946
X141.535Y-104.946
X141.535Y-124.946
X143.285Y-136.689
X146.535Y-31.439
X146.535Y-36.439
X146.535Y-41.189
X146.535Y-44.946
X146.535Y-49.946
X146.535Y-54.946
X146.535Y-59.946
X146.535Y-64.946
X146.535Y-69.946
X146.535Y-79.189
X146.535Y-84.946
X146.535Y-104.946
X146.535Y-114.946
X146.535Y-120.689
X149.785Y-136.689
X151.535Y-31.439
X151.535Y-36.439
X151.535Y-41.189
X151.535Y-44.946
X151.535Y-49.946
X151.535Y-54.946
X151.535Y-59.946
X151.535Y-64.946
X151.535Y-74.946
X151.535Y-79.189
X151.535Y-84.946
X151.535Y-94.946
X151.535Y-114.946
X151.535Y-120.689
X151.535Y-130.689
X156.535Y-31.439
X156.535Y-36.439
X156.535Y-41.189
X156.535Y-44.946
X156.535Y-49.946
X156.535Y-54.946
X156.535Y-59.946
X156.535Y-64.946
X161.535Y-41.189
X161.535Y-44.946
X161.535Y-54.946
X161.535Y-59.946
X161.535Y-64.946
X161.535Y-69.946
X161.535Y-79.189
X164.535Y-133.939
X164.535Y-136.439
X166.535Y-41.189
X166.535Y-44.946
X166.535Y-49.946
X166.535Y-54.946
X166.535Y-59.946
X166.535Y-64.946
X166.535Y-79.189
X166.535Y-84.946
X166.535Y-99.946
X166.535Y-114.946
X166.535Y-119.946
X168.285Y-133.939
X168.285Y-136.439
X169.785Y-130.189
X170.285Y-140.189
X171.285Y-140.689
X171.535Y-41.189
X171.535Y-44.946
X171.535Y-59.946
X171.535Y-64.946
X171.535Y-74.946
X171.535Y-79.189
X171.535Y-84.946
X171.535Y-94.946
X171.535Y-99.946
X171.535Y-104.946
X171.535Y-114.946
X171.535Y-119.946
X176.535Y-44.946
T2
X122.906Y-36.689
X122.906Y-38.689
X122.906Y-40.689
T3
X121.681Y-92.517
X121.681Y-100.137
X121.681Y-111.328
X121.681Y-118.947
X121.906Y-73.328
X121.906Y-80.947
X122.047Y-127.767
X122.047Y-135.387
X140.535Y-127.819
X140.535Y-135.439
X140.906Y-73.517
X140.906Y-81.138
X140.906Y-92.517
X140.906Y-100.137
X140.906Y-111.328
X140.906Y-118.947
X159.781Y-128.069
X159.781Y-135.689
X159.906Y-73.517
X159.906Y-81.138
X159.906Y-92.517
X159.906Y-100.137
X159.906Y-111.328
X159.906Y-118.947
T4
X122.885Y-47.119
X122.885Y-49.659
X122.885Y-52.199
X122.885Y-54.739
X132.295Y-142.78
X134.835Y-142.78
X137.375Y-142.78
X139.915Y-142.78
X142.455Y-142.78
X144.995Y-142.78
X147.535Y-142.78
X150.075Y-142.78
X152.615Y-142.78
X155.155Y-142.78
X157.695Y-142.78
X160.235Y-142.78
X162.656Y-48.218
X162.656Y-50.718
X162.656Y-53.218
X162.775Y-142.78
X165.315Y-142.78
X167.855Y-142.78
X177.156Y-48.218
X177.156Y-53.218
T5
X122.906Y-34.589
X122.906Y-42.789
T6
X121.285Y-29.689
X121.285Y-142.689
X179.285Y-29.689
X179.285Y-142.689
T7
X128.166Y-73.385
X128.166Y-92.435
X128.166Y-111.485
X128.166Y-130.535
X134.516Y-70.845
X134.516Y-89.895
X134.516Y-108.945
X134.516Y-127.995
X147.216Y-73.385
X147.216Y-92.435
X147.216Y-111.485
X147.216Y-130.535
X153.566Y-70.845
X153.566Y-89.895
X153.566Y-108.945
X153.566Y-127.995
X166.266Y-73.385
X166.266Y-92.435
X166.266Y-111.485
X166.266Y-130.535
X172.616Y-70.845
X172.616Y-89.895
X172.616Y-108.945
X172.616Y-127.995
M30
