M48
; DRILL file {KiCad 9.0.2+dfsg-1} date 2026-05-12T16:03:59+0300
; FORMAT={-:-/ absolute / metric / decimal}
; #@! TF.CreationDate,2026-05-12T16:03:59+03:00
; #@! TF.GenerationSoftware,Kicad,Pcbnew,9.0.2+dfsg-1
; #@! TF.FileFunction,NonPlated,1,2,NPTH
FMAT,2
METRIC
; #@! TA.AperFunction,NonPlated,NPTH,ComponentDrill
T1C1.750
; #@! TA.AperFunction,NonPlated,NPTH,ComponentDrill
T2C4.000
%
G90
G05
T1
X125.626Y-68.305
X125.626Y-87.355
X125.626Y-106.405
X125.626Y-125.455
X135.786Y-68.305
X135.786Y-87.355
X135.786Y-106.405
X135.786Y-125.455
X144.676Y-68.305
X144.676Y-87.355
X144.676Y-106.405
X144.676Y-125.455
X154.836Y-68.305
X154.836Y-87.355
X154.836Y-106.405
X154.836Y-125.455
X163.726Y-68.305
X163.726Y-87.355
X163.726Y-106.405
X163.726Y-125.455
X173.886Y-68.305
X173.886Y-87.355
X173.886Y-106.405
X173.886Y-125.455
T2
X130.706Y-68.305
X130.706Y-87.355
X130.706Y-106.405
X130.706Y-125.455
X149.756Y-68.305
X149.756Y-87.355
X149.756Y-106.405
X149.756Y-125.455
X168.806Y-68.305
X168.806Y-87.355
X168.806Y-106.405
X168.806Y-125.455
M30
