%TF.GenerationSoftware,KiCad,Pcbnew,9.0.2+dfsg-1*%
%TF.CreationDate,2026-05-12T16:37:03+03:00*%
%TF.ProjectId,top-plate,746f702d-706c-4617-9465-2e6b69636164,rev?*%
%TF.SameCoordinates,Original*%
%TF.FileFunction,Profile,NP*%
%FSLAX46Y46*%
G04 Gerber Fmt 4.6, Leading zero omitted, Abs format (unit mm)*
G04 Created by KiCad (PCBNEW 9.0.2+dfsg-1) date 2026-05-12 16:37:03*
%MOMM*%
%LPD*%
G01*
G04 APERTURE LIST*
%TA.AperFunction,Profile*%
%ADD10C,0.050000*%
%TD*%
G04 APERTURE END LIST*
D10*
X110209541Y-99866180D02*
X110209541Y-86466180D01*
X142959541Y-81116180D02*
X129559541Y-81116180D01*
X150139770Y-35378840D02*
X150139770Y-148378840D01*
X142959541Y-86166180D02*
G75*
G02*
X143259520Y-86466180I-41J-300020D01*
G01*
X92700000Y-39500000D02*
X85439770Y-39500000D01*
X143559541Y-62778680D02*
X131659541Y-62778680D01*
X131659541Y-50028680D02*
X143559541Y-50028680D01*
X129259541Y-80816180D02*
X129259541Y-67416180D01*
X105159541Y-86466180D02*
X105159541Y-99866180D01*
X127500000Y-62900000D02*
G75*
G02*
X127200000Y-63200000I-300000J0D01*
G01*
X88639770Y-31878840D02*
X146639770Y-31878840D01*
X91159541Y-67416180D02*
G75*
G02*
X91459541Y-67116141I300059J-20D01*
G01*
X110509541Y-138266180D02*
G75*
G02*
X110209520Y-137966180I-41J299980D01*
G01*
X129559541Y-81116180D02*
G75*
G02*
X129259520Y-80816180I-41J299980D01*
G01*
X143259541Y-105516180D02*
X143259541Y-118916180D01*
X129259541Y-105516180D02*
G75*
G02*
X129559541Y-105216241I299959J-20D01*
G01*
X143259541Y-137966180D02*
G75*
G02*
X142959541Y-138266141I-299941J-20D01*
G01*
X91159541Y-86466180D02*
G75*
G02*
X91459541Y-86166241I299959J-20D01*
G01*
X129559541Y-67116180D02*
X142959541Y-67116180D01*
X143859541Y-62478680D02*
G75*
G02*
X143559541Y-62778741I-300041J-20D01*
G01*
X88500000Y-50500000D02*
G75*
G02*
X88800000Y-50200000I300000J0D01*
G01*
X104859541Y-81116180D02*
X91459541Y-81116180D01*
X150139770Y-148378840D02*
G75*
G02*
X146639770Y-151878770I-3499970J40D01*
G01*
X123909541Y-105216180D02*
G75*
G02*
X124209520Y-105516180I-41J-300020D01*
G01*
X110509541Y-100166180D02*
G75*
G02*
X110209520Y-99866180I-41J299980D01*
G01*
X92700000Y-39500000D02*
G75*
G02*
X93000000Y-39800000I0J-300000D01*
G01*
X142959541Y-124266180D02*
G75*
G02*
X143259520Y-124566180I-41J-300020D01*
G01*
X91459541Y-138266180D02*
G75*
G02*
X91159520Y-137966180I-41J299980D01*
G01*
X93000000Y-39800000D02*
X93000000Y-48700000D01*
X129559541Y-105216180D02*
X142959541Y-105216180D01*
X110209541Y-137966180D02*
X110209541Y-124566180D01*
X91459541Y-119216180D02*
G75*
G02*
X91159520Y-118916180I-41J299980D01*
G01*
X142959541Y-100166180D02*
X129559541Y-100166180D01*
X110509541Y-105216180D02*
X123909541Y-105216180D01*
X124209541Y-124566180D02*
X124209541Y-137966180D01*
X129259541Y-67416180D02*
G75*
G02*
X129559541Y-67116141I300059J-20D01*
G01*
X127200000Y-50200000D02*
G75*
G02*
X127500000Y-50500000I0J-300000D01*
G01*
X105159541Y-118916180D02*
G75*
G02*
X104859541Y-119216141I-299941J-20D01*
G01*
X110209541Y-118916180D02*
X110209541Y-105516180D01*
X91459541Y-67116180D02*
X104859541Y-67116180D01*
X143559541Y-50028680D02*
G75*
G02*
X143859520Y-50328680I-41J-300020D01*
G01*
X104859541Y-138266180D02*
X91459541Y-138266180D01*
X123909541Y-124266180D02*
G75*
G02*
X124209520Y-124566180I-41J-300020D01*
G01*
X91459541Y-86166180D02*
X104859541Y-86166180D01*
X124209541Y-105516180D02*
X124209541Y-118916180D01*
X110209541Y-124566180D02*
G75*
G02*
X110509541Y-124266241I299959J-20D01*
G01*
X105159541Y-124566180D02*
X105159541Y-137966180D01*
X129259541Y-137966180D02*
X129259541Y-124566180D01*
X105159541Y-80816180D02*
G75*
G02*
X104859541Y-81116241I-300041J-20D01*
G01*
X85139770Y-35378840D02*
G75*
G02*
X88639770Y-31878840I3500000J0D01*
G01*
X124209541Y-80816180D02*
G75*
G02*
X123909541Y-81116241I-300041J-20D01*
G01*
X131359541Y-50328680D02*
G75*
G02*
X131659541Y-50028641I300059J-20D01*
G01*
X104859541Y-124266180D02*
G75*
G02*
X105159520Y-124566180I-41J-300020D01*
G01*
X142959541Y-119216180D02*
X129559541Y-119216180D01*
X91459541Y-124266180D02*
X104859541Y-124266180D01*
X91459541Y-105216180D02*
X104859541Y-105216180D01*
X91159541Y-80816180D02*
X91159541Y-67416180D01*
X110509541Y-81116180D02*
G75*
G02*
X110209520Y-80816180I-41J299980D01*
G01*
X131659541Y-62778680D02*
G75*
G02*
X131359520Y-62478680I-41J299980D01*
G01*
X110509541Y-119216180D02*
G75*
G02*
X110209520Y-118916180I-41J299980D01*
G01*
X129559541Y-119216180D02*
G75*
G02*
X129259520Y-118916180I-41J299980D01*
G01*
X129559541Y-124266180D02*
X142959541Y-124266180D01*
X127200000Y-63200000D02*
X88800000Y-63200000D01*
X129559541Y-86166180D02*
X142959541Y-86166180D01*
X105159541Y-105516180D02*
X105159541Y-118916180D01*
X124209541Y-99866180D02*
G75*
G02*
X123909541Y-100166241I-300041J-20D01*
G01*
X110209541Y-86466180D02*
G75*
G02*
X110509541Y-86166141I300059J-20D01*
G01*
X124209541Y-67416180D02*
X124209541Y-80816180D01*
X142959541Y-67116180D02*
G75*
G02*
X143259520Y-67416180I-41J-300020D01*
G01*
X91159541Y-99866180D02*
X91159541Y-86466180D01*
X123909541Y-67116180D02*
G75*
G02*
X124209520Y-67416180I-41J-300020D01*
G01*
X123909541Y-138266180D02*
X110509541Y-138266180D01*
X129259541Y-86466180D02*
G75*
G02*
X129559541Y-86166141I300059J-20D01*
G01*
X105159541Y-67416180D02*
X105159541Y-80816180D01*
X91159541Y-137966180D02*
X91159541Y-124566180D01*
X129259541Y-118916180D02*
X129259541Y-105516180D01*
X146639770Y-151878840D02*
X88639770Y-151878840D01*
X143859541Y-50328680D02*
X143859541Y-62478680D01*
X142959541Y-138266180D02*
X129559541Y-138266180D01*
X93000000Y-48700000D02*
G75*
G02*
X92700000Y-49000000I-300000J0D01*
G01*
X92700000Y-49000000D02*
X85439770Y-49000000D01*
X104859541Y-67116180D02*
G75*
G02*
X105159520Y-67416180I-41J-300020D01*
G01*
X123909541Y-119216180D02*
X110509541Y-119216180D01*
X91459541Y-81116180D02*
G75*
G02*
X91159520Y-80816180I-41J299980D01*
G01*
X85139770Y-49300000D02*
G75*
G02*
X85439770Y-48999970I300030J0D01*
G01*
X124209541Y-86466180D02*
X124209541Y-99866180D01*
X91159541Y-124566180D02*
G75*
G02*
X91459541Y-124266141I300059J-20D01*
G01*
X88500000Y-62900000D02*
X88500000Y-50500000D01*
X143259541Y-86466180D02*
X143259541Y-99866180D01*
X110209541Y-67416180D02*
G75*
G02*
X110509541Y-67116141I300059J-20D01*
G01*
X91159541Y-118916180D02*
X91159541Y-105516180D01*
X91459541Y-100166180D02*
G75*
G02*
X91159520Y-99866180I-41J299980D01*
G01*
X110509541Y-67116180D02*
X123909541Y-67116180D01*
X110209541Y-80816180D02*
X110209541Y-67416180D01*
X88800000Y-50200000D02*
X127200000Y-50200000D01*
X124209541Y-118916180D02*
G75*
G02*
X123909541Y-119216241I-300041J-20D01*
G01*
X88800000Y-63200000D02*
G75*
G02*
X88500000Y-62900000I0J300000D01*
G01*
X123909541Y-86166180D02*
G75*
G02*
X124209520Y-86466180I-41J-300020D01*
G01*
X85439770Y-39500000D02*
G75*
G02*
X85139800Y-39200000I30J300000D01*
G01*
X129259541Y-99866180D02*
X129259541Y-86466180D01*
X143259541Y-99866180D02*
G75*
G02*
X142959541Y-100166241I-300041J-20D01*
G01*
X110509541Y-86166180D02*
X123909541Y-86166180D01*
X123909541Y-81116180D02*
X110509541Y-81116180D01*
X110209541Y-105516180D02*
G75*
G02*
X110509541Y-105216141I300059J-20D01*
G01*
X143259541Y-67416180D02*
X143259541Y-80816180D01*
X129259541Y-124566180D02*
G75*
G02*
X129559541Y-124266141I300059J-20D01*
G01*
X105159541Y-99866180D02*
G75*
G02*
X104859541Y-100166241I-300041J-20D01*
G01*
X104859541Y-86166180D02*
G75*
G02*
X105159520Y-86466180I-41J-300020D01*
G01*
X142959541Y-105216180D02*
G75*
G02*
X143259520Y-105516180I-41J-300020D01*
G01*
X104859541Y-119216180D02*
X91459541Y-119216180D01*
X85139770Y-39200000D02*
X85139770Y-35378840D01*
X131359541Y-62478680D02*
X131359541Y-50328680D01*
X88639770Y-151878840D02*
G75*
G02*
X85139760Y-148378840I30J3500040D01*
G01*
X143259541Y-118916180D02*
G75*
G02*
X142959541Y-119216241I-300041J-20D01*
G01*
X143259541Y-80816180D02*
G75*
G02*
X142959541Y-81116141I-299941J-20D01*
G01*
X123909541Y-100166180D02*
X110509541Y-100166180D01*
X129559541Y-138266180D02*
G75*
G02*
X129259520Y-137966180I-41J299980D01*
G01*
X85139770Y-148378840D02*
X85139770Y-49300000D01*
X91159541Y-105516180D02*
G75*
G02*
X91459541Y-105216241I299959J-20D01*
G01*
X129559541Y-100166180D02*
G75*
G02*
X129259520Y-99866180I-41J299980D01*
G01*
X146639770Y-31878840D02*
G75*
G02*
X150139760Y-35378840I30J-3499960D01*
G01*
X110509541Y-124266180D02*
X123909541Y-124266180D01*
X124209541Y-137966180D02*
G75*
G02*
X123909541Y-138266241I-300041J-20D01*
G01*
X104859541Y-100166180D02*
X91459541Y-100166180D01*
X127500000Y-50500000D02*
X127500000Y-62900000D01*
X143259541Y-124566180D02*
X143259541Y-137966180D01*
X105159541Y-137966180D02*
G75*
G02*
X104859541Y-138266241I-300041J-20D01*
G01*
X104859541Y-105216180D02*
G75*
G02*
X105159520Y-105516180I-41J-300020D01*
G01*
M02*
