%TF.GenerationSoftware,KiCad,Pcbnew,9.0.2+dfsg-1*%
%TF.CreationDate,2026-05-12T16:28:09+03:00*%
%TF.ProjectId,bottom,626f7474-6f6d-42e6-9b69-6361645f7063,rev?*%
%TF.SameCoordinates,Original*%
%TF.FileFunction,Legend,Top*%
%TF.FilePolarity,Positive*%
%FSLAX46Y46*%
G04 Gerber Fmt 4.6, Leading zero omitted, Abs format (unit mm)*
G04 Created by KiCad (PCBNEW 9.0.2+dfsg-1) date 2026-05-12 16:28:09*
%MOMM*%
%LPD*%
G01*
G04 APERTURE LIST*
%ADD10C,0.150000*%
%ADD11C,0.120000*%
%ADD12C,0.100000*%
G04 APERTURE END LIST*
D10*
X168333333Y-70454819D02*
X168000000Y-69978628D01*
X167761905Y-70454819D02*
X167761905Y-69454819D01*
X167761905Y-69454819D02*
X168142857Y-69454819D01*
X168142857Y-69454819D02*
X168238095Y-69502438D01*
X168238095Y-69502438D02*
X168285714Y-69550057D01*
X168285714Y-69550057D02*
X168333333Y-69645295D01*
X168333333Y-69645295D02*
X168333333Y-69788152D01*
X168333333Y-69788152D02*
X168285714Y-69883390D01*
X168285714Y-69883390D02*
X168238095Y-69931009D01*
X168238095Y-69931009D02*
X168142857Y-69978628D01*
X168142857Y-69978628D02*
X167761905Y-69978628D01*
X168714286Y-69550057D02*
X168761905Y-69502438D01*
X168761905Y-69502438D02*
X168857143Y-69454819D01*
X168857143Y-69454819D02*
X169095238Y-69454819D01*
X169095238Y-69454819D02*
X169190476Y-69502438D01*
X169190476Y-69502438D02*
X169238095Y-69550057D01*
X169238095Y-69550057D02*
X169285714Y-69645295D01*
X169285714Y-69645295D02*
X169285714Y-69740533D01*
X169285714Y-69740533D02*
X169238095Y-69883390D01*
X169238095Y-69883390D02*
X168666667Y-70454819D01*
X168666667Y-70454819D02*
X169285714Y-70454819D01*
X168333333Y-42634819D02*
X168000000Y-42158628D01*
X167761905Y-42634819D02*
X167761905Y-41634819D01*
X167761905Y-41634819D02*
X168142857Y-41634819D01*
X168142857Y-41634819D02*
X168238095Y-41682438D01*
X168238095Y-41682438D02*
X168285714Y-41730057D01*
X168285714Y-41730057D02*
X168333333Y-41825295D01*
X168333333Y-41825295D02*
X168333333Y-41968152D01*
X168333333Y-41968152D02*
X168285714Y-42063390D01*
X168285714Y-42063390D02*
X168238095Y-42111009D01*
X168238095Y-42111009D02*
X168142857Y-42158628D01*
X168142857Y-42158628D02*
X167761905Y-42158628D01*
X168904762Y-42063390D02*
X168809524Y-42015771D01*
X168809524Y-42015771D02*
X168761905Y-41968152D01*
X168761905Y-41968152D02*
X168714286Y-41872914D01*
X168714286Y-41872914D02*
X168714286Y-41825295D01*
X168714286Y-41825295D02*
X168761905Y-41730057D01*
X168761905Y-41730057D02*
X168809524Y-41682438D01*
X168809524Y-41682438D02*
X168904762Y-41634819D01*
X168904762Y-41634819D02*
X169095238Y-41634819D01*
X169095238Y-41634819D02*
X169190476Y-41682438D01*
X169190476Y-41682438D02*
X169238095Y-41730057D01*
X169238095Y-41730057D02*
X169285714Y-41825295D01*
X169285714Y-41825295D02*
X169285714Y-41872914D01*
X169285714Y-41872914D02*
X169238095Y-41968152D01*
X169238095Y-41968152D02*
X169190476Y-42015771D01*
X169190476Y-42015771D02*
X169095238Y-42063390D01*
X169095238Y-42063390D02*
X168904762Y-42063390D01*
X168904762Y-42063390D02*
X168809524Y-42111009D01*
X168809524Y-42111009D02*
X168761905Y-42158628D01*
X168761905Y-42158628D02*
X168714286Y-42253866D01*
X168714286Y-42253866D02*
X168714286Y-42444342D01*
X168714286Y-42444342D02*
X168761905Y-42539580D01*
X168761905Y-42539580D02*
X168809524Y-42587200D01*
X168809524Y-42587200D02*
X168904762Y-42634819D01*
X168904762Y-42634819D02*
X169095238Y-42634819D01*
X169095238Y-42634819D02*
X169190476Y-42587200D01*
X169190476Y-42587200D02*
X169238095Y-42539580D01*
X169238095Y-42539580D02*
X169285714Y-42444342D01*
X169285714Y-42444342D02*
X169285714Y-42253866D01*
X169285714Y-42253866D02*
X169238095Y-42158628D01*
X169238095Y-42158628D02*
X169190476Y-42111009D01*
X169190476Y-42111009D02*
X169095238Y-42063390D01*
X168343333Y-50294819D02*
X168010000Y-49818628D01*
X167771905Y-50294819D02*
X167771905Y-49294819D01*
X167771905Y-49294819D02*
X168152857Y-49294819D01*
X168152857Y-49294819D02*
X168248095Y-49342438D01*
X168248095Y-49342438D02*
X168295714Y-49390057D01*
X168295714Y-49390057D02*
X168343333Y-49485295D01*
X168343333Y-49485295D02*
X168343333Y-49628152D01*
X168343333Y-49628152D02*
X168295714Y-49723390D01*
X168295714Y-49723390D02*
X168248095Y-49771009D01*
X168248095Y-49771009D02*
X168152857Y-49818628D01*
X168152857Y-49818628D02*
X167771905Y-49818628D01*
X168676667Y-49294819D02*
X169343333Y-49294819D01*
X169343333Y-49294819D02*
X168914762Y-50294819D01*
X129737294Y-47544819D02*
X129403961Y-47068628D01*
X129165866Y-47544819D02*
X129165866Y-46544819D01*
X129165866Y-46544819D02*
X129546818Y-46544819D01*
X129546818Y-46544819D02*
X129642056Y-46592438D01*
X129642056Y-46592438D02*
X129689675Y-46640057D01*
X129689675Y-46640057D02*
X129737294Y-46735295D01*
X129737294Y-46735295D02*
X129737294Y-46878152D01*
X129737294Y-46878152D02*
X129689675Y-46973390D01*
X129689675Y-46973390D02*
X129642056Y-47021009D01*
X129642056Y-47021009D02*
X129546818Y-47068628D01*
X129546818Y-47068628D02*
X129165866Y-47068628D01*
X130689675Y-47544819D02*
X130118247Y-47544819D01*
X130403961Y-47544819D02*
X130403961Y-46544819D01*
X130403961Y-46544819D02*
X130308723Y-46687676D01*
X130308723Y-46687676D02*
X130213485Y-46782914D01*
X130213485Y-46782914D02*
X130118247Y-46830533D01*
X131642056Y-47544819D02*
X131070628Y-47544819D01*
X131356342Y-47544819D02*
X131356342Y-46544819D01*
X131356342Y-46544819D02*
X131261104Y-46687676D01*
X131261104Y-46687676D02*
X131165866Y-46782914D01*
X131165866Y-46782914D02*
X131070628Y-46830533D01*
X174035822Y-42076139D02*
X173702489Y-41599948D01*
X173464394Y-42076139D02*
X173464394Y-41076139D01*
X173464394Y-41076139D02*
X173845346Y-41076139D01*
X173845346Y-41076139D02*
X173940584Y-41123758D01*
X173940584Y-41123758D02*
X173988203Y-41171377D01*
X173988203Y-41171377D02*
X174035822Y-41266615D01*
X174035822Y-41266615D02*
X174035822Y-41409472D01*
X174035822Y-41409472D02*
X173988203Y-41504710D01*
X173988203Y-41504710D02*
X173940584Y-41552329D01*
X173940584Y-41552329D02*
X173845346Y-41599948D01*
X173845346Y-41599948D02*
X173464394Y-41599948D01*
X174988203Y-42076139D02*
X174416775Y-42076139D01*
X174702489Y-42076139D02*
X174702489Y-41076139D01*
X174702489Y-41076139D02*
X174607251Y-41218996D01*
X174607251Y-41218996D02*
X174512013Y-41314234D01*
X174512013Y-41314234D02*
X174416775Y-41361853D01*
X175845346Y-41076139D02*
X175654870Y-41076139D01*
X175654870Y-41076139D02*
X175559632Y-41123758D01*
X175559632Y-41123758D02*
X175512013Y-41171377D01*
X175512013Y-41171377D02*
X175416775Y-41314234D01*
X175416775Y-41314234D02*
X175369156Y-41504710D01*
X175369156Y-41504710D02*
X175369156Y-41885662D01*
X175369156Y-41885662D02*
X175416775Y-41980900D01*
X175416775Y-41980900D02*
X175464394Y-42028520D01*
X175464394Y-42028520D02*
X175559632Y-42076139D01*
X175559632Y-42076139D02*
X175750108Y-42076139D01*
X175750108Y-42076139D02*
X175845346Y-42028520D01*
X175845346Y-42028520D02*
X175892965Y-41980900D01*
X175892965Y-41980900D02*
X175940584Y-41885662D01*
X175940584Y-41885662D02*
X175940584Y-41647567D01*
X175940584Y-41647567D02*
X175892965Y-41552329D01*
X175892965Y-41552329D02*
X175845346Y-41504710D01*
X175845346Y-41504710D02*
X175750108Y-41457091D01*
X175750108Y-41457091D02*
X175559632Y-41457091D01*
X175559632Y-41457091D02*
X175464394Y-41504710D01*
X175464394Y-41504710D02*
X175416775Y-41552329D01*
X175416775Y-41552329D02*
X175369156Y-41647567D01*
X168333333Y-45134819D02*
X168000000Y-44658628D01*
X167761905Y-45134819D02*
X167761905Y-44134819D01*
X167761905Y-44134819D02*
X168142857Y-44134819D01*
X168142857Y-44134819D02*
X168238095Y-44182438D01*
X168238095Y-44182438D02*
X168285714Y-44230057D01*
X168285714Y-44230057D02*
X168333333Y-44325295D01*
X168333333Y-44325295D02*
X168333333Y-44468152D01*
X168333333Y-44468152D02*
X168285714Y-44563390D01*
X168285714Y-44563390D02*
X168238095Y-44611009D01*
X168238095Y-44611009D02*
X168142857Y-44658628D01*
X168142857Y-44658628D02*
X167761905Y-44658628D01*
X169190476Y-44134819D02*
X169000000Y-44134819D01*
X169000000Y-44134819D02*
X168904762Y-44182438D01*
X168904762Y-44182438D02*
X168857143Y-44230057D01*
X168857143Y-44230057D02*
X168761905Y-44372914D01*
X168761905Y-44372914D02*
X168714286Y-44563390D01*
X168714286Y-44563390D02*
X168714286Y-44944342D01*
X168714286Y-44944342D02*
X168761905Y-45039580D01*
X168761905Y-45039580D02*
X168809524Y-45087200D01*
X168809524Y-45087200D02*
X168904762Y-45134819D01*
X168904762Y-45134819D02*
X169095238Y-45134819D01*
X169095238Y-45134819D02*
X169190476Y-45087200D01*
X169190476Y-45087200D02*
X169238095Y-45039580D01*
X169238095Y-45039580D02*
X169285714Y-44944342D01*
X169285714Y-44944342D02*
X169285714Y-44706247D01*
X169285714Y-44706247D02*
X169238095Y-44611009D01*
X169238095Y-44611009D02*
X169190476Y-44563390D01*
X169190476Y-44563390D02*
X169095238Y-44515771D01*
X169095238Y-44515771D02*
X168904762Y-44515771D01*
X168904762Y-44515771D02*
X168809524Y-44563390D01*
X168809524Y-44563390D02*
X168761905Y-44611009D01*
X168761905Y-44611009D02*
X168714286Y-44706247D01*
X168333333Y-52704819D02*
X168000000Y-52228628D01*
X167761905Y-52704819D02*
X167761905Y-51704819D01*
X167761905Y-51704819D02*
X168142857Y-51704819D01*
X168142857Y-51704819D02*
X168238095Y-51752438D01*
X168238095Y-51752438D02*
X168285714Y-51800057D01*
X168285714Y-51800057D02*
X168333333Y-51895295D01*
X168333333Y-51895295D02*
X168333333Y-52038152D01*
X168333333Y-52038152D02*
X168285714Y-52133390D01*
X168285714Y-52133390D02*
X168238095Y-52181009D01*
X168238095Y-52181009D02*
X168142857Y-52228628D01*
X168142857Y-52228628D02*
X167761905Y-52228628D01*
X169238095Y-51704819D02*
X168761905Y-51704819D01*
X168761905Y-51704819D02*
X168714286Y-52181009D01*
X168714286Y-52181009D02*
X168761905Y-52133390D01*
X168761905Y-52133390D02*
X168857143Y-52085771D01*
X168857143Y-52085771D02*
X169095238Y-52085771D01*
X169095238Y-52085771D02*
X169190476Y-52133390D01*
X169190476Y-52133390D02*
X169238095Y-52181009D01*
X169238095Y-52181009D02*
X169285714Y-52276247D01*
X169285714Y-52276247D02*
X169285714Y-52514342D01*
X169285714Y-52514342D02*
X169238095Y-52609580D01*
X169238095Y-52609580D02*
X169190476Y-52657200D01*
X169190476Y-52657200D02*
X169095238Y-52704819D01*
X169095238Y-52704819D02*
X168857143Y-52704819D01*
X168857143Y-52704819D02*
X168761905Y-52657200D01*
X168761905Y-52657200D02*
X168714286Y-52609580D01*
X174035822Y-64326139D02*
X173702489Y-63849948D01*
X173464394Y-64326139D02*
X173464394Y-63326139D01*
X173464394Y-63326139D02*
X173845346Y-63326139D01*
X173845346Y-63326139D02*
X173940584Y-63373758D01*
X173940584Y-63373758D02*
X173988203Y-63421377D01*
X173988203Y-63421377D02*
X174035822Y-63516615D01*
X174035822Y-63516615D02*
X174035822Y-63659472D01*
X174035822Y-63659472D02*
X173988203Y-63754710D01*
X173988203Y-63754710D02*
X173940584Y-63802329D01*
X173940584Y-63802329D02*
X173845346Y-63849948D01*
X173845346Y-63849948D02*
X173464394Y-63849948D01*
X174988203Y-64326139D02*
X174416775Y-64326139D01*
X174702489Y-64326139D02*
X174702489Y-63326139D01*
X174702489Y-63326139D02*
X174607251Y-63468996D01*
X174607251Y-63468996D02*
X174512013Y-63564234D01*
X174512013Y-63564234D02*
X174416775Y-63611853D01*
X175321537Y-63326139D02*
X175988203Y-63326139D01*
X175988203Y-63326139D02*
X175559632Y-64326139D01*
X174167142Y-108763499D02*
X173833809Y-108287308D01*
X173595714Y-108763499D02*
X173595714Y-107763499D01*
X173595714Y-107763499D02*
X173976666Y-107763499D01*
X173976666Y-107763499D02*
X174071904Y-107811118D01*
X174071904Y-107811118D02*
X174119523Y-107858737D01*
X174119523Y-107858737D02*
X174167142Y-107953975D01*
X174167142Y-107953975D02*
X174167142Y-108096832D01*
X174167142Y-108096832D02*
X174119523Y-108192070D01*
X174119523Y-108192070D02*
X174071904Y-108239689D01*
X174071904Y-108239689D02*
X173976666Y-108287308D01*
X173976666Y-108287308D02*
X173595714Y-108287308D01*
X175119523Y-108763499D02*
X174548095Y-108763499D01*
X174833809Y-108763499D02*
X174833809Y-107763499D01*
X174833809Y-107763499D02*
X174738571Y-107906356D01*
X174738571Y-107906356D02*
X174643333Y-108001594D01*
X174643333Y-108001594D02*
X174548095Y-108049213D01*
X175595714Y-108763499D02*
X175786190Y-108763499D01*
X175786190Y-108763499D02*
X175881428Y-108715880D01*
X175881428Y-108715880D02*
X175929047Y-108668260D01*
X175929047Y-108668260D02*
X176024285Y-108525403D01*
X176024285Y-108525403D02*
X176071904Y-108334927D01*
X176071904Y-108334927D02*
X176071904Y-107953975D01*
X176071904Y-107953975D02*
X176024285Y-107858737D01*
X176024285Y-107858737D02*
X175976666Y-107811118D01*
X175976666Y-107811118D02*
X175881428Y-107763499D01*
X175881428Y-107763499D02*
X175690952Y-107763499D01*
X175690952Y-107763499D02*
X175595714Y-107811118D01*
X175595714Y-107811118D02*
X175548095Y-107858737D01*
X175548095Y-107858737D02*
X175500476Y-107953975D01*
X175500476Y-107953975D02*
X175500476Y-108192070D01*
X175500476Y-108192070D02*
X175548095Y-108287308D01*
X175548095Y-108287308D02*
X175595714Y-108334927D01*
X175595714Y-108334927D02*
X175690952Y-108382546D01*
X175690952Y-108382546D02*
X175881428Y-108382546D01*
X175881428Y-108382546D02*
X175976666Y-108334927D01*
X175976666Y-108334927D02*
X176024285Y-108287308D01*
X176024285Y-108287308D02*
X176071904Y-108192070D01*
X129737294Y-69794819D02*
X129403961Y-69318628D01*
X129165866Y-69794819D02*
X129165866Y-68794819D01*
X129165866Y-68794819D02*
X129546818Y-68794819D01*
X129546818Y-68794819D02*
X129642056Y-68842438D01*
X129642056Y-68842438D02*
X129689675Y-68890057D01*
X129689675Y-68890057D02*
X129737294Y-68985295D01*
X129737294Y-68985295D02*
X129737294Y-69128152D01*
X129737294Y-69128152D02*
X129689675Y-69223390D01*
X129689675Y-69223390D02*
X129642056Y-69271009D01*
X129642056Y-69271009D02*
X129546818Y-69318628D01*
X129546818Y-69318628D02*
X129165866Y-69318628D01*
X130689675Y-69794819D02*
X130118247Y-69794819D01*
X130403961Y-69794819D02*
X130403961Y-68794819D01*
X130403961Y-68794819D02*
X130308723Y-68937676D01*
X130308723Y-68937676D02*
X130213485Y-69032914D01*
X130213485Y-69032914D02*
X130118247Y-69080533D01*
X131070628Y-68890057D02*
X131118247Y-68842438D01*
X131118247Y-68842438D02*
X131213485Y-68794819D01*
X131213485Y-68794819D02*
X131451580Y-68794819D01*
X131451580Y-68794819D02*
X131546818Y-68842438D01*
X131546818Y-68842438D02*
X131594437Y-68890057D01*
X131594437Y-68890057D02*
X131642056Y-68985295D01*
X131642056Y-68985295D02*
X131642056Y-69080533D01*
X131642056Y-69080533D02*
X131594437Y-69223390D01*
X131594437Y-69223390D02*
X131023009Y-69794819D01*
X131023009Y-69794819D02*
X131642056Y-69794819D01*
X137857142Y-47826139D02*
X137523809Y-47349948D01*
X137285714Y-47826139D02*
X137285714Y-46826139D01*
X137285714Y-46826139D02*
X137666666Y-46826139D01*
X137666666Y-46826139D02*
X137761904Y-46873758D01*
X137761904Y-46873758D02*
X137809523Y-46921377D01*
X137809523Y-46921377D02*
X137857142Y-47016615D01*
X137857142Y-47016615D02*
X137857142Y-47159472D01*
X137857142Y-47159472D02*
X137809523Y-47254710D01*
X137809523Y-47254710D02*
X137761904Y-47302329D01*
X137761904Y-47302329D02*
X137666666Y-47349948D01*
X137666666Y-47349948D02*
X137285714Y-47349948D01*
X138809523Y-47826139D02*
X138238095Y-47826139D01*
X138523809Y-47826139D02*
X138523809Y-46826139D01*
X138523809Y-46826139D02*
X138428571Y-46968996D01*
X138428571Y-46968996D02*
X138333333Y-47064234D01*
X138333333Y-47064234D02*
X138238095Y-47111853D01*
X139428571Y-46826139D02*
X139523809Y-46826139D01*
X139523809Y-46826139D02*
X139619047Y-46873758D01*
X139619047Y-46873758D02*
X139666666Y-46921377D01*
X139666666Y-46921377D02*
X139714285Y-47016615D01*
X139714285Y-47016615D02*
X139761904Y-47207091D01*
X139761904Y-47207091D02*
X139761904Y-47445186D01*
X139761904Y-47445186D02*
X139714285Y-47635662D01*
X139714285Y-47635662D02*
X139666666Y-47730900D01*
X139666666Y-47730900D02*
X139619047Y-47778520D01*
X139619047Y-47778520D02*
X139523809Y-47826139D01*
X139523809Y-47826139D02*
X139428571Y-47826139D01*
X139428571Y-47826139D02*
X139333333Y-47778520D01*
X139333333Y-47778520D02*
X139285714Y-47730900D01*
X139285714Y-47730900D02*
X139238095Y-47635662D01*
X139238095Y-47635662D02*
X139190476Y-47445186D01*
X139190476Y-47445186D02*
X139190476Y-47207091D01*
X139190476Y-47207091D02*
X139238095Y-47016615D01*
X139238095Y-47016615D02*
X139285714Y-46921377D01*
X139285714Y-46921377D02*
X139333333Y-46873758D01*
X139333333Y-46873758D02*
X139428571Y-46826139D01*
X135462013Y-43454819D02*
X135128680Y-42978628D01*
X134890585Y-43454819D02*
X134890585Y-42454819D01*
X134890585Y-42454819D02*
X135271537Y-42454819D01*
X135271537Y-42454819D02*
X135366775Y-42502438D01*
X135366775Y-42502438D02*
X135414394Y-42550057D01*
X135414394Y-42550057D02*
X135462013Y-42645295D01*
X135462013Y-42645295D02*
X135462013Y-42788152D01*
X135462013Y-42788152D02*
X135414394Y-42883390D01*
X135414394Y-42883390D02*
X135366775Y-42931009D01*
X135366775Y-42931009D02*
X135271537Y-42978628D01*
X135271537Y-42978628D02*
X134890585Y-42978628D01*
X135938204Y-43454819D02*
X136128680Y-43454819D01*
X136128680Y-43454819D02*
X136223918Y-43407200D01*
X136223918Y-43407200D02*
X136271537Y-43359580D01*
X136271537Y-43359580D02*
X136366775Y-43216723D01*
X136366775Y-43216723D02*
X136414394Y-43026247D01*
X136414394Y-43026247D02*
X136414394Y-42645295D01*
X136414394Y-42645295D02*
X136366775Y-42550057D01*
X136366775Y-42550057D02*
X136319156Y-42502438D01*
X136319156Y-42502438D02*
X136223918Y-42454819D01*
X136223918Y-42454819D02*
X136033442Y-42454819D01*
X136033442Y-42454819D02*
X135938204Y-42502438D01*
X135938204Y-42502438D02*
X135890585Y-42550057D01*
X135890585Y-42550057D02*
X135842966Y-42645295D01*
X135842966Y-42645295D02*
X135842966Y-42883390D01*
X135842966Y-42883390D02*
X135890585Y-42978628D01*
X135890585Y-42978628D02*
X135938204Y-43026247D01*
X135938204Y-43026247D02*
X136033442Y-43073866D01*
X136033442Y-43073866D02*
X136223918Y-43073866D01*
X136223918Y-43073866D02*
X136319156Y-43026247D01*
X136319156Y-43026247D02*
X136366775Y-42978628D01*
X136366775Y-42978628D02*
X136414394Y-42883390D01*
X129987294Y-136294819D02*
X129653961Y-135818628D01*
X129415866Y-136294819D02*
X129415866Y-135294819D01*
X129415866Y-135294819D02*
X129796818Y-135294819D01*
X129796818Y-135294819D02*
X129892056Y-135342438D01*
X129892056Y-135342438D02*
X129939675Y-135390057D01*
X129939675Y-135390057D02*
X129987294Y-135485295D01*
X129987294Y-135485295D02*
X129987294Y-135628152D01*
X129987294Y-135628152D02*
X129939675Y-135723390D01*
X129939675Y-135723390D02*
X129892056Y-135771009D01*
X129892056Y-135771009D02*
X129796818Y-135818628D01*
X129796818Y-135818628D02*
X129415866Y-135818628D01*
X130939675Y-136294819D02*
X130368247Y-136294819D01*
X130653961Y-136294819D02*
X130653961Y-135294819D01*
X130653961Y-135294819D02*
X130558723Y-135437676D01*
X130558723Y-135437676D02*
X130463485Y-135532914D01*
X130463485Y-135532914D02*
X130368247Y-135580533D01*
X131844437Y-135294819D02*
X131368247Y-135294819D01*
X131368247Y-135294819D02*
X131320628Y-135771009D01*
X131320628Y-135771009D02*
X131368247Y-135723390D01*
X131368247Y-135723390D02*
X131463485Y-135675771D01*
X131463485Y-135675771D02*
X131701580Y-135675771D01*
X131701580Y-135675771D02*
X131796818Y-135723390D01*
X131796818Y-135723390D02*
X131844437Y-135771009D01*
X131844437Y-135771009D02*
X131892056Y-135866247D01*
X131892056Y-135866247D02*
X131892056Y-136104342D01*
X131892056Y-136104342D02*
X131844437Y-136199580D01*
X131844437Y-136199580D02*
X131796818Y-136247200D01*
X131796818Y-136247200D02*
X131701580Y-136294819D01*
X131701580Y-136294819D02*
X131463485Y-136294819D01*
X131463485Y-136294819D02*
X131368247Y-136247200D01*
X131368247Y-136247200D02*
X131320628Y-136199580D01*
X174167142Y-130763499D02*
X173833809Y-130287308D01*
X173595714Y-130763499D02*
X173595714Y-129763499D01*
X173595714Y-129763499D02*
X173976666Y-129763499D01*
X173976666Y-129763499D02*
X174071904Y-129811118D01*
X174071904Y-129811118D02*
X174119523Y-129858737D01*
X174119523Y-129858737D02*
X174167142Y-129953975D01*
X174167142Y-129953975D02*
X174167142Y-130096832D01*
X174167142Y-130096832D02*
X174119523Y-130192070D01*
X174119523Y-130192070D02*
X174071904Y-130239689D01*
X174071904Y-130239689D02*
X173976666Y-130287308D01*
X173976666Y-130287308D02*
X173595714Y-130287308D01*
X174548095Y-129858737D02*
X174595714Y-129811118D01*
X174595714Y-129811118D02*
X174690952Y-129763499D01*
X174690952Y-129763499D02*
X174929047Y-129763499D01*
X174929047Y-129763499D02*
X175024285Y-129811118D01*
X175024285Y-129811118D02*
X175071904Y-129858737D01*
X175071904Y-129858737D02*
X175119523Y-129953975D01*
X175119523Y-129953975D02*
X175119523Y-130049213D01*
X175119523Y-130049213D02*
X175071904Y-130192070D01*
X175071904Y-130192070D02*
X174500476Y-130763499D01*
X174500476Y-130763499D02*
X175119523Y-130763499D01*
X175738571Y-129763499D02*
X175833809Y-129763499D01*
X175833809Y-129763499D02*
X175929047Y-129811118D01*
X175929047Y-129811118D02*
X175976666Y-129858737D01*
X175976666Y-129858737D02*
X176024285Y-129953975D01*
X176024285Y-129953975D02*
X176071904Y-130144451D01*
X176071904Y-130144451D02*
X176071904Y-130382546D01*
X176071904Y-130382546D02*
X176024285Y-130573022D01*
X176024285Y-130573022D02*
X175976666Y-130668260D01*
X175976666Y-130668260D02*
X175929047Y-130715880D01*
X175929047Y-130715880D02*
X175833809Y-130763499D01*
X175833809Y-130763499D02*
X175738571Y-130763499D01*
X175738571Y-130763499D02*
X175643333Y-130715880D01*
X175643333Y-130715880D02*
X175595714Y-130668260D01*
X175595714Y-130668260D02*
X175548095Y-130573022D01*
X175548095Y-130573022D02*
X175500476Y-130382546D01*
X175500476Y-130382546D02*
X175500476Y-130144451D01*
X175500476Y-130144451D02*
X175548095Y-129953975D01*
X175548095Y-129953975D02*
X175595714Y-129858737D01*
X175595714Y-129858737D02*
X175643333Y-129811118D01*
X175643333Y-129811118D02*
X175738571Y-129763499D01*
X168333333Y-67954819D02*
X168000000Y-67478628D01*
X167761905Y-67954819D02*
X167761905Y-66954819D01*
X167761905Y-66954819D02*
X168142857Y-66954819D01*
X168142857Y-66954819D02*
X168238095Y-67002438D01*
X168238095Y-67002438D02*
X168285714Y-67050057D01*
X168285714Y-67050057D02*
X168333333Y-67145295D01*
X168333333Y-67145295D02*
X168333333Y-67288152D01*
X168333333Y-67288152D02*
X168285714Y-67383390D01*
X168285714Y-67383390D02*
X168238095Y-67431009D01*
X168238095Y-67431009D02*
X168142857Y-67478628D01*
X168142857Y-67478628D02*
X167761905Y-67478628D01*
X168666667Y-66954819D02*
X169285714Y-66954819D01*
X169285714Y-66954819D02*
X168952381Y-67335771D01*
X168952381Y-67335771D02*
X169095238Y-67335771D01*
X169095238Y-67335771D02*
X169190476Y-67383390D01*
X169190476Y-67383390D02*
X169238095Y-67431009D01*
X169238095Y-67431009D02*
X169285714Y-67526247D01*
X169285714Y-67526247D02*
X169285714Y-67764342D01*
X169285714Y-67764342D02*
X169238095Y-67859580D01*
X169238095Y-67859580D02*
X169190476Y-67907200D01*
X169190476Y-67907200D02*
X169095238Y-67954819D01*
X169095238Y-67954819D02*
X168809524Y-67954819D01*
X168809524Y-67954819D02*
X168714286Y-67907200D01*
X168714286Y-67907200D02*
X168666667Y-67859580D01*
X135462013Y-41076139D02*
X135128680Y-40599948D01*
X134890585Y-41076139D02*
X134890585Y-40076139D01*
X134890585Y-40076139D02*
X135271537Y-40076139D01*
X135271537Y-40076139D02*
X135366775Y-40123758D01*
X135366775Y-40123758D02*
X135414394Y-40171377D01*
X135414394Y-40171377D02*
X135462013Y-40266615D01*
X135462013Y-40266615D02*
X135462013Y-40409472D01*
X135462013Y-40409472D02*
X135414394Y-40504710D01*
X135414394Y-40504710D02*
X135366775Y-40552329D01*
X135366775Y-40552329D02*
X135271537Y-40599948D01*
X135271537Y-40599948D02*
X134890585Y-40599948D01*
X136319156Y-40409472D02*
X136319156Y-41076139D01*
X136081061Y-40028520D02*
X135842966Y-40742805D01*
X135842966Y-40742805D02*
X136462013Y-40742805D01*
X129987294Y-114544819D02*
X129653961Y-114068628D01*
X129415866Y-114544819D02*
X129415866Y-113544819D01*
X129415866Y-113544819D02*
X129796818Y-113544819D01*
X129796818Y-113544819D02*
X129892056Y-113592438D01*
X129892056Y-113592438D02*
X129939675Y-113640057D01*
X129939675Y-113640057D02*
X129987294Y-113735295D01*
X129987294Y-113735295D02*
X129987294Y-113878152D01*
X129987294Y-113878152D02*
X129939675Y-113973390D01*
X129939675Y-113973390D02*
X129892056Y-114021009D01*
X129892056Y-114021009D02*
X129796818Y-114068628D01*
X129796818Y-114068628D02*
X129415866Y-114068628D01*
X130939675Y-114544819D02*
X130368247Y-114544819D01*
X130653961Y-114544819D02*
X130653961Y-113544819D01*
X130653961Y-113544819D02*
X130558723Y-113687676D01*
X130558723Y-113687676D02*
X130463485Y-113782914D01*
X130463485Y-113782914D02*
X130368247Y-113830533D01*
X131796818Y-113878152D02*
X131796818Y-114544819D01*
X131558723Y-113497200D02*
X131320628Y-114211485D01*
X131320628Y-114211485D02*
X131939675Y-114211485D01*
X168333333Y-72954819D02*
X168000000Y-72478628D01*
X167761905Y-72954819D02*
X167761905Y-71954819D01*
X167761905Y-71954819D02*
X168142857Y-71954819D01*
X168142857Y-71954819D02*
X168238095Y-72002438D01*
X168238095Y-72002438D02*
X168285714Y-72050057D01*
X168285714Y-72050057D02*
X168333333Y-72145295D01*
X168333333Y-72145295D02*
X168333333Y-72288152D01*
X168333333Y-72288152D02*
X168285714Y-72383390D01*
X168285714Y-72383390D02*
X168238095Y-72431009D01*
X168238095Y-72431009D02*
X168142857Y-72478628D01*
X168142857Y-72478628D02*
X167761905Y-72478628D01*
X169285714Y-72954819D02*
X168714286Y-72954819D01*
X169000000Y-72954819D02*
X169000000Y-71954819D01*
X169000000Y-71954819D02*
X168904762Y-72097676D01*
X168904762Y-72097676D02*
X168809524Y-72192914D01*
X168809524Y-72192914D02*
X168714286Y-72240533D01*
X129737294Y-91794819D02*
X129403961Y-91318628D01*
X129165866Y-91794819D02*
X129165866Y-90794819D01*
X129165866Y-90794819D02*
X129546818Y-90794819D01*
X129546818Y-90794819D02*
X129642056Y-90842438D01*
X129642056Y-90842438D02*
X129689675Y-90890057D01*
X129689675Y-90890057D02*
X129737294Y-90985295D01*
X129737294Y-90985295D02*
X129737294Y-91128152D01*
X129737294Y-91128152D02*
X129689675Y-91223390D01*
X129689675Y-91223390D02*
X129642056Y-91271009D01*
X129642056Y-91271009D02*
X129546818Y-91318628D01*
X129546818Y-91318628D02*
X129165866Y-91318628D01*
X130689675Y-91794819D02*
X130118247Y-91794819D01*
X130403961Y-91794819D02*
X130403961Y-90794819D01*
X130403961Y-90794819D02*
X130308723Y-90937676D01*
X130308723Y-90937676D02*
X130213485Y-91032914D01*
X130213485Y-91032914D02*
X130118247Y-91080533D01*
X131023009Y-90794819D02*
X131642056Y-90794819D01*
X131642056Y-90794819D02*
X131308723Y-91175771D01*
X131308723Y-91175771D02*
X131451580Y-91175771D01*
X131451580Y-91175771D02*
X131546818Y-91223390D01*
X131546818Y-91223390D02*
X131594437Y-91271009D01*
X131594437Y-91271009D02*
X131642056Y-91366247D01*
X131642056Y-91366247D02*
X131642056Y-91604342D01*
X131642056Y-91604342D02*
X131594437Y-91699580D01*
X131594437Y-91699580D02*
X131546818Y-91747200D01*
X131546818Y-91747200D02*
X131451580Y-91794819D01*
X131451580Y-91794819D02*
X131165866Y-91794819D01*
X131165866Y-91794819D02*
X131070628Y-91747200D01*
X131070628Y-91747200D02*
X131023009Y-91699580D01*
X174167142Y-86263499D02*
X173833809Y-85787308D01*
X173595714Y-86263499D02*
X173595714Y-85263499D01*
X173595714Y-85263499D02*
X173976666Y-85263499D01*
X173976666Y-85263499D02*
X174071904Y-85311118D01*
X174071904Y-85311118D02*
X174119523Y-85358737D01*
X174119523Y-85358737D02*
X174167142Y-85453975D01*
X174167142Y-85453975D02*
X174167142Y-85596832D01*
X174167142Y-85596832D02*
X174119523Y-85692070D01*
X174119523Y-85692070D02*
X174071904Y-85739689D01*
X174071904Y-85739689D02*
X173976666Y-85787308D01*
X173976666Y-85787308D02*
X173595714Y-85787308D01*
X175119523Y-86263499D02*
X174548095Y-86263499D01*
X174833809Y-86263499D02*
X174833809Y-85263499D01*
X174833809Y-85263499D02*
X174738571Y-85406356D01*
X174738571Y-85406356D02*
X174643333Y-85501594D01*
X174643333Y-85501594D02*
X174548095Y-85549213D01*
X175690952Y-85692070D02*
X175595714Y-85644451D01*
X175595714Y-85644451D02*
X175548095Y-85596832D01*
X175548095Y-85596832D02*
X175500476Y-85501594D01*
X175500476Y-85501594D02*
X175500476Y-85453975D01*
X175500476Y-85453975D02*
X175548095Y-85358737D01*
X175548095Y-85358737D02*
X175595714Y-85311118D01*
X175595714Y-85311118D02*
X175690952Y-85263499D01*
X175690952Y-85263499D02*
X175881428Y-85263499D01*
X175881428Y-85263499D02*
X175976666Y-85311118D01*
X175976666Y-85311118D02*
X176024285Y-85358737D01*
X176024285Y-85358737D02*
X176071904Y-85453975D01*
X176071904Y-85453975D02*
X176071904Y-85501594D01*
X176071904Y-85501594D02*
X176024285Y-85596832D01*
X176024285Y-85596832D02*
X175976666Y-85644451D01*
X175976666Y-85644451D02*
X175881428Y-85692070D01*
X175881428Y-85692070D02*
X175690952Y-85692070D01*
X175690952Y-85692070D02*
X175595714Y-85739689D01*
X175595714Y-85739689D02*
X175548095Y-85787308D01*
X175548095Y-85787308D02*
X175500476Y-85882546D01*
X175500476Y-85882546D02*
X175500476Y-86073022D01*
X175500476Y-86073022D02*
X175548095Y-86168260D01*
X175548095Y-86168260D02*
X175595714Y-86215880D01*
X175595714Y-86215880D02*
X175690952Y-86263499D01*
X175690952Y-86263499D02*
X175881428Y-86263499D01*
X175881428Y-86263499D02*
X175976666Y-86215880D01*
X175976666Y-86215880D02*
X176024285Y-86168260D01*
X176024285Y-86168260D02*
X176071904Y-86073022D01*
X176071904Y-86073022D02*
X176071904Y-85882546D01*
X176071904Y-85882546D02*
X176024285Y-85787308D01*
X176024285Y-85787308D02*
X175976666Y-85739689D01*
X175976666Y-85739689D02*
X175881428Y-85692070D01*
D11*
%TO.C,R2*%
X165727064Y-70265000D02*
X165272936Y-70265000D01*
X165727064Y-71735000D02*
X165272936Y-71735000D01*
%TO.C,J1*%
X133390000Y-144170000D02*
X134720000Y-144170000D01*
X133390000Y-145500000D02*
X133390000Y-144170000D01*
X135990000Y-144170000D02*
X171610000Y-144170000D01*
X135990000Y-146830000D02*
X135990000Y-144170000D01*
X135990000Y-146830000D02*
X171610000Y-146830000D01*
X171610000Y-146830000D02*
X171610000Y-144170000D01*
%TO.C,C11*%
X171273680Y-132802568D02*
X171273680Y-133325072D01*
X172743680Y-132802568D02*
X172743680Y-133325072D01*
%TO.C,C3*%
X132153680Y-66825072D02*
X132153680Y-66302568D01*
X133623680Y-66825072D02*
X133623680Y-66302568D01*
%TO.C,C10*%
X171273680Y-110802568D02*
X171273680Y-111325072D01*
X172743680Y-110802568D02*
X172743680Y-111325072D01*
%TO.C,C6*%
X132393680Y-133325072D02*
X132393680Y-132802568D01*
X133863680Y-133325072D02*
X133863680Y-132802568D01*
%TO.C,R8*%
X165727064Y-42355000D02*
X165272936Y-42355000D01*
X165727064Y-43825000D02*
X165272936Y-43825000D01*
%TO.C,R7*%
X165727064Y-50015000D02*
X165272936Y-50015000D01*
X165727064Y-51485000D02*
X165272936Y-51485000D01*
%TO.C,R11*%
X129643680Y-44112936D02*
X129643680Y-44567064D01*
X131113680Y-44112936D02*
X131113680Y-44567064D01*
D12*
%TO.C,D7*%
X177810000Y-68480000D02*
X177210000Y-67880000D01*
X177810000Y-67880000D01*
X177810000Y-68480000D01*
G36*
X177810000Y-68480000D02*
G01*
X177210000Y-67880000D01*
X177810000Y-67880000D01*
X177810000Y-68480000D01*
G37*
D11*
X182630000Y-65032000D02*
X182390000Y-64702000D01*
X182870000Y-64702000D01*
X182630000Y-65032000D01*
G36*
X182630000Y-65032000D02*
G01*
X182390000Y-64702000D01*
X182870000Y-64702000D01*
X182630000Y-65032000D01*
G37*
D12*
%TO.C,D9*%
X177910000Y-112920000D02*
X177310000Y-112320000D01*
X177910000Y-112320000D01*
X177910000Y-112920000D01*
G36*
X177910000Y-112920000D02*
G01*
X177310000Y-112320000D01*
X177910000Y-112320000D01*
X177910000Y-112920000D01*
G37*
D11*
X182730000Y-109472000D02*
X182490000Y-109142000D01*
X182970000Y-109142000D01*
X182730000Y-109472000D01*
G36*
X182730000Y-109472000D02*
G01*
X182490000Y-109142000D01*
X182970000Y-109142000D01*
X182730000Y-109472000D01*
G37*
%TO.C,R16*%
X173943680Y-44560884D02*
X173943680Y-44106756D01*
X175413680Y-44560884D02*
X175413680Y-44106756D01*
D12*
%TO.C,D6*%
X177760000Y-46260000D02*
X177160000Y-45660000D01*
X177760000Y-45660000D01*
X177760000Y-46260000D01*
G36*
X177760000Y-46260000D02*
G01*
X177160000Y-45660000D01*
X177760000Y-45660000D01*
X177760000Y-46260000D01*
G37*
D11*
X182580000Y-42812000D02*
X182340000Y-42482000D01*
X182820000Y-42482000D01*
X182580000Y-42812000D01*
G36*
X182580000Y-42812000D02*
G01*
X182340000Y-42482000D01*
X182820000Y-42482000D01*
X182580000Y-42812000D01*
G37*
D12*
%TO.C,D3*%
X127835000Y-87300000D02*
X127235000Y-87300000D01*
X127235000Y-86700000D01*
X127835000Y-87300000D01*
G36*
X127835000Y-87300000D02*
G01*
X127235000Y-87300000D01*
X127235000Y-86700000D01*
X127835000Y-87300000D01*
G37*
D11*
X122655000Y-90478000D02*
X122175000Y-90478000D01*
X122415000Y-90148000D01*
X122655000Y-90478000D01*
G36*
X122655000Y-90478000D02*
G01*
X122175000Y-90478000D01*
X122415000Y-90148000D01*
X122655000Y-90478000D01*
G37*
%TO.C,R6*%
X165727064Y-44855000D02*
X165272936Y-44855000D01*
X165727064Y-46325000D02*
X165272936Y-46325000D01*
D12*
%TO.C,D4*%
X127885000Y-109520000D02*
X127285000Y-109520000D01*
X127285000Y-108920000D01*
X127885000Y-109520000D01*
G36*
X127885000Y-109520000D02*
G01*
X127285000Y-109520000D01*
X127285000Y-108920000D01*
X127885000Y-109520000D01*
G37*
D11*
X122705000Y-112698000D02*
X122225000Y-112698000D01*
X122465000Y-112368000D01*
X122705000Y-112698000D01*
G36*
X122705000Y-112698000D02*
G01*
X122225000Y-112698000D01*
X122465000Y-112368000D01*
X122705000Y-112698000D01*
G37*
%TO.C,R5*%
X165727064Y-52515000D02*
X165272936Y-52515000D01*
X165727064Y-53985000D02*
X165272936Y-53985000D01*
D12*
%TO.C,D8*%
X177860000Y-90700000D02*
X177260000Y-90100000D01*
X177860000Y-90100000D01*
X177860000Y-90700000D01*
G36*
X177860000Y-90700000D02*
G01*
X177260000Y-90100000D01*
X177860000Y-90100000D01*
X177860000Y-90700000D01*
G37*
D11*
X182680000Y-87252000D02*
X182440000Y-86922000D01*
X182920000Y-86922000D01*
X182680000Y-87252000D01*
G36*
X182680000Y-87252000D02*
G01*
X182440000Y-86922000D01*
X182920000Y-86922000D01*
X182680000Y-87252000D01*
G37*
%TO.C,R17*%
X173943680Y-66810884D02*
X173943680Y-66356756D01*
X175413680Y-66810884D02*
X175413680Y-66356756D01*
%TO.C,R19*%
X174075000Y-111317064D02*
X174075000Y-110862936D01*
X175545000Y-111317064D02*
X175545000Y-110862936D01*
%TO.C,C5*%
X132403680Y-111325072D02*
X132403680Y-110802568D01*
X133873680Y-111325072D02*
X133873680Y-110802568D01*
%TO.C,R12*%
X129643680Y-66362936D02*
X129643680Y-66817064D01*
X131113680Y-66362936D02*
X131113680Y-66817064D01*
D12*
%TO.C,D10*%
X177960000Y-135140000D02*
X177360000Y-134540000D01*
X177960000Y-134540000D01*
X177960000Y-135140000D01*
G36*
X177960000Y-135140000D02*
G01*
X177360000Y-134540000D01*
X177960000Y-134540000D01*
X177960000Y-135140000D01*
G37*
D11*
X182780000Y-131692000D02*
X182540000Y-131362000D01*
X183020000Y-131362000D01*
X182780000Y-131692000D01*
G36*
X182780000Y-131692000D02*
G01*
X182540000Y-131362000D01*
X183020000Y-131362000D01*
X182780000Y-131692000D01*
G37*
%TO.C,R10*%
X138272936Y-44765000D02*
X138727064Y-44765000D01*
X138272936Y-46235000D02*
X138727064Y-46235000D01*
%TO.C,R9*%
X138272936Y-42265000D02*
X138727064Y-42265000D01*
X138272936Y-43735000D02*
X138727064Y-43735000D01*
%TO.C,R15*%
X129893680Y-132862936D02*
X129893680Y-133317064D01*
X131363680Y-132862936D02*
X131363680Y-133317064D01*
%TO.C,R20*%
X174075000Y-133317064D02*
X174075000Y-132862936D01*
X175545000Y-133317064D02*
X175545000Y-132862936D01*
%TO.C,R3*%
X165727064Y-67765000D02*
X165272936Y-67765000D01*
X165727064Y-69235000D02*
X165272936Y-69235000D01*
%TO.C,R4*%
X138272936Y-39886320D02*
X138727064Y-39886320D01*
X138272936Y-41356320D02*
X138727064Y-41356320D01*
%TO.C,C7*%
X171143680Y-44042568D02*
X171143680Y-44565072D01*
X172613680Y-44042568D02*
X172613680Y-44565072D01*
%TO.C,C4*%
X132153680Y-88825072D02*
X132153680Y-88302568D01*
X133623680Y-88825072D02*
X133623680Y-88302568D01*
D12*
%TO.C,D5*%
X127935000Y-131740000D02*
X127335000Y-131740000D01*
X127335000Y-131140000D01*
X127935000Y-131740000D01*
G36*
X127935000Y-131740000D02*
G01*
X127335000Y-131740000D01*
X127335000Y-131140000D01*
X127935000Y-131740000D01*
G37*
D11*
X122755000Y-134918000D02*
X122275000Y-134918000D01*
X122515000Y-134588000D01*
X122755000Y-134918000D01*
G36*
X122755000Y-134918000D02*
G01*
X122275000Y-134918000D01*
X122515000Y-134588000D01*
X122755000Y-134918000D01*
G37*
%TO.C,R14*%
X129893680Y-110862936D02*
X129893680Y-111317064D01*
X131363680Y-110862936D02*
X131363680Y-111317064D01*
D12*
%TO.C,D2*%
X127785000Y-65080000D02*
X127185000Y-65080000D01*
X127185000Y-64480000D01*
X127785000Y-65080000D01*
G36*
X127785000Y-65080000D02*
G01*
X127185000Y-65080000D01*
X127185000Y-64480000D01*
X127785000Y-65080000D01*
G37*
D11*
X122605000Y-68258000D02*
X122125000Y-68258000D01*
X122365000Y-67928000D01*
X122605000Y-68258000D01*
G36*
X122605000Y-68258000D02*
G01*
X122125000Y-68258000D01*
X122365000Y-67928000D01*
X122605000Y-68258000D01*
G37*
%TO.C,R1*%
X165727064Y-72765000D02*
X165272936Y-72765000D01*
X165727064Y-74235000D02*
X165272936Y-74235000D01*
D12*
%TO.C,D1*%
X127735000Y-42860000D02*
X127135000Y-42860000D01*
X127135000Y-42260000D01*
X127735000Y-42860000D01*
G36*
X127735000Y-42860000D02*
G01*
X127135000Y-42860000D01*
X127135000Y-42260000D01*
X127735000Y-42860000D01*
G37*
D11*
X122555000Y-46038000D02*
X122075000Y-46038000D01*
X122315000Y-45708000D01*
X122555000Y-46038000D01*
G36*
X122555000Y-46038000D02*
G01*
X122075000Y-46038000D01*
X122315000Y-45708000D01*
X122555000Y-46038000D01*
G37*
%TO.C,R13*%
X129643680Y-88362936D02*
X129643680Y-88817064D01*
X131113680Y-88362936D02*
X131113680Y-88817064D01*
%TO.C,R18*%
X174075000Y-88817064D02*
X174075000Y-88362936D01*
X175545000Y-88817064D02*
X175545000Y-88362936D01*
%TO.C,C9*%
X171283680Y-88312568D02*
X171283680Y-88835072D01*
X172753680Y-88312568D02*
X172753680Y-88835072D01*
%TO.C,C2*%
X132153680Y-44575072D02*
X132153680Y-44052568D01*
X133623680Y-44575072D02*
X133623680Y-44052568D01*
%TO.C,C1*%
X165248748Y-39855000D02*
X165771252Y-39855000D01*
X165248748Y-41325000D02*
X165771252Y-41325000D01*
%TO.C,C8*%
X171143680Y-66292568D02*
X171143680Y-66815072D01*
X172613680Y-66292568D02*
X172613680Y-66815072D01*
%TD*%
M02*
