%TF.GenerationSoftware,KiCad,Pcbnew,9.0.2+dfsg-1*%
%TF.CreationDate,2026-05-12T16:28:09+03:00*%
%TF.ProjectId,bottom,626f7474-6f6d-42e6-9b69-6361645f7063,rev?*%
%TF.SameCoordinates,Original*%
%TF.FileFunction,Soldermask,Bot*%
%TF.FilePolarity,Negative*%
%FSLAX46Y46*%
G04 Gerber Fmt 4.6, Leading zero omitted, Abs format (unit mm)*
G04 Created by KiCad (PCBNEW 9.0.2+dfsg-1) date 2026-05-12 16:28:09*
%MOMM*%
%LPD*%
G01*
G04 APERTURE LIST*
G04 Aperture macros list*
%AMRoundRect*
0 Rectangle with rounded corners*
0 $1 Rounding radius*
0 $2 $3 $4 $5 $6 $7 $8 $9 X,Y pos of 4 corners*
0 Add a 4 corners polygon primitive as box body*
4,1,4,$2,$3,$4,$5,$6,$7,$8,$9,$2,$3,0*
0 Add four circle primitives for the rounded corners*
1,1,$1+$1,$2,$3*
1,1,$1+$1,$4,$5*
1,1,$1+$1,$6,$7*
1,1,$1+$1,$8,$9*
0 Add four rect primitives between the rounded corners*
20,1,$1+$1,$2,$3,$4,$5,0*
20,1,$1+$1,$4,$5,$6,$7,0*
20,1,$1+$1,$6,$7,$8,$9,0*
20,1,$1+$1,$8,$9,$2,$3,0*%
G04 Aperture macros list end*
%ADD10O,1.700000X1.700000*%
%ADD11C,3.800000*%
%ADD12C,1.625600*%
%ADD13RoundRect,0.025400X-0.736600X-0.736600X0.736600X-0.736600X0.736600X0.736600X-0.736600X0.736600X0*%
%ADD14RoundRect,0.250000X-0.475000X0.337500X-0.475000X-0.337500X0.475000X-0.337500X0.475000X0.337500X0*%
%ADD15R,1.200000X0.600000*%
%ADD16RoundRect,0.250000X0.450000X-0.350000X0.450000X0.350000X-0.450000X0.350000X-0.450000X-0.350000X0*%
G04 APERTURE END LIST*
D10*
%TO.C,J1*%
X134720000Y-145500000D03*
X137260000Y-145500000D03*
X139800000Y-145500000D03*
X142340000Y-145500000D03*
X144880000Y-145500000D03*
X147420000Y-145500000D03*
X149960000Y-145500000D03*
X152500000Y-145500000D03*
X155040000Y-145500000D03*
X157580000Y-145500000D03*
X160120000Y-145500000D03*
X162660000Y-145500000D03*
X165200000Y-145500000D03*
X167740000Y-145500000D03*
X170280000Y-145500000D03*
%TD*%
D11*
%TO.C,H3*%
X181628680Y-145371320D03*
%TD*%
%TO.C,H2*%
X181628680Y-32371320D03*
%TD*%
D12*
%TO.C,U1*%
X159510000Y-32950000D03*
D13*
X159510000Y-35490000D03*
D12*
X159510000Y-38030000D03*
X159510000Y-40570000D03*
X159510000Y-43110000D03*
X159510000Y-45650000D03*
X159510000Y-48190000D03*
X159510000Y-50730000D03*
X159510000Y-53270000D03*
X159510000Y-55810000D03*
X159510000Y-58350000D03*
X159510000Y-60890000D03*
X159510000Y-63430000D03*
X159510000Y-65970000D03*
X159510000Y-68510000D03*
X159510000Y-71050000D03*
X159510000Y-73590000D03*
X144270000Y-73590000D03*
X144270000Y-71050000D03*
X144270000Y-68510000D03*
X144270000Y-65970000D03*
X144270000Y-63430000D03*
X144270000Y-60890000D03*
X144270000Y-58350000D03*
D13*
X144270000Y-55810000D03*
D12*
X144270000Y-53270000D03*
X144270000Y-50730000D03*
X144270000Y-48190000D03*
X144270000Y-45650000D03*
X144270000Y-43110000D03*
X144270000Y-40570000D03*
X144270000Y-38030000D03*
X144270000Y-35490000D03*
X144270000Y-32950000D03*
%TD*%
D11*
%TO.C,H4*%
X123628680Y-145371320D03*
%TD*%
%TO.C,H1*%
X123628680Y-32371320D03*
%TD*%
D14*
%TO.C,C12*%
X156378680Y-32833820D03*
X156378680Y-34908820D03*
%TD*%
D15*
%TO.C,IC1*%
X153878680Y-32921320D03*
X153878680Y-33871320D03*
X153878680Y-34821320D03*
X151378680Y-34821320D03*
X151378680Y-33871320D03*
X151378680Y-32921320D03*
%TD*%
D16*
%TO.C,R21*%
X155378680Y-40121320D03*
X155378680Y-38121320D03*
%TD*%
%TO.C,R22*%
X155378680Y-57871320D03*
X155378680Y-55871320D03*
%TD*%
M02*
