M48
; DRILL file {KiCad 9.0.2+dfsg-1} date 2026-05-12T16:28:06+0300
; FORMAT={-:-/ absolute / metric / decimal}
; #@! TF.CreationDate,2026-05-12T16:28:06+03:00
; #@! TF.GenerationSoftware,Kicad,Pcbnew,9.0.2+dfsg-1
; #@! TF.FileFunction,Plated,1,2,PTH
FMAT,2
METRIC
; #@! TA.AperFunction,Plated,PTH,ViaDrill
T1C0.300
; #@! TA.AperFunction,Plated,PTH,ComponentDrill
T2C0.900
; #@! TA.AperFunction,Plated,PTH,ComponentDrill
T3C1.000
; #@! TA.AperFunction,Plated,PTH,ComponentDrill
T4C2.200
%
G90
G05
T1
X123.629Y-47.871
X123.629Y-52.871
X123.629Y-57.871
X123.629Y-62.871
X123.879Y-69.871
X123.879Y-74.871
X123.879Y-79.871
X123.879Y-84.871
X123.879Y-92.879
X123.879Y-97.879
X123.879Y-102.879
X123.879Y-107.879
X123.879Y-117.879
X123.879Y-122.879
X123.879Y-127.879
X127.879Y-42.121
X128.879Y-52.879
X128.879Y-57.879
X128.879Y-72.879
X128.879Y-77.879
X128.879Y-82.879
X128.879Y-92.879
X128.879Y-97.879
X128.879Y-102.879
X128.879Y-117.879
X128.879Y-122.879
X128.879Y-127.879
X132.129Y-137.871
X133.879Y-32.879
X133.879Y-37.879
X138.879Y-52.879
X138.879Y-57.879
X138.879Y-62.879
X138.879Y-67.879
X138.879Y-72.879
X138.879Y-77.879
X138.879Y-82.879
X138.879Y-87.879
X138.879Y-92.879
X138.879Y-97.879
X138.879Y-102.879
X138.879Y-107.879
X138.879Y-112.879
X138.879Y-117.879
X138.879Y-122.879
X138.879Y-127.879
X138.879Y-132.879
X138.879Y-137.879
X138.879Y-142.879
X143.879Y-82.879
X143.879Y-87.879
X143.879Y-92.879
X143.879Y-97.879
X143.879Y-102.879
X143.879Y-107.879
X143.879Y-112.879
X143.879Y-117.879
X143.879Y-122.879
X143.879Y-127.879
X143.879Y-137.879
X150.629Y-30.121
X156.379Y-60.371
X156.379Y-67.621
X156.879Y-48.371
X158.879Y-82.879
X158.879Y-87.879
X158.879Y-92.879
X158.879Y-97.879
X158.879Y-102.879
X158.879Y-107.879
X158.879Y-112.879
X158.879Y-117.879
X158.879Y-122.879
X158.879Y-127.879
X162.129Y-47.871
X162.879Y-60.371
X163.879Y-37.879
X163.879Y-77.879
X163.879Y-82.879
X163.879Y-87.879
X163.879Y-92.879
X163.879Y-97.879
X163.879Y-102.879
X163.879Y-107.879
X163.879Y-112.879
X163.879Y-117.879
X163.879Y-122.879
X163.879Y-127.879
X163.879Y-132.879
X168.129Y-47.871
X168.129Y-57.871
X168.129Y-62.871
X168.129Y-77.871
X168.129Y-82.871
X168.129Y-87.871
X168.129Y-92.871
X168.129Y-97.871
X168.129Y-102.871
X168.129Y-107.871
X168.129Y-112.871
X168.129Y-117.871
X168.129Y-122.871
X168.129Y-127.871
X168.129Y-132.871
X168.879Y-32.879
X168.879Y-137.879
X173.879Y-32.879
X173.879Y-37.879
X173.879Y-47.879
X173.879Y-52.879
X173.879Y-57.879
X173.879Y-72.879
X173.879Y-77.879
X173.879Y-82.879
X173.879Y-92.879
X173.879Y-97.879
X173.879Y-102.879
X173.879Y-117.879
X173.879Y-122.879
X173.879Y-127.879
X178.879Y-47.879
X178.879Y-52.879
X178.879Y-57.879
X178.879Y-62.879
X178.879Y-72.879
X178.879Y-77.879
X178.879Y-82.879
X178.879Y-92.879
X178.879Y-97.879
X178.879Y-102.879
X178.879Y-107.879
X178.879Y-117.879
X178.879Y-122.879
X178.879Y-127.879
T2
X144.27Y-32.95
X144.27Y-35.49
X144.27Y-38.03
X144.27Y-40.57
X144.27Y-43.11
X144.27Y-45.65
X144.27Y-48.19
X144.27Y-50.73
X144.27Y-53.27
X144.27Y-55.81
X144.27Y-58.35
X144.27Y-60.89
X144.27Y-63.43
X144.27Y-65.97
X144.27Y-68.51
X144.27Y-71.05
X144.27Y-73.59
X159.51Y-32.95
X159.51Y-35.49
X159.51Y-38.03
X159.51Y-40.57
X159.51Y-43.11
X159.51Y-45.65
X159.51Y-48.19
X159.51Y-50.73
X159.51Y-53.27
X159.51Y-55.81
X159.51Y-58.35
X159.51Y-60.89
X159.51Y-63.43
X159.51Y-65.97
X159.51Y-68.51
X159.51Y-71.05
X159.51Y-73.59
T3
X134.72Y-145.5
X137.26Y-145.5
X139.8Y-145.5
X142.34Y-145.5
X144.88Y-145.5
X147.42Y-145.5
X149.96Y-145.5
X152.5Y-145.5
X155.04Y-145.5
X157.58Y-145.5
X160.12Y-145.5
X162.66Y-145.5
X165.2Y-145.5
X167.74Y-145.5
X170.28Y-145.5
T4
X123.629Y-32.371
X123.629Y-145.371
X181.629Y-32.371
X181.629Y-145.371
M30
