%TF.GenerationSoftware,KiCad,Pcbnew,9.0.2+dfsg-1*%
%TF.CreationDate,2026-05-12T16:28:09+03:00*%
%TF.ProjectId,bottom,626f7474-6f6d-42e6-9b69-6361645f7063,rev?*%
%TF.SameCoordinates,Original*%
%TF.FileFunction,Copper,L2,Bot*%
%TF.FilePolarity,Positive*%
%FSLAX46Y46*%
G04 Gerber Fmt 4.6, Leading zero omitted, Abs format (unit mm)*
G04 Created by KiCad (PCBNEW 9.0.2+dfsg-1) date 2026-05-12 16:28:09*
%MOMM*%
%LPD*%
G01*
G04 APERTURE LIST*
G04 Aperture macros list*
%AMRoundRect*
0 Rectangle with rounded corners*
0 $1 Rounding radius*
0 $2 $3 $4 $5 $6 $7 $8 $9 X,Y pos of 4 corners*
0 Add a 4 corners polygon primitive as box body*
4,1,4,$2,$3,$4,$5,$6,$7,$8,$9,$2,$3,0*
0 Add four circle primitives for the rounded corners*
1,1,$1+$1,$2,$3*
1,1,$1+$1,$4,$5*
1,1,$1+$1,$6,$7*
1,1,$1+$1,$8,$9*
0 Add four rect primitives between the rounded corners*
20,1,$1+$1,$2,$3,$4,$5,0*
20,1,$1+$1,$4,$5,$6,$7,0*
20,1,$1+$1,$6,$7,$8,$9,0*
20,1,$1+$1,$8,$9,$2,$3,0*%
G04 Aperture macros list end*
%TA.AperFunction,ComponentPad*%
%ADD10O,1.700000X1.700000*%
%TD*%
%TA.AperFunction,ComponentPad*%
%ADD11C,3.800000*%
%TD*%
%TA.AperFunction,ComponentPad*%
%ADD12C,1.574800*%
%TD*%
%TA.AperFunction,ComponentPad*%
%ADD13R,1.473200X1.473200*%
%TD*%
%TA.AperFunction,SMDPad,CuDef*%
%ADD14RoundRect,0.250000X-0.475000X0.337500X-0.475000X-0.337500X0.475000X-0.337500X0.475000X0.337500X0*%
%TD*%
%TA.AperFunction,SMDPad,CuDef*%
%ADD15R,1.200000X0.600000*%
%TD*%
%TA.AperFunction,SMDPad,CuDef*%
%ADD16RoundRect,0.250000X0.450000X-0.350000X0.450000X0.350000X-0.450000X0.350000X-0.450000X-0.350000X0*%
%TD*%
%TA.AperFunction,ViaPad*%
%ADD17C,0.600000*%
%TD*%
%TA.AperFunction,Conductor*%
%ADD18C,0.500000*%
%TD*%
G04 APERTURE END LIST*
D10*
%TO.P,J1,1,Pin_1*%
%TO.N,+3.3V*%
X134720000Y-145500000D03*
%TO.P,J1,2,Pin_2*%
%TO.N,GND*%
X137260000Y-145500000D03*
%TO.P,J1,3,Pin_3*%
%TO.N,BT_SELECT*%
X139800000Y-145500000D03*
%TO.P,J1,4,Pin_4*%
%TO.N,COL0*%
X142340000Y-145500000D03*
%TO.P,J1,5,Pin_5*%
%TO.N,COL1*%
X144880000Y-145500000D03*
%TO.P,J1,6,Pin_6*%
%TO.N,COL2*%
X147420000Y-145500000D03*
%TO.P,J1,7,Pin_7*%
%TO.N,OLED_SDA*%
X149960000Y-145500000D03*
%TO.P,J1,8,Pin_8*%
%TO.N,OLED_SCL*%
X152500000Y-145500000D03*
%TO.P,J1,9,Pin_9*%
%TO.N,ENC_SW*%
X155040000Y-145500000D03*
%TO.P,J1,10,Pin_10*%
%TO.N,ENC_CLK*%
X157580000Y-145500000D03*
%TO.P,J1,11,Pin_11*%
%TO.N,ENC_DT*%
X160120000Y-145500000D03*
%TO.P,J1,12,Pin_12*%
%TO.N,ROW3*%
X162660000Y-145500000D03*
%TO.P,J1,13,Pin_13*%
%TO.N,ROW2*%
X165200000Y-145500000D03*
%TO.P,J1,14,Pin_14*%
%TO.N,ROW1*%
X167740000Y-145500000D03*
%TO.P,J1,15,Pin_15*%
%TO.N,ROW0*%
X170280000Y-145500000D03*
%TD*%
D11*
%TO.P,H3,1,1*%
%TO.N,GND*%
X181628680Y-145371320D03*
%TD*%
%TO.P,H2,1,1*%
%TO.N,GND*%
X181628680Y-32371320D03*
%TD*%
D12*
%TO.P,U1,1,VBAT*%
%TO.N,VBAT*%
X159510000Y-32950000D03*
D13*
%TO.P,U1,2,GND*%
%TO.N,GND*%
X159510000Y-35490000D03*
D12*
%TO.P,U1,3,5V*%
%TO.N,+5V*%
X159510000Y-38030000D03*
%TO.P,U1,4,3V3.1*%
%TO.N,+3.3V*%
X159510000Y-40570000D03*
%TO.P,U1,5,1*%
%TO.N,ENC_SW*%
X159510000Y-43110000D03*
%TO.P,U1,6,2*%
%TO.N,ENC_CLK*%
X159510000Y-45650000D03*
%TO.P,U1,7,3*%
%TO.N,unconnected-(U1-3-Pad7)*%
X159510000Y-48190000D03*
%TO.P,U1,8,4*%
%TO.N,ENC_DT*%
X159510000Y-50730000D03*
%TO.P,U1,9,5*%
%TO.N,ROW3*%
X159510000Y-53270000D03*
%TO.P,U1,10,21*%
%TO.N,VBUS_SENSE*%
X159510000Y-55810000D03*
%TO.P,U1,11,0*%
%TO.N,unconnected-(U1-0-Pad11)*%
X159510000Y-58350000D03*
%TO.P,U1,12,3V3.2*%
%TO.N,unconnected-(U1-3V3.2-Pad12)*%
X159510000Y-60890000D03*
%TO.P,U1,13,16*%
%TO.N,LED_STATUS*%
X159510000Y-63430000D03*
%TO.P,U1,14,15*%
%TO.N,unconnected-(U1-15-Pad14)*%
X159510000Y-65970000D03*
%TO.P,U1,15,14*%
%TO.N,ROW2*%
X159510000Y-68510000D03*
%TO.P,U1,16,13*%
%TO.N,ROW1*%
X159510000Y-71050000D03*
%TO.P,U1,17,12*%
%TO.N,ROW0*%
X159510000Y-73590000D03*
%TO.P,U1,18,42*%
%TO.N,unconnected-(U1-42-Pad18)*%
X144270000Y-73590000D03*
%TO.P,U1,19,41*%
%TO.N,unconnected-(U1-41-Pad19)*%
X144270000Y-71050000D03*
%TO.P,U1,20,40*%
%TO.N,unconnected-(U1-40-Pad20)*%
X144270000Y-68510000D03*
%TO.P,U1,21,39*%
%TO.N,unconnected-(U1-39-Pad21)*%
X144270000Y-65970000D03*
%TO.P,U1,22,38*%
%TO.N,unconnected-(U1-38-Pad22)*%
X144270000Y-63430000D03*
%TO.P,U1,23,RX*%
%TO.N,unconnected-(U1-RX-Pad23)*%
X144270000Y-60890000D03*
%TO.P,U1,24,TX*%
%TO.N,unconnected-(U1-TX-Pad24)*%
X144270000Y-58350000D03*
D13*
%TO.P,U1,25,GND*%
%TO.N,GND*%
X144270000Y-55810000D03*
D12*
%TO.P,U1,26,RST*%
%TO.N,unconnected-(U1-RST-Pad26)*%
X144270000Y-53270000D03*
%TO.P,U1,27,6*%
%TO.N,unconnected-(U1-6-Pad27)*%
X144270000Y-50730000D03*
%TO.P,U1,28,7*%
%TO.N,RGB_LEDS*%
X144270000Y-48190000D03*
%TO.P,U1,29,8*%
%TO.N,OLED_SDA*%
X144270000Y-45650000D03*
%TO.P,U1,30,9*%
%TO.N,OLED_SCL*%
X144270000Y-43110000D03*
%TO.P,U1,31,34*%
%TO.N,BT_SELECT*%
X144270000Y-40570000D03*
%TO.P,U1,32,36*%
%TO.N,COL0*%
X144270000Y-38030000D03*
%TO.P,U1,33,37*%
%TO.N,COL1*%
X144270000Y-35490000D03*
%TO.P,U1,34,35*%
%TO.N,COL2*%
X144270000Y-32950000D03*
%TD*%
D11*
%TO.P,H4,1,1*%
%TO.N,GND*%
X123628680Y-145371320D03*
%TD*%
%TO.P,H1,1,1*%
%TO.N,GND*%
X123628680Y-32371320D03*
%TD*%
D14*
%TO.P,C12,1*%
%TO.N,VBAT*%
X156378680Y-32833820D03*
%TO.P,C12,2*%
%TO.N,GND*%
X156378680Y-34908820D03*
%TD*%
D15*
%TO.P,IC1,1,VIN*%
%TO.N,VBAT*%
X153878680Y-32921320D03*
%TO.P,IC1,2,GND*%
%TO.N,GND*%
X153878680Y-33871320D03*
%TO.P,IC1,3,ON*%
%TO.N,LED_STATUS*%
X153878680Y-34821320D03*
%TO.P,IC1,4,CT*%
%TO.N,unconnected-(IC1-CT-Pad4)*%
X151378680Y-34821320D03*
%TO.P,IC1,5,QOD*%
%TO.N,LED_PWR*%
X151378680Y-33871320D03*
%TO.P,IC1,6,VOUT*%
X151378680Y-32921320D03*
%TD*%
D16*
%TO.P,R21,1*%
%TO.N,VBUS_SENSE*%
X155378680Y-40121320D03*
%TO.P,R21,2*%
%TO.N,+5V*%
X155378680Y-38121320D03*
%TD*%
%TO.P,R22,1*%
%TO.N,GND*%
X155378680Y-57871320D03*
%TO.P,R22,2*%
%TO.N,VBUS_SENSE*%
X155378680Y-55871320D03*
%TD*%
D17*
%TO.N,*%
X156878680Y-48371320D03*
%TO.N,GND*%
X123878680Y-79871320D03*
X168128680Y-107871320D03*
X123878680Y-122878680D03*
X123878680Y-92878680D03*
X158878680Y-82878680D03*
X158878680Y-87878680D03*
X168128680Y-102871320D03*
X128878680Y-102878680D03*
X133878680Y-32878680D03*
X168128680Y-87871320D03*
X143878680Y-92878680D03*
X173878680Y-82878680D03*
X143878680Y-107878680D03*
X123878680Y-127878680D03*
X158878680Y-117878680D03*
X173878680Y-57878680D03*
X163878680Y-112878680D03*
X168128680Y-112871320D03*
X168878680Y-137878680D03*
X173878680Y-72878680D03*
X168128680Y-47871320D03*
X178878680Y-102878680D03*
X156378680Y-67621320D03*
X143878680Y-97878680D03*
X133878680Y-37878680D03*
X158878680Y-112878680D03*
X138878680Y-132878680D03*
X138878680Y-72878680D03*
X163878680Y-37878680D03*
X168128680Y-132871320D03*
X178878680Y-72878680D03*
X158878680Y-122878680D03*
X138878680Y-82878680D03*
X128878680Y-52878680D03*
X178878680Y-62878680D03*
X138878680Y-57878680D03*
X168128680Y-92871320D03*
X128878680Y-72878680D03*
X132128680Y-137871320D03*
X138878680Y-142878680D03*
X143878680Y-117878680D03*
X173878680Y-52878680D03*
X178878680Y-92878680D03*
X123628680Y-57871320D03*
X138878680Y-137878680D03*
X143878680Y-87878680D03*
X138878680Y-127878680D03*
X178878680Y-57878680D03*
X168128680Y-82871320D03*
X163878680Y-87878680D03*
X138878680Y-112878680D03*
X128878680Y-97878680D03*
X168128680Y-117871320D03*
X162128680Y-47871320D03*
X158878680Y-92878680D03*
X178878680Y-117878680D03*
X138878680Y-107878680D03*
X178878680Y-122878680D03*
X163878680Y-102878680D03*
X128878680Y-57878680D03*
X123878680Y-102878680D03*
X173878680Y-32878680D03*
X178878680Y-127878680D03*
X163878680Y-97878680D03*
X173878680Y-127878680D03*
X138878680Y-52878680D03*
X173878680Y-102878680D03*
X168128680Y-62871320D03*
X138878680Y-87878680D03*
X163878680Y-77878680D03*
X123628680Y-52871320D03*
X128878680Y-127878680D03*
X173878680Y-117878680D03*
X168128680Y-127871320D03*
X128878680Y-77878680D03*
X138878680Y-92878680D03*
X173878680Y-92878680D03*
X168128680Y-122871320D03*
X123878680Y-107878680D03*
X143878680Y-102878680D03*
X156378680Y-60371320D03*
X128878680Y-82878680D03*
X123628680Y-47871320D03*
X173878680Y-77878680D03*
X168128680Y-77871320D03*
X123878680Y-69871320D03*
X163878680Y-127878680D03*
X123878680Y-74871320D03*
X178878680Y-97878680D03*
X162878680Y-60371320D03*
X178878680Y-47878680D03*
X168878680Y-32878680D03*
X138878680Y-97878680D03*
X163878680Y-82878680D03*
X178878680Y-82878680D03*
X143878680Y-122878680D03*
X128878680Y-117878680D03*
X138878680Y-122878680D03*
X173878680Y-47878680D03*
X178878680Y-107878680D03*
X138878680Y-67878680D03*
X138878680Y-62878680D03*
X163878680Y-122878680D03*
X138878680Y-102878680D03*
X163878680Y-92878680D03*
X163878680Y-107878680D03*
X168128680Y-57871320D03*
X158878680Y-97878680D03*
X163878680Y-117878680D03*
X123878680Y-117878680D03*
X173878680Y-97878680D03*
X123628680Y-62871320D03*
X138878680Y-77878680D03*
X168128680Y-97871320D03*
X138878680Y-117878680D03*
X143878680Y-127878680D03*
X143878680Y-112878680D03*
X158878680Y-102878680D03*
X143878680Y-82878680D03*
X128878680Y-122878680D03*
X158878680Y-107878680D03*
X178878680Y-52878680D03*
X123878680Y-97878680D03*
X128878680Y-92878680D03*
X173878680Y-122878680D03*
X143878680Y-137878680D03*
X158878680Y-127878680D03*
X178878680Y-77878680D03*
X163878680Y-132878680D03*
X173878680Y-37878680D03*
X123878680Y-84871320D03*
%TO.N,LED_PWR*%
X150628680Y-30121320D03*
%TO.N,RGB_LEDS*%
X127878680Y-42121320D03*
%TD*%
D18*
%TO.N,OLED_SDA*%
X149878680Y-145418680D02*
X149878680Y-47621320D01*
X147907360Y-45650000D02*
X144270000Y-45650000D01*
X149878680Y-47621320D02*
X147907360Y-45650000D01*
%TO.N,OLED_SCL*%
X151878680Y-47121320D02*
X151878680Y-144878680D01*
X147867360Y-43110000D02*
X151878680Y-47121320D01*
X144270000Y-43110000D02*
X147867360Y-43110000D01*
X151878680Y-144878680D02*
X152500000Y-145500000D01*
%TO.N,VBAT*%
X156378680Y-32833820D02*
X159393820Y-32833820D01*
X153878680Y-32921320D02*
X156291180Y-32921320D01*
%TO.N,LED_PWR*%
X151378680Y-32621320D02*
X150628680Y-31871320D01*
X151378680Y-32921320D02*
X151378680Y-32621320D01*
X151378680Y-32921320D02*
X151378680Y-33871320D01*
X150628680Y-30121320D02*
X150628680Y-31871320D01*
%TO.N,LED_STATUS*%
X153378680Y-35321320D02*
X153878680Y-34821320D01*
X155187360Y-63430000D02*
X153378680Y-61621320D01*
X159510000Y-63430000D02*
X155187360Y-63430000D01*
X153378680Y-61621320D02*
X153378680Y-35321320D01*
%TO.N,RGB_LEDS*%
X141197360Y-48190000D02*
X144270000Y-48190000D01*
X128128680Y-41871320D02*
X134878680Y-41871320D01*
X127878680Y-42121320D02*
X128128680Y-41871320D01*
X134878680Y-41871320D02*
X141197360Y-48190000D01*
%TO.N,+5V*%
X159418680Y-38121320D02*
X159510000Y-38030000D01*
X155378680Y-38121320D02*
X159418680Y-38121320D01*
%TO.N,VBUS_SENSE*%
X155378680Y-40121320D02*
X155378680Y-55871320D01*
X155378680Y-55871320D02*
X159448680Y-55871320D01*
X159448680Y-55871320D02*
X159510000Y-55810000D01*
%TD*%
%TA.AperFunction,Conductor*%
%TO.N,GND*%
G36*
X157666248Y-56626561D02*
G01*
X158895397Y-56976589D01*
X158954480Y-57013882D01*
X158984024Y-57077199D01*
X158974645Y-57146436D01*
X158929323Y-57199612D01*
X158917730Y-57206332D01*
X158834992Y-57248490D01*
X158670995Y-57367639D01*
X158527639Y-57510995D01*
X158408492Y-57674990D01*
X158316458Y-57855615D01*
X158253812Y-58048419D01*
X158222100Y-58248640D01*
X158222100Y-58451359D01*
X158253812Y-58651580D01*
X158316458Y-58844384D01*
X158408492Y-59025009D01*
X158527639Y-59189004D01*
X158670995Y-59332360D01*
X158824456Y-59443854D01*
X158834994Y-59451510D01*
X158920194Y-59494921D01*
X158948834Y-59509515D01*
X158999630Y-59557490D01*
X159016425Y-59625311D01*
X158993887Y-59691446D01*
X158948834Y-59730485D01*
X158834990Y-59788492D01*
X158670995Y-59907639D01*
X158527639Y-60050995D01*
X158408492Y-60214990D01*
X158316458Y-60395615D01*
X158253812Y-60588419D01*
X158222100Y-60788640D01*
X158222100Y-60991360D01*
X158253813Y-61191584D01*
X158304236Y-61346771D01*
X158316458Y-61384384D01*
X158408492Y-61565009D01*
X158527639Y-61729004D01*
X158670995Y-61872360D01*
X158814768Y-61976815D01*
X158834994Y-61991510D01*
X158931933Y-62040903D01*
X158982729Y-62088878D01*
X158999524Y-62156699D01*
X158976986Y-62222834D01*
X158922271Y-62266285D01*
X158913715Y-62269397D01*
X157661267Y-62673509D01*
X157623190Y-62679500D01*
X155549590Y-62679500D01*
X155482551Y-62659815D01*
X155461909Y-62643181D01*
X154165499Y-61346771D01*
X154132014Y-61285448D01*
X154129180Y-61259090D01*
X154129180Y-56782550D01*
X154148865Y-56715511D01*
X154201669Y-56669756D01*
X154270827Y-56659812D01*
X154334383Y-56688837D01*
X154340861Y-56694869D01*
X154460024Y-56814032D01*
X154609346Y-56906134D01*
X154775883Y-56961319D01*
X154878671Y-56971820D01*
X155878688Y-56971819D01*
X155878696Y-56971818D01*
X155878699Y-56971818D01*
X155902576Y-56969378D01*
X155981477Y-56961319D01*
X156105568Y-56920198D01*
X156111346Y-56918441D01*
X156135017Y-56911874D01*
X156772278Y-56632268D01*
X156822100Y-56621820D01*
X157632286Y-56621820D01*
X157666248Y-56626561D01*
G37*
%TD.AperFunction*%
%TA.AperFunction,Conductor*%
G36*
X181631925Y-29071990D02*
G01*
X181967087Y-29089553D01*
X181979994Y-29090910D01*
X181999384Y-29093981D01*
X182308273Y-29142903D01*
X182320949Y-29145596D01*
X182642021Y-29231626D01*
X182654343Y-29235630D01*
X182876273Y-29320820D01*
X182964644Y-29354742D01*
X182976498Y-29360020D01*
X183272649Y-29510915D01*
X183283881Y-29517399D01*
X183562629Y-29698420D01*
X183573130Y-29706049D01*
X183831435Y-29915221D01*
X183841080Y-29923906D01*
X184076093Y-30158919D01*
X184084778Y-30168564D01*
X184293950Y-30426869D01*
X184301579Y-30437370D01*
X184482597Y-30716114D01*
X184489087Y-30727355D01*
X184639978Y-31023498D01*
X184645257Y-31035355D01*
X184764365Y-31345645D01*
X184768376Y-31357989D01*
X184854400Y-31679040D01*
X184857098Y-31691736D01*
X184909089Y-32020005D01*
X184910446Y-32032913D01*
X184928010Y-32368074D01*
X184928180Y-32374563D01*
X184928180Y-145368072D01*
X184928010Y-145374562D01*
X184910443Y-145709720D01*
X184909086Y-145722629D01*
X184857092Y-146050894D01*
X184854394Y-146063590D01*
X184768367Y-146384637D01*
X184764356Y-146396980D01*
X184645243Y-146707276D01*
X184639963Y-146719133D01*
X184489078Y-147015257D01*
X184482589Y-147026498D01*
X184301562Y-147305252D01*
X184293933Y-147315752D01*
X184084770Y-147574044D01*
X184076085Y-147583690D01*
X183841063Y-147818709D01*
X183831417Y-147827394D01*
X183573116Y-148036559D01*
X183562616Y-148044187D01*
X183283874Y-148225203D01*
X183272633Y-148231693D01*
X182976492Y-148382582D01*
X182964635Y-148387861D01*
X182654346Y-148506968D01*
X182642002Y-148510979D01*
X182320954Y-148597001D01*
X182308258Y-148599699D01*
X181979993Y-148651689D01*
X181967085Y-148653046D01*
X181684733Y-148667842D01*
X181631158Y-148670650D01*
X181624676Y-148670820D01*
X123631928Y-148670820D01*
X123625438Y-148670650D01*
X123290277Y-148653083D01*
X123277369Y-148651726D01*
X122949102Y-148599732D01*
X122936406Y-148597034D01*
X122615356Y-148511008D01*
X122603012Y-148506997D01*
X122292723Y-148387887D01*
X122280866Y-148382608D01*
X122211278Y-148347151D01*
X121984721Y-148231713D01*
X121973481Y-148225223D01*
X121694741Y-148044207D01*
X121684240Y-148036578D01*
X121425935Y-147827406D01*
X121416290Y-147818721D01*
X121181278Y-147583709D01*
X121172593Y-147574064D01*
X120963421Y-147315759D01*
X120955792Y-147305258D01*
X120774776Y-147026518D01*
X120768286Y-147015278D01*
X120617386Y-146719122D01*
X120612116Y-146707287D01*
X120493000Y-146396980D01*
X120488991Y-146384643D01*
X120488989Y-146384637D01*
X120402963Y-146063587D01*
X120400267Y-146050897D01*
X120395122Y-146018412D01*
X120348271Y-145722614D01*
X120346917Y-145709739D01*
X120330353Y-145393713D01*
X133369500Y-145393713D01*
X133369500Y-145606287D01*
X133402754Y-145816243D01*
X133434826Y-145914951D01*
X133468444Y-146018414D01*
X133564951Y-146207820D01*
X133689890Y-146379786D01*
X133840213Y-146530109D01*
X134012179Y-146655048D01*
X134012181Y-146655049D01*
X134012184Y-146655051D01*
X134201588Y-146751557D01*
X134403757Y-146817246D01*
X134613713Y-146850500D01*
X134613714Y-146850500D01*
X134826286Y-146850500D01*
X134826287Y-146850500D01*
X135036243Y-146817246D01*
X135238412Y-146751557D01*
X135427816Y-146655051D01*
X135476773Y-146619482D01*
X135599786Y-146530109D01*
X135599788Y-146530106D01*
X135599792Y-146530104D01*
X135750104Y-146379792D01*
X135750106Y-146379788D01*
X135750109Y-146379786D01*
X135875048Y-146207820D01*
X135875047Y-146207820D01*
X135875051Y-146207816D01*
X135971557Y-146018412D01*
X136037246Y-145816243D01*
X136070500Y-145606287D01*
X136070500Y-145393713D01*
X136037246Y-145183757D01*
X135971557Y-144981588D01*
X135875051Y-144792184D01*
X135875049Y-144792181D01*
X135875048Y-144792179D01*
X135750109Y-144620213D01*
X135599786Y-144469890D01*
X135427820Y-144344951D01*
X135238414Y-144248444D01*
X135238413Y-144248443D01*
X135238412Y-144248443D01*
X135036243Y-144182754D01*
X135036241Y-144182753D01*
X135036240Y-144182753D01*
X134874957Y-144157208D01*
X134826287Y-144149500D01*
X134613713Y-144149500D01*
X134565042Y-144157208D01*
X134403760Y-144182753D01*
X134201585Y-144248444D01*
X134012179Y-144344951D01*
X133840213Y-144469890D01*
X133689890Y-144620213D01*
X133564951Y-144792179D01*
X133468444Y-144981585D01*
X133402753Y-145183760D01*
X133379363Y-145331439D01*
X133369500Y-145393713D01*
X120330353Y-145393713D01*
X120329349Y-145374559D01*
X120329180Y-145368072D01*
X120329180Y-131787273D01*
X123234500Y-131787273D01*
X123234500Y-131800118D01*
X123234500Y-134400118D01*
X123234500Y-134440000D01*
X123234500Y-134492727D01*
X123261793Y-134594587D01*
X123314520Y-134685913D01*
X123389087Y-134760480D01*
X123480413Y-134813207D01*
X123582273Y-134840500D01*
X123582275Y-134840500D01*
X126687725Y-134840500D01*
X126687727Y-134840500D01*
X126789587Y-134813207D01*
X126880913Y-134760480D01*
X126955480Y-134685913D01*
X127008207Y-134594587D01*
X127035500Y-134492727D01*
X127035500Y-134440000D01*
X127035500Y-134400118D01*
X127035500Y-131800118D01*
X127035500Y-131787273D01*
X127008207Y-131685413D01*
X126955480Y-131594087D01*
X126880913Y-131519520D01*
X126789587Y-131466793D01*
X126687727Y-131439500D01*
X126674882Y-131439500D01*
X123674882Y-131439500D01*
X123635000Y-131439500D01*
X123582273Y-131439500D01*
X123480413Y-131466793D01*
X123480410Y-131466794D01*
X123389085Y-131519521D01*
X123314521Y-131594085D01*
X123261794Y-131685410D01*
X123261793Y-131685413D01*
X123234500Y-131787273D01*
X120329180Y-131787273D01*
X120329180Y-109567273D01*
X123184500Y-109567273D01*
X123184500Y-109580118D01*
X123184500Y-112180118D01*
X123184500Y-112220000D01*
X123184500Y-112272727D01*
X123211793Y-112374587D01*
X123264520Y-112465913D01*
X123339087Y-112540480D01*
X123430413Y-112593207D01*
X123532273Y-112620500D01*
X123532275Y-112620500D01*
X126637725Y-112620500D01*
X126637727Y-112620500D01*
X126739587Y-112593207D01*
X126830913Y-112540480D01*
X126905480Y-112465913D01*
X126958207Y-112374587D01*
X126985500Y-112272727D01*
X126985500Y-112220000D01*
X126985500Y-112180118D01*
X126985500Y-109580118D01*
X126985500Y-109567273D01*
X126958207Y-109465413D01*
X126905480Y-109374087D01*
X126830913Y-109299520D01*
X126739587Y-109246793D01*
X126637727Y-109219500D01*
X126624882Y-109219500D01*
X123624882Y-109219500D01*
X123585000Y-109219500D01*
X123532273Y-109219500D01*
X123430413Y-109246793D01*
X123430410Y-109246794D01*
X123339085Y-109299521D01*
X123264521Y-109374085D01*
X123211794Y-109465410D01*
X123211793Y-109465413D01*
X123184500Y-109567273D01*
X120329180Y-109567273D01*
X120329180Y-87347273D01*
X123134500Y-87347273D01*
X123134500Y-87360118D01*
X123134500Y-89960118D01*
X123134500Y-90000000D01*
X123134500Y-90052727D01*
X123161793Y-90154587D01*
X123214520Y-90245913D01*
X123289087Y-90320480D01*
X123380413Y-90373207D01*
X123482273Y-90400500D01*
X123482275Y-90400500D01*
X126587725Y-90400500D01*
X126587727Y-90400500D01*
X126689587Y-90373207D01*
X126780913Y-90320480D01*
X126855480Y-90245913D01*
X126908207Y-90154587D01*
X126935500Y-90052727D01*
X126935500Y-90000000D01*
X126935500Y-89960118D01*
X126935500Y-87360118D01*
X126935500Y-87347273D01*
X126908207Y-87245413D01*
X126855480Y-87154087D01*
X126780913Y-87079520D01*
X126689587Y-87026793D01*
X126587727Y-86999500D01*
X126574882Y-86999500D01*
X123574882Y-86999500D01*
X123535000Y-86999500D01*
X123482273Y-86999500D01*
X123380413Y-87026793D01*
X123380410Y-87026794D01*
X123289085Y-87079521D01*
X123214521Y-87154085D01*
X123161794Y-87245410D01*
X123161793Y-87245413D01*
X123134500Y-87347273D01*
X120329180Y-87347273D01*
X120329180Y-65127273D01*
X123084500Y-65127273D01*
X123084500Y-65140118D01*
X123084500Y-67740118D01*
X123084500Y-67780000D01*
X123084500Y-67832727D01*
X123111793Y-67934587D01*
X123164520Y-68025913D01*
X123239087Y-68100480D01*
X123330413Y-68153207D01*
X123432273Y-68180500D01*
X123432275Y-68180500D01*
X126537725Y-68180500D01*
X126537727Y-68180500D01*
X126639587Y-68153207D01*
X126730913Y-68100480D01*
X126805480Y-68025913D01*
X126858207Y-67934587D01*
X126885500Y-67832727D01*
X126885500Y-67780000D01*
X126885500Y-67740118D01*
X126885500Y-65140118D01*
X126885500Y-65127273D01*
X126858207Y-65025413D01*
X126805480Y-64934087D01*
X126730913Y-64859520D01*
X126660893Y-64819094D01*
X126639589Y-64806794D01*
X126639588Y-64806793D01*
X126639587Y-64806793D01*
X126537727Y-64779500D01*
X126524882Y-64779500D01*
X123524882Y-64779500D01*
X123485000Y-64779500D01*
X123432273Y-64779500D01*
X123330413Y-64806793D01*
X123330410Y-64806794D01*
X123239085Y-64859521D01*
X123164521Y-64934085D01*
X123111794Y-65025410D01*
X123111793Y-65025413D01*
X123084500Y-65127273D01*
X120329180Y-65127273D01*
X120329180Y-58248640D01*
X142982100Y-58248640D01*
X142982100Y-58451359D01*
X143013812Y-58651580D01*
X143076458Y-58844384D01*
X143168492Y-59025009D01*
X143287639Y-59189004D01*
X143430995Y-59332360D01*
X143584456Y-59443854D01*
X143594994Y-59451510D01*
X143680194Y-59494921D01*
X143708834Y-59509515D01*
X143759630Y-59557490D01*
X143776425Y-59625311D01*
X143753887Y-59691446D01*
X143708834Y-59730485D01*
X143594990Y-59788492D01*
X143430995Y-59907639D01*
X143287639Y-60050995D01*
X143168492Y-60214990D01*
X143076458Y-60395615D01*
X143013812Y-60588419D01*
X142982100Y-60788640D01*
X142982100Y-60991360D01*
X143013813Y-61191584D01*
X143064236Y-61346771D01*
X143076458Y-61384384D01*
X143168492Y-61565009D01*
X143287639Y-61729004D01*
X143430995Y-61872360D01*
X143574768Y-61976815D01*
X143594994Y-61991510D01*
X143680194Y-62034921D01*
X143708834Y-62049515D01*
X143759630Y-62097490D01*
X143776425Y-62165311D01*
X143753887Y-62231446D01*
X143708834Y-62270485D01*
X143594990Y-62328492D01*
X143430995Y-62447639D01*
X143287639Y-62590995D01*
X143168492Y-62754990D01*
X143076458Y-62935615D01*
X143013812Y-63128419D01*
X142982100Y-63328640D01*
X142982100Y-63531360D01*
X143013813Y-63731584D01*
X143076457Y-63924382D01*
X143163434Y-64095084D01*
X143168492Y-64105009D01*
X143287639Y-64269004D01*
X143430995Y-64412360D01*
X143584456Y-64523854D01*
X143594994Y-64531510D01*
X143680194Y-64574921D01*
X143708834Y-64589515D01*
X143759630Y-64637490D01*
X143776425Y-64705311D01*
X143753887Y-64771446D01*
X143708834Y-64810485D01*
X143594990Y-64868492D01*
X143430995Y-64987639D01*
X143287639Y-65130995D01*
X143168492Y-65294990D01*
X143076458Y-65475615D01*
X143013812Y-65668419D01*
X142982100Y-65868640D01*
X142982100Y-66071359D01*
X143013812Y-66271580D01*
X143076458Y-66464384D01*
X143168492Y-66645009D01*
X143287639Y-66809004D01*
X143430995Y-66952360D01*
X143584456Y-67063854D01*
X143594994Y-67071510D01*
X143680194Y-67114921D01*
X143708834Y-67129515D01*
X143759630Y-67177490D01*
X143776425Y-67245311D01*
X143753887Y-67311446D01*
X143708834Y-67350485D01*
X143594990Y-67408492D01*
X143430995Y-67527639D01*
X143287639Y-67670995D01*
X143168492Y-67834990D01*
X143076458Y-68015615D01*
X143013812Y-68208419D01*
X142982100Y-68408640D01*
X142982100Y-68611359D01*
X143013812Y-68811580D01*
X143076458Y-69004384D01*
X143168492Y-69185009D01*
X143287639Y-69349004D01*
X143430995Y-69492360D01*
X143584456Y-69603854D01*
X143594994Y-69611510D01*
X143680194Y-69654921D01*
X143708834Y-69669515D01*
X143759630Y-69717490D01*
X143776425Y-69785311D01*
X143753887Y-69851446D01*
X143708834Y-69890485D01*
X143594990Y-69948492D01*
X143430995Y-70067639D01*
X143287639Y-70210995D01*
X143168492Y-70374990D01*
X143076458Y-70555615D01*
X143013812Y-70748419D01*
X142982100Y-70948640D01*
X142982100Y-71151359D01*
X143013812Y-71351580D01*
X143076458Y-71544384D01*
X143168492Y-71725009D01*
X143287639Y-71889004D01*
X143430995Y-72032360D01*
X143584456Y-72143854D01*
X143594994Y-72151510D01*
X143680194Y-72194921D01*
X143708834Y-72209515D01*
X143759630Y-72257490D01*
X143776425Y-72325311D01*
X143753887Y-72391446D01*
X143708834Y-72430485D01*
X143594990Y-72488492D01*
X143430995Y-72607639D01*
X143287639Y-72750995D01*
X143168492Y-72914990D01*
X143076458Y-73095615D01*
X143013812Y-73288419D01*
X142982100Y-73488640D01*
X142982100Y-73691359D01*
X143013812Y-73891580D01*
X143076458Y-74084384D01*
X143168492Y-74265009D01*
X143287639Y-74429004D01*
X143430995Y-74572360D01*
X143584456Y-74683854D01*
X143594994Y-74691510D01*
X143775618Y-74783543D01*
X143968416Y-74846187D01*
X144168640Y-74877900D01*
X144168641Y-74877900D01*
X144371359Y-74877900D01*
X144371360Y-74877900D01*
X144571584Y-74846187D01*
X144764382Y-74783543D01*
X144945006Y-74691510D01*
X145037085Y-74624610D01*
X145109004Y-74572360D01*
X145109006Y-74572357D01*
X145109010Y-74572355D01*
X145252355Y-74429010D01*
X145252357Y-74429006D01*
X145252360Y-74429004D01*
X145304610Y-74357085D01*
X145371510Y-74265006D01*
X145463543Y-74084382D01*
X145526187Y-73891584D01*
X145557900Y-73691360D01*
X145557900Y-73488640D01*
X145526187Y-73288416D01*
X145463543Y-73095618D01*
X145371510Y-72914994D01*
X145363854Y-72904456D01*
X145252360Y-72750995D01*
X145109004Y-72607639D01*
X144945009Y-72488492D01*
X144945008Y-72488491D01*
X144945006Y-72488490D01*
X144831164Y-72430484D01*
X144780369Y-72382510D01*
X144763574Y-72314689D01*
X144786111Y-72248554D01*
X144831165Y-72209515D01*
X144945006Y-72151510D01*
X145037085Y-72084610D01*
X145109004Y-72032360D01*
X145109006Y-72032357D01*
X145109010Y-72032355D01*
X145252355Y-71889010D01*
X145252357Y-71889006D01*
X145252360Y-71889004D01*
X145304610Y-71817085D01*
X145371510Y-71725006D01*
X145463543Y-71544382D01*
X145526187Y-71351584D01*
X145557900Y-71151360D01*
X145557900Y-70948640D01*
X145526187Y-70748416D01*
X145463543Y-70555618D01*
X145371510Y-70374994D01*
X145363854Y-70364456D01*
X145252360Y-70210995D01*
X145109004Y-70067639D01*
X144945009Y-69948492D01*
X144945008Y-69948491D01*
X144945006Y-69948490D01*
X144831164Y-69890484D01*
X144780369Y-69842510D01*
X144763574Y-69774689D01*
X144786111Y-69708554D01*
X144831165Y-69669515D01*
X144945006Y-69611510D01*
X145037085Y-69544610D01*
X145109004Y-69492360D01*
X145109006Y-69492357D01*
X145109010Y-69492355D01*
X145252355Y-69349010D01*
X145252357Y-69349006D01*
X145252360Y-69349004D01*
X145304610Y-69277085D01*
X145371510Y-69185006D01*
X145463543Y-69004382D01*
X145526187Y-68811584D01*
X145557900Y-68611360D01*
X145557900Y-68408640D01*
X145526187Y-68208416D01*
X145463543Y-68015618D01*
X145371510Y-67834994D01*
X145331192Y-67779500D01*
X145252360Y-67670995D01*
X145109004Y-67527639D01*
X144945009Y-67408492D01*
X144945008Y-67408491D01*
X144945006Y-67408490D01*
X144831164Y-67350484D01*
X144780369Y-67302510D01*
X144763574Y-67234689D01*
X144786111Y-67168554D01*
X144831165Y-67129515D01*
X144945006Y-67071510D01*
X145037085Y-67004610D01*
X145109004Y-66952360D01*
X145109006Y-66952357D01*
X145109010Y-66952355D01*
X145252355Y-66809010D01*
X145252357Y-66809006D01*
X145252360Y-66809004D01*
X145304610Y-66737085D01*
X145371510Y-66645006D01*
X145463543Y-66464382D01*
X145526187Y-66271584D01*
X145557900Y-66071360D01*
X145557900Y-65868640D01*
X145526187Y-65668416D01*
X145463543Y-65475618D01*
X145371510Y-65294994D01*
X145296704Y-65192031D01*
X145252360Y-65130995D01*
X145109004Y-64987639D01*
X144945009Y-64868492D01*
X144945008Y-64868491D01*
X144945006Y-64868490D01*
X144831164Y-64810484D01*
X144780369Y-64762510D01*
X144763574Y-64694689D01*
X144786111Y-64628554D01*
X144831165Y-64589515D01*
X144945006Y-64531510D01*
X145037085Y-64464610D01*
X145109004Y-64412360D01*
X145109006Y-64412357D01*
X145109010Y-64412355D01*
X145252355Y-64269010D01*
X145252357Y-64269006D01*
X145252360Y-64269004D01*
X145316661Y-64180500D01*
X145371510Y-64105006D01*
X145463543Y-63924382D01*
X145526187Y-63731584D01*
X145557900Y-63531360D01*
X145557900Y-63328640D01*
X145526187Y-63128416D01*
X145463543Y-62935618D01*
X145371510Y-62754994D01*
X145316661Y-62679500D01*
X145252360Y-62590995D01*
X145109004Y-62447639D01*
X144945009Y-62328492D01*
X144945008Y-62328491D01*
X144945006Y-62328490D01*
X144831164Y-62270484D01*
X144780369Y-62222510D01*
X144763574Y-62154689D01*
X144786111Y-62088554D01*
X144831165Y-62049515D01*
X144848067Y-62040903D01*
X144945006Y-61991510D01*
X145037085Y-61924610D01*
X145109004Y-61872360D01*
X145109006Y-61872357D01*
X145109010Y-61872355D01*
X145252355Y-61729010D01*
X145252357Y-61729006D01*
X145252360Y-61729004D01*
X145304610Y-61657085D01*
X145371510Y-61565006D01*
X145463543Y-61384382D01*
X145526187Y-61191584D01*
X145557900Y-60991360D01*
X145557900Y-60788640D01*
X145526187Y-60588416D01*
X145463543Y-60395618D01*
X145371510Y-60214994D01*
X145363854Y-60204456D01*
X145252360Y-60050995D01*
X145109004Y-59907639D01*
X144945009Y-59788492D01*
X144945008Y-59788491D01*
X144945006Y-59788490D01*
X144831164Y-59730484D01*
X144780369Y-59682510D01*
X144763574Y-59614689D01*
X144786111Y-59548554D01*
X144831165Y-59509515D01*
X144945006Y-59451510D01*
X145037085Y-59384610D01*
X145109004Y-59332360D01*
X145109006Y-59332357D01*
X145109010Y-59332355D01*
X145252355Y-59189010D01*
X145252357Y-59189006D01*
X145252360Y-59189004D01*
X145304610Y-59117085D01*
X145371510Y-59025006D01*
X145463543Y-58844382D01*
X145526187Y-58651584D01*
X145557900Y-58451360D01*
X145557900Y-58248640D01*
X145526187Y-58048416D01*
X145463543Y-57855618D01*
X145371510Y-57674994D01*
X145363854Y-57664456D01*
X145252360Y-57510995D01*
X145109004Y-57367639D01*
X144945009Y-57248492D01*
X144945008Y-57248491D01*
X144945006Y-57248490D01*
X144764382Y-57156457D01*
X144571584Y-57093813D01*
X144571582Y-57093812D01*
X144571580Y-57093812D01*
X144402088Y-57066967D01*
X144371360Y-57062100D01*
X144168640Y-57062100D01*
X144137912Y-57066967D01*
X143968419Y-57093812D01*
X143775615Y-57156458D01*
X143594990Y-57248492D01*
X143430995Y-57367639D01*
X143287639Y-57510995D01*
X143168492Y-57674990D01*
X143076458Y-57855615D01*
X143013812Y-58048419D01*
X142982100Y-58248640D01*
X120329180Y-58248640D01*
X120329180Y-42907273D01*
X123034500Y-42907273D01*
X123034500Y-42920118D01*
X123034500Y-45520118D01*
X123034500Y-45560000D01*
X123034500Y-45612727D01*
X123061793Y-45714587D01*
X123114520Y-45805913D01*
X123189087Y-45880480D01*
X123280413Y-45933207D01*
X123382273Y-45960500D01*
X123382275Y-45960500D01*
X126487725Y-45960500D01*
X126487727Y-45960500D01*
X126589587Y-45933207D01*
X126680913Y-45880480D01*
X126755480Y-45805913D01*
X126808207Y-45714587D01*
X126835500Y-45612727D01*
X126835500Y-45560000D01*
X126835500Y-45520118D01*
X126835500Y-42920118D01*
X126835500Y-42907273D01*
X126808207Y-42805413D01*
X126755480Y-42714087D01*
X126680913Y-42639520D01*
X126589587Y-42586793D01*
X126487727Y-42559500D01*
X126474882Y-42559500D01*
X123474882Y-42559500D01*
X123435000Y-42559500D01*
X123382273Y-42559500D01*
X123280413Y-42586793D01*
X123280410Y-42586794D01*
X123189085Y-42639521D01*
X123114521Y-42714085D01*
X123061794Y-42805410D01*
X123061793Y-42805413D01*
X123034500Y-42907273D01*
X120329180Y-42907273D01*
X120329180Y-42042473D01*
X127078180Y-42042473D01*
X127078180Y-42200166D01*
X127108941Y-42354809D01*
X127108944Y-42354821D01*
X127169282Y-42500492D01*
X127169289Y-42500505D01*
X127256890Y-42631608D01*
X127256893Y-42631612D01*
X127368387Y-42743106D01*
X127368391Y-42743109D01*
X127499494Y-42830710D01*
X127499507Y-42830717D01*
X127645178Y-42891055D01*
X127645183Y-42891057D01*
X127783369Y-42918544D01*
X127799833Y-42921819D01*
X127799836Y-42921820D01*
X127799838Y-42921820D01*
X127957524Y-42921820D01*
X127957525Y-42921819D01*
X128112177Y-42891057D01*
X128257859Y-42830714D01*
X128388969Y-42743109D01*
X128473940Y-42658137D01*
X128535261Y-42624654D01*
X128561620Y-42621820D01*
X134516450Y-42621820D01*
X134583489Y-42641505D01*
X134604131Y-42658139D01*
X140718946Y-48772954D01*
X140748222Y-48792514D01*
X140792139Y-48821858D01*
X140841865Y-48855084D01*
X140841867Y-48855085D01*
X140841871Y-48855087D01*
X140905909Y-48881612D01*
X140978447Y-48911658D01*
X140978451Y-48911658D01*
X140978452Y-48911659D01*
X141123439Y-48940500D01*
X141123442Y-48940500D01*
X141123443Y-48940500D01*
X141271277Y-48940500D01*
X142383195Y-48940500D01*
X142421270Y-48946490D01*
X142837264Y-49080714D01*
X143673716Y-49350601D01*
X143731473Y-49389920D01*
X143758803Y-49454223D01*
X143747029Y-49523093D01*
X143699891Y-49574666D01*
X143691936Y-49579094D01*
X143594992Y-49628490D01*
X143430995Y-49747639D01*
X143287639Y-49890995D01*
X143168492Y-50054990D01*
X143076458Y-50235615D01*
X143013812Y-50428419D01*
X142982100Y-50628640D01*
X142982100Y-50831359D01*
X143013812Y-51031580D01*
X143076458Y-51224384D01*
X143168492Y-51405009D01*
X143287639Y-51569004D01*
X143430995Y-51712360D01*
X143584456Y-51823854D01*
X143594994Y-51831510D01*
X143680194Y-51874921D01*
X143708834Y-51889515D01*
X143759630Y-51937490D01*
X143776425Y-52005311D01*
X143753887Y-52071446D01*
X143708834Y-52110485D01*
X143594990Y-52168492D01*
X143430995Y-52287639D01*
X143287639Y-52430995D01*
X143168492Y-52594990D01*
X143076458Y-52775615D01*
X143013812Y-52968419D01*
X142982100Y-53168640D01*
X142982100Y-53371359D01*
X143013812Y-53571580D01*
X143076458Y-53764384D01*
X143168492Y-53945009D01*
X143287639Y-54109004D01*
X143430995Y-54252360D01*
X143584456Y-54363854D01*
X143594994Y-54371510D01*
X143775618Y-54463543D01*
X143968416Y-54526187D01*
X144168640Y-54557900D01*
X144168641Y-54557900D01*
X144371359Y-54557900D01*
X144371360Y-54557900D01*
X144571584Y-54526187D01*
X144764382Y-54463543D01*
X144945006Y-54371510D01*
X145037085Y-54304610D01*
X145109004Y-54252360D01*
X145109006Y-54252357D01*
X145109010Y-54252355D01*
X145252355Y-54109010D01*
X145252357Y-54109006D01*
X145252360Y-54109004D01*
X145304610Y-54037085D01*
X145371510Y-53945006D01*
X145463543Y-53764382D01*
X145526187Y-53571584D01*
X145557900Y-53371360D01*
X145557900Y-53168640D01*
X145526187Y-52968416D01*
X145463543Y-52775618D01*
X145371510Y-52594994D01*
X145363854Y-52584456D01*
X145252360Y-52430995D01*
X145109004Y-52287639D01*
X144945009Y-52168492D01*
X144945008Y-52168491D01*
X144945006Y-52168490D01*
X144831164Y-52110484D01*
X144780369Y-52062510D01*
X144763574Y-51994689D01*
X144786111Y-51928554D01*
X144831165Y-51889515D01*
X144945006Y-51831510D01*
X145037085Y-51764610D01*
X145109004Y-51712360D01*
X145109006Y-51712357D01*
X145109010Y-51712355D01*
X145252355Y-51569010D01*
X145252357Y-51569006D01*
X145252360Y-51569004D01*
X145304610Y-51497085D01*
X145371510Y-51405006D01*
X145463543Y-51224382D01*
X145526187Y-51031584D01*
X145557900Y-50831360D01*
X145557900Y-50628640D01*
X145526187Y-50428416D01*
X145463543Y-50235618D01*
X145371510Y-50054994D01*
X145363854Y-50044456D01*
X145252360Y-49890995D01*
X145109004Y-49747639D01*
X144945009Y-49628492D01*
X144945008Y-49628491D01*
X144945006Y-49628490D01*
X144831164Y-49570484D01*
X144780369Y-49522510D01*
X144763574Y-49454689D01*
X144786111Y-49388554D01*
X144831165Y-49349515D01*
X144945006Y-49291510D01*
X145037085Y-49224610D01*
X145109004Y-49172360D01*
X145109006Y-49172357D01*
X145109010Y-49172355D01*
X145252355Y-49029010D01*
X145252357Y-49029006D01*
X145252360Y-49029004D01*
X145323909Y-48930523D01*
X145371510Y-48865006D01*
X145463543Y-48684382D01*
X145526187Y-48491584D01*
X145557900Y-48291360D01*
X145557900Y-48088640D01*
X145526187Y-47888416D01*
X145463543Y-47695618D01*
X145371510Y-47514994D01*
X145316661Y-47439500D01*
X145252360Y-47350995D01*
X145109004Y-47207639D01*
X144945007Y-47088490D01*
X144848062Y-47039093D01*
X144797267Y-46991118D01*
X144780472Y-46923297D01*
X144803010Y-46857163D01*
X144857726Y-46813712D01*
X144866256Y-46810609D01*
X146118729Y-46406490D01*
X146156805Y-46400500D01*
X147545130Y-46400500D01*
X147612169Y-46420185D01*
X147632811Y-46436819D01*
X149091861Y-47895868D01*
X149125346Y-47957191D01*
X149128180Y-47983549D01*
X149128180Y-143556986D01*
X149122911Y-143592747D01*
X148779061Y-144734360D01*
X148740879Y-144792874D01*
X148677123Y-144821457D01*
X148608035Y-144811032D01*
X148560012Y-144771485D01*
X148450104Y-144620208D01*
X148299792Y-144469896D01*
X148299786Y-144469890D01*
X148127820Y-144344951D01*
X147938414Y-144248444D01*
X147938413Y-144248443D01*
X147938412Y-144248443D01*
X147736243Y-144182754D01*
X147736241Y-144182753D01*
X147736240Y-144182753D01*
X147574957Y-144157208D01*
X147526287Y-144149500D01*
X147313713Y-144149500D01*
X147265042Y-144157208D01*
X147103760Y-144182753D01*
X146901585Y-144248444D01*
X146712179Y-144344951D01*
X146540213Y-144469890D01*
X146389890Y-144620213D01*
X146264949Y-144792182D01*
X146260484Y-144800946D01*
X146212509Y-144851742D01*
X146144688Y-144868536D01*
X146078553Y-144845998D01*
X146039516Y-144800946D01*
X146035050Y-144792182D01*
X145910109Y-144620213D01*
X145759786Y-144469890D01*
X145587820Y-144344951D01*
X145398414Y-144248444D01*
X145398413Y-144248443D01*
X145398412Y-144248443D01*
X145196243Y-144182754D01*
X145196241Y-144182753D01*
X145196240Y-144182753D01*
X145034957Y-144157208D01*
X144986287Y-144149500D01*
X144773713Y-144149500D01*
X144725042Y-144157208D01*
X144563760Y-144182753D01*
X144361585Y-144248444D01*
X144172179Y-144344951D01*
X144000213Y-144469890D01*
X143849890Y-144620213D01*
X143724949Y-144792182D01*
X143720484Y-144800946D01*
X143672509Y-144851742D01*
X143604688Y-144868536D01*
X143538553Y-144845998D01*
X143499516Y-144800946D01*
X143495050Y-144792182D01*
X143370109Y-144620213D01*
X143219786Y-144469890D01*
X143047820Y-144344951D01*
X142858414Y-144248444D01*
X142858413Y-144248443D01*
X142858412Y-144248443D01*
X142656243Y-144182754D01*
X142656241Y-144182753D01*
X142656240Y-144182753D01*
X142494957Y-144157208D01*
X142446287Y-144149500D01*
X142233713Y-144149500D01*
X142185042Y-144157208D01*
X142023760Y-144182753D01*
X141821585Y-144248444D01*
X141632179Y-144344951D01*
X141460213Y-144469890D01*
X141309890Y-144620213D01*
X141184949Y-144792182D01*
X141180484Y-144800946D01*
X141132509Y-144851742D01*
X141064688Y-144868536D01*
X140998553Y-144845998D01*
X140959516Y-144800946D01*
X140955050Y-144792182D01*
X140830109Y-144620213D01*
X140679786Y-144469890D01*
X140507820Y-144344951D01*
X140318414Y-144248444D01*
X140318413Y-144248443D01*
X140318412Y-144248443D01*
X140116243Y-144182754D01*
X140116241Y-144182753D01*
X140116240Y-144182753D01*
X139954957Y-144157208D01*
X139906287Y-144149500D01*
X139693713Y-144149500D01*
X139645042Y-144157208D01*
X139483760Y-144182753D01*
X139281585Y-144248444D01*
X139092179Y-144344951D01*
X138920213Y-144469890D01*
X138769890Y-144620213D01*
X138644951Y-144792179D01*
X138548444Y-144981585D01*
X138482753Y-145183760D01*
X138459363Y-145331439D01*
X138449500Y-145393713D01*
X138449500Y-145606287D01*
X138482754Y-145816243D01*
X138514826Y-145914951D01*
X138548444Y-146018414D01*
X138644951Y-146207820D01*
X138769890Y-146379786D01*
X138920213Y-146530109D01*
X139092179Y-146655048D01*
X139092181Y-146655049D01*
X139092184Y-146655051D01*
X139281588Y-146751557D01*
X139483757Y-146817246D01*
X139693713Y-146850500D01*
X139693714Y-146850500D01*
X139906286Y-146850500D01*
X139906287Y-146850500D01*
X140116243Y-146817246D01*
X140318412Y-146751557D01*
X140507816Y-146655051D01*
X140556773Y-146619482D01*
X140679786Y-146530109D01*
X140679788Y-146530106D01*
X140679792Y-146530104D01*
X140830104Y-146379792D01*
X140830106Y-146379788D01*
X140830109Y-146379786D01*
X140955048Y-146207820D01*
X140955047Y-146207820D01*
X140955051Y-146207816D01*
X140959514Y-146199054D01*
X141007488Y-146148259D01*
X141075308Y-146131463D01*
X141141444Y-146153999D01*
X141180486Y-146199056D01*
X141184951Y-146207820D01*
X141309890Y-146379786D01*
X141460213Y-146530109D01*
X141632179Y-146655048D01*
X141632181Y-146655049D01*
X141632184Y-146655051D01*
X141821588Y-146751557D01*
X142023757Y-146817246D01*
X142233713Y-146850500D01*
X142233714Y-146850500D01*
X142446286Y-146850500D01*
X142446287Y-146850500D01*
X142656243Y-146817246D01*
X142858412Y-146751557D01*
X143047816Y-146655051D01*
X143096773Y-146619482D01*
X143219786Y-146530109D01*
X143219788Y-146530106D01*
X143219792Y-146530104D01*
X143370104Y-146379792D01*
X143370106Y-146379788D01*
X143370109Y-146379786D01*
X143495048Y-146207820D01*
X143495047Y-146207820D01*
X143495051Y-146207816D01*
X143499514Y-146199054D01*
X143547488Y-146148259D01*
X143615308Y-146131463D01*
X143681444Y-146153999D01*
X143720486Y-146199056D01*
X143724951Y-146207820D01*
X143849890Y-146379786D01*
X144000213Y-146530109D01*
X144172179Y-146655048D01*
X144172181Y-146655049D01*
X144172184Y-146655051D01*
X144361588Y-146751557D01*
X144563757Y-146817246D01*
X144773713Y-146850500D01*
X144773714Y-146850500D01*
X144986286Y-146850500D01*
X144986287Y-146850500D01*
X145196243Y-146817246D01*
X145398412Y-146751557D01*
X145587816Y-146655051D01*
X145636773Y-146619482D01*
X145759786Y-146530109D01*
X145759788Y-146530106D01*
X145759792Y-146530104D01*
X145910104Y-146379792D01*
X145910106Y-146379788D01*
X145910109Y-146379786D01*
X146035048Y-146207820D01*
X146035047Y-146207820D01*
X146035051Y-146207816D01*
X146039514Y-146199054D01*
X146087488Y-146148259D01*
X146155308Y-146131463D01*
X146221444Y-146153999D01*
X146260486Y-146199056D01*
X146264951Y-146207820D01*
X146389890Y-146379786D01*
X146540213Y-146530109D01*
X146712179Y-146655048D01*
X146712181Y-146655049D01*
X146712184Y-146655051D01*
X146901588Y-146751557D01*
X147103757Y-146817246D01*
X147313713Y-146850500D01*
X147313714Y-146850500D01*
X147526286Y-146850500D01*
X147526287Y-146850500D01*
X147736243Y-146817246D01*
X147938412Y-146751557D01*
X148127816Y-146655051D01*
X148176773Y-146619482D01*
X148299786Y-146530109D01*
X148299788Y-146530106D01*
X148299792Y-146530104D01*
X148450104Y-146379792D01*
X148450106Y-146379788D01*
X148450109Y-146379786D01*
X148575048Y-146207820D01*
X148575047Y-146207820D01*
X148575051Y-146207816D01*
X148579514Y-146199054D01*
X148627488Y-146148259D01*
X148695308Y-146131463D01*
X148761444Y-146153999D01*
X148800486Y-146199056D01*
X148804951Y-146207820D01*
X148929890Y-146379786D01*
X149080213Y-146530109D01*
X149252179Y-146655048D01*
X149252181Y-146655049D01*
X149252184Y-146655051D01*
X149441588Y-146751557D01*
X149643757Y-146817246D01*
X149853713Y-146850500D01*
X149853714Y-146850500D01*
X150066286Y-146850500D01*
X150066287Y-146850500D01*
X150276243Y-146817246D01*
X150478412Y-146751557D01*
X150667816Y-146655051D01*
X150716773Y-146619482D01*
X150839786Y-146530109D01*
X150839788Y-146530106D01*
X150839792Y-146530104D01*
X150990104Y-146379792D01*
X150990106Y-146379788D01*
X150990109Y-146379786D01*
X151115048Y-146207820D01*
X151115047Y-146207820D01*
X151115051Y-146207816D01*
X151119514Y-146199054D01*
X151167488Y-146148259D01*
X151235308Y-146131463D01*
X151301444Y-146153999D01*
X151340486Y-146199056D01*
X151344951Y-146207820D01*
X151469890Y-146379786D01*
X151620213Y-146530109D01*
X151792179Y-146655048D01*
X151792181Y-146655049D01*
X151792184Y-146655051D01*
X151981588Y-146751557D01*
X152183757Y-146817246D01*
X152393713Y-146850500D01*
X152393714Y-146850500D01*
X152606286Y-146850500D01*
X152606287Y-146850500D01*
X152816243Y-146817246D01*
X153018412Y-146751557D01*
X153207816Y-146655051D01*
X153256773Y-146619482D01*
X153379786Y-146530109D01*
X153379788Y-146530106D01*
X153379792Y-146530104D01*
X153530104Y-146379792D01*
X153530106Y-146379788D01*
X153530109Y-146379786D01*
X153655048Y-146207820D01*
X153655047Y-146207820D01*
X153655051Y-146207816D01*
X153659514Y-146199054D01*
X153707488Y-146148259D01*
X153775308Y-146131463D01*
X153841444Y-146153999D01*
X153880486Y-146199056D01*
X153884951Y-146207820D01*
X154009890Y-146379786D01*
X154160213Y-146530109D01*
X154332179Y-146655048D01*
X154332181Y-146655049D01*
X154332184Y-146655051D01*
X154521588Y-146751557D01*
X154723757Y-146817246D01*
X154933713Y-146850500D01*
X154933714Y-146850500D01*
X155146286Y-146850500D01*
X155146287Y-146850500D01*
X155356243Y-146817246D01*
X155558412Y-146751557D01*
X155747816Y-146655051D01*
X155796773Y-146619482D01*
X155919786Y-146530109D01*
X155919788Y-146530106D01*
X155919792Y-146530104D01*
X156070104Y-146379792D01*
X156070106Y-146379788D01*
X156070109Y-146379786D01*
X156195048Y-146207820D01*
X156195047Y-146207820D01*
X156195051Y-146207816D01*
X156199514Y-146199054D01*
X156247488Y-146148259D01*
X156315308Y-146131463D01*
X156381444Y-146153999D01*
X156420486Y-146199056D01*
X156424951Y-146207820D01*
X156549890Y-146379786D01*
X156700213Y-146530109D01*
X156872179Y-146655048D01*
X156872181Y-146655049D01*
X156872184Y-146655051D01*
X157061588Y-146751557D01*
X157263757Y-146817246D01*
X157473713Y-146850500D01*
X157473714Y-146850500D01*
X157686286Y-146850500D01*
X157686287Y-146850500D01*
X157896243Y-146817246D01*
X158098412Y-146751557D01*
X158287816Y-146655051D01*
X158336773Y-146619482D01*
X158459786Y-146530109D01*
X158459788Y-146530106D01*
X158459792Y-146530104D01*
X158610104Y-146379792D01*
X158610106Y-146379788D01*
X158610109Y-146379786D01*
X158735048Y-146207820D01*
X158735047Y-146207820D01*
X158735051Y-146207816D01*
X158739514Y-146199054D01*
X158787488Y-146148259D01*
X158855308Y-146131463D01*
X158921444Y-146153999D01*
X158960486Y-146199056D01*
X158964951Y-146207820D01*
X159089890Y-146379786D01*
X159240213Y-146530109D01*
X159412179Y-146655048D01*
X159412181Y-146655049D01*
X159412184Y-146655051D01*
X159601588Y-146751557D01*
X159803757Y-146817246D01*
X160013713Y-146850500D01*
X160013714Y-146850500D01*
X160226286Y-146850500D01*
X160226287Y-146850500D01*
X160436243Y-146817246D01*
X160638412Y-146751557D01*
X160827816Y-146655051D01*
X160876773Y-146619482D01*
X160999786Y-146530109D01*
X160999788Y-146530106D01*
X160999792Y-146530104D01*
X161150104Y-146379792D01*
X161150106Y-146379788D01*
X161150109Y-146379786D01*
X161275048Y-146207820D01*
X161275047Y-146207820D01*
X161275051Y-146207816D01*
X161279514Y-146199054D01*
X161327488Y-146148259D01*
X161395308Y-146131463D01*
X161461444Y-146153999D01*
X161500486Y-146199056D01*
X161504951Y-146207820D01*
X161629890Y-146379786D01*
X161780213Y-146530109D01*
X161952179Y-146655048D01*
X161952181Y-146655049D01*
X161952184Y-146655051D01*
X162141588Y-146751557D01*
X162343757Y-146817246D01*
X162553713Y-146850500D01*
X162553714Y-146850500D01*
X162766286Y-146850500D01*
X162766287Y-146850500D01*
X162976243Y-146817246D01*
X163178412Y-146751557D01*
X163367816Y-146655051D01*
X163416773Y-146619482D01*
X163539786Y-146530109D01*
X163539788Y-146530106D01*
X163539792Y-146530104D01*
X163690104Y-146379792D01*
X163690106Y-146379788D01*
X163690109Y-146379786D01*
X163815048Y-146207820D01*
X163815047Y-146207820D01*
X163815051Y-146207816D01*
X163819514Y-146199054D01*
X163867488Y-146148259D01*
X163935308Y-146131463D01*
X164001444Y-146153999D01*
X164040486Y-146199056D01*
X164044951Y-146207820D01*
X164169890Y-146379786D01*
X164320213Y-146530109D01*
X164492179Y-146655048D01*
X164492181Y-146655049D01*
X164492184Y-146655051D01*
X164681588Y-146751557D01*
X164883757Y-146817246D01*
X165093713Y-146850500D01*
X165093714Y-146850500D01*
X165306286Y-146850500D01*
X165306287Y-146850500D01*
X165516243Y-146817246D01*
X165718412Y-146751557D01*
X165907816Y-146655051D01*
X165956773Y-146619482D01*
X166079786Y-146530109D01*
X166079788Y-146530106D01*
X166079792Y-146530104D01*
X166230104Y-146379792D01*
X166230106Y-146379788D01*
X166230109Y-146379786D01*
X166355048Y-146207820D01*
X166355047Y-146207820D01*
X166355051Y-146207816D01*
X166359514Y-146199054D01*
X166407488Y-146148259D01*
X166475308Y-146131463D01*
X166541444Y-146153999D01*
X166580486Y-146199056D01*
X166584951Y-146207820D01*
X166709890Y-146379786D01*
X166860213Y-146530109D01*
X167032179Y-146655048D01*
X167032181Y-146655049D01*
X167032184Y-146655051D01*
X167221588Y-146751557D01*
X167423757Y-146817246D01*
X167633713Y-146850500D01*
X167633714Y-146850500D01*
X167846286Y-146850500D01*
X167846287Y-146850500D01*
X168056243Y-146817246D01*
X168258412Y-146751557D01*
X168447816Y-146655051D01*
X168496773Y-146619482D01*
X168619786Y-146530109D01*
X168619788Y-146530106D01*
X168619792Y-146530104D01*
X168770104Y-146379792D01*
X168770106Y-146379788D01*
X168770109Y-146379786D01*
X168895048Y-146207820D01*
X168895047Y-146207820D01*
X168895051Y-146207816D01*
X168899514Y-146199054D01*
X168947488Y-146148259D01*
X169015308Y-146131463D01*
X169081444Y-146153999D01*
X169120486Y-146199056D01*
X169124951Y-146207820D01*
X169249890Y-146379786D01*
X169400213Y-146530109D01*
X169572179Y-146655048D01*
X169572181Y-146655049D01*
X169572184Y-146655051D01*
X169761588Y-146751557D01*
X169963757Y-146817246D01*
X170173713Y-146850500D01*
X170173714Y-146850500D01*
X170386286Y-146850500D01*
X170386287Y-146850500D01*
X170596243Y-146817246D01*
X170798412Y-146751557D01*
X170987816Y-146655051D01*
X171036773Y-146619482D01*
X171159786Y-146530109D01*
X171159788Y-146530106D01*
X171159792Y-146530104D01*
X171310104Y-146379792D01*
X171310106Y-146379788D01*
X171310109Y-146379786D01*
X171435048Y-146207820D01*
X171435047Y-146207820D01*
X171435051Y-146207816D01*
X171531557Y-146018412D01*
X171597246Y-145816243D01*
X171630500Y-145606287D01*
X171630500Y-145393713D01*
X171597246Y-145183757D01*
X171531557Y-144981588D01*
X171435051Y-144792184D01*
X171435049Y-144792181D01*
X171435048Y-144792179D01*
X171310109Y-144620213D01*
X171159786Y-144469890D01*
X170987820Y-144344951D01*
X170798414Y-144248444D01*
X170798413Y-144248443D01*
X170798412Y-144248443D01*
X170596243Y-144182754D01*
X170596241Y-144182753D01*
X170596240Y-144182753D01*
X170434957Y-144157208D01*
X170386287Y-144149500D01*
X170173713Y-144149500D01*
X170125042Y-144157208D01*
X169963760Y-144182753D01*
X169761585Y-144248444D01*
X169572179Y-144344951D01*
X169400213Y-144469890D01*
X169249890Y-144620213D01*
X169124949Y-144792182D01*
X169120484Y-144800946D01*
X169072509Y-144851742D01*
X169004688Y-144868536D01*
X168938553Y-144845998D01*
X168899516Y-144800946D01*
X168895050Y-144792182D01*
X168770109Y-144620213D01*
X168619786Y-144469890D01*
X168447820Y-144344951D01*
X168258414Y-144248444D01*
X168258413Y-144248443D01*
X168258412Y-144248443D01*
X168056243Y-144182754D01*
X168056241Y-144182753D01*
X168056240Y-144182753D01*
X167894957Y-144157208D01*
X167846287Y-144149500D01*
X167633713Y-144149500D01*
X167585042Y-144157208D01*
X167423760Y-144182753D01*
X167221585Y-144248444D01*
X167032179Y-144344951D01*
X166860213Y-144469890D01*
X166709890Y-144620213D01*
X166584949Y-144792182D01*
X166580484Y-144800946D01*
X166532509Y-144851742D01*
X166464688Y-144868536D01*
X166398553Y-144845998D01*
X166359516Y-144800946D01*
X166355050Y-144792182D01*
X166230109Y-144620213D01*
X166079786Y-144469890D01*
X165907820Y-144344951D01*
X165718414Y-144248444D01*
X165718413Y-144248443D01*
X165718412Y-144248443D01*
X165516243Y-144182754D01*
X165516241Y-144182753D01*
X165516240Y-144182753D01*
X165354957Y-144157208D01*
X165306287Y-144149500D01*
X165093713Y-144149500D01*
X165045042Y-144157208D01*
X164883760Y-144182753D01*
X164681585Y-144248444D01*
X164492179Y-144344951D01*
X164320213Y-144469890D01*
X164169890Y-144620213D01*
X164044949Y-144792182D01*
X164040484Y-144800946D01*
X163992509Y-144851742D01*
X163924688Y-144868536D01*
X163858553Y-144845998D01*
X163819516Y-144800946D01*
X163815050Y-144792182D01*
X163690109Y-144620213D01*
X163539786Y-144469890D01*
X163367820Y-144344951D01*
X163178414Y-144248444D01*
X163178413Y-144248443D01*
X163178412Y-144248443D01*
X162976243Y-144182754D01*
X162976241Y-144182753D01*
X162976240Y-144182753D01*
X162814957Y-144157208D01*
X162766287Y-144149500D01*
X162553713Y-144149500D01*
X162505042Y-144157208D01*
X162343760Y-144182753D01*
X162141585Y-144248444D01*
X161952179Y-144344951D01*
X161780213Y-144469890D01*
X161629890Y-144620213D01*
X161504949Y-144792182D01*
X161500484Y-144800946D01*
X161452509Y-144851742D01*
X161384688Y-144868536D01*
X161318553Y-144845998D01*
X161279516Y-144800946D01*
X161275050Y-144792182D01*
X161150109Y-144620213D01*
X160999786Y-144469890D01*
X160827820Y-144344951D01*
X160638414Y-144248444D01*
X160638413Y-144248443D01*
X160638412Y-144248443D01*
X160436243Y-144182754D01*
X160436241Y-144182753D01*
X160436240Y-144182753D01*
X160274957Y-144157208D01*
X160226287Y-144149500D01*
X160013713Y-144149500D01*
X159965042Y-144157208D01*
X159803760Y-144182753D01*
X159601585Y-144248444D01*
X159412179Y-144344951D01*
X159240213Y-144469890D01*
X159089890Y-144620213D01*
X158964949Y-144792182D01*
X158960484Y-144800946D01*
X158912509Y-144851742D01*
X158844688Y-144868536D01*
X158778553Y-144845998D01*
X158739516Y-144800946D01*
X158735050Y-144792182D01*
X158610109Y-144620213D01*
X158459786Y-144469890D01*
X158287820Y-144344951D01*
X158098414Y-144248444D01*
X158098413Y-144248443D01*
X158098412Y-144248443D01*
X157896243Y-144182754D01*
X157896241Y-144182753D01*
X157896240Y-144182753D01*
X157734957Y-144157208D01*
X157686287Y-144149500D01*
X157473713Y-144149500D01*
X157425042Y-144157208D01*
X157263760Y-144182753D01*
X157061585Y-144248444D01*
X156872179Y-144344951D01*
X156700213Y-144469890D01*
X156549890Y-144620213D01*
X156424949Y-144792182D01*
X156420484Y-144800946D01*
X156372509Y-144851742D01*
X156304688Y-144868536D01*
X156238553Y-144845998D01*
X156199516Y-144800946D01*
X156195050Y-144792182D01*
X156070109Y-144620213D01*
X155919786Y-144469890D01*
X155747820Y-144344951D01*
X155558414Y-144248444D01*
X155558413Y-144248443D01*
X155558412Y-144248443D01*
X155356243Y-144182754D01*
X155356241Y-144182753D01*
X155356240Y-144182753D01*
X155194957Y-144157208D01*
X155146287Y-144149500D01*
X154933713Y-144149500D01*
X154885042Y-144157208D01*
X154723760Y-144182753D01*
X154521585Y-144248444D01*
X154332179Y-144344951D01*
X154160213Y-144469890D01*
X154009890Y-144620213D01*
X153884949Y-144792182D01*
X153880484Y-144800946D01*
X153832509Y-144851742D01*
X153764688Y-144868536D01*
X153698553Y-144845998D01*
X153659516Y-144800946D01*
X153655050Y-144792182D01*
X153530109Y-144620213D01*
X153379788Y-144469892D01*
X153349550Y-144447924D01*
X153333714Y-144434235D01*
X152664460Y-143748837D01*
X152631708Y-143687119D01*
X152629180Y-143662207D01*
X152629180Y-131787273D01*
X178259500Y-131787273D01*
X178259500Y-131800118D01*
X178259500Y-134400118D01*
X178259500Y-134440000D01*
X178259500Y-134492727D01*
X178286793Y-134594587D01*
X178339520Y-134685913D01*
X178414087Y-134760480D01*
X178505413Y-134813207D01*
X178607273Y-134840500D01*
X178607275Y-134840500D01*
X181712725Y-134840500D01*
X181712727Y-134840500D01*
X181814587Y-134813207D01*
X181905913Y-134760480D01*
X181980480Y-134685913D01*
X182033207Y-134594587D01*
X182060500Y-134492727D01*
X182060500Y-134440000D01*
X182060500Y-134400118D01*
X182060500Y-131800118D01*
X182060500Y-131787273D01*
X182033207Y-131685413D01*
X181980480Y-131594087D01*
X181905913Y-131519520D01*
X181814587Y-131466793D01*
X181712727Y-131439500D01*
X181699882Y-131439500D01*
X178699882Y-131439500D01*
X178660000Y-131439500D01*
X178607273Y-131439500D01*
X178505413Y-131466793D01*
X178505410Y-131466794D01*
X178414085Y-131519521D01*
X178339521Y-131594085D01*
X178286794Y-131685410D01*
X178286793Y-131685413D01*
X178259500Y-131787273D01*
X152629180Y-131787273D01*
X152629180Y-109567273D01*
X178209500Y-109567273D01*
X178209500Y-109580118D01*
X178209500Y-112180118D01*
X178209500Y-112220000D01*
X178209500Y-112272727D01*
X178236793Y-112374587D01*
X178289520Y-112465913D01*
X178364087Y-112540480D01*
X178455413Y-112593207D01*
X178557273Y-112620500D01*
X178557275Y-112620500D01*
X181662725Y-112620500D01*
X181662727Y-112620500D01*
X181764587Y-112593207D01*
X181855913Y-112540480D01*
X181930480Y-112465913D01*
X181983207Y-112374587D01*
X182010500Y-112272727D01*
X182010500Y-112220000D01*
X182010500Y-112180118D01*
X182010500Y-109580118D01*
X182010500Y-109567273D01*
X181983207Y-109465413D01*
X181930480Y-109374087D01*
X181855913Y-109299520D01*
X181764587Y-109246793D01*
X181662727Y-109219500D01*
X181649882Y-109219500D01*
X178649882Y-109219500D01*
X178610000Y-109219500D01*
X178557273Y-109219500D01*
X178455413Y-109246793D01*
X178455410Y-109246794D01*
X178364085Y-109299521D01*
X178289521Y-109374085D01*
X178236794Y-109465410D01*
X178236793Y-109465413D01*
X178209500Y-109567273D01*
X152629180Y-109567273D01*
X152629180Y-87347273D01*
X178159500Y-87347273D01*
X178159500Y-87360118D01*
X178159500Y-89960118D01*
X178159500Y-90000000D01*
X178159500Y-90052727D01*
X178186793Y-90154587D01*
X178239520Y-90245913D01*
X178314087Y-90320480D01*
X178405413Y-90373207D01*
X178507273Y-90400500D01*
X178507275Y-90400500D01*
X181612725Y-90400500D01*
X181612727Y-90400500D01*
X181714587Y-90373207D01*
X181805913Y-90320480D01*
X181880480Y-90245913D01*
X181933207Y-90154587D01*
X181960500Y-90052727D01*
X181960500Y-90000000D01*
X181960500Y-89960118D01*
X181960500Y-87360118D01*
X181960500Y-87347273D01*
X181933207Y-87245413D01*
X181880480Y-87154087D01*
X181805913Y-87079520D01*
X181714587Y-87026793D01*
X181612727Y-86999500D01*
X181599882Y-86999500D01*
X178599882Y-86999500D01*
X178560000Y-86999500D01*
X178507273Y-86999500D01*
X178405413Y-87026793D01*
X178405410Y-87026794D01*
X178314085Y-87079521D01*
X178239521Y-87154085D01*
X178186794Y-87245410D01*
X178186793Y-87245413D01*
X178159500Y-87347273D01*
X152629180Y-87347273D01*
X152629180Y-62232550D01*
X152648865Y-62165511D01*
X152701669Y-62119756D01*
X152770827Y-62109812D01*
X152834383Y-62138837D01*
X152840861Y-62144869D01*
X154708946Y-64012954D01*
X154738222Y-64032514D01*
X154782139Y-64061858D01*
X154831865Y-64095084D01*
X154831867Y-64095085D01*
X154831871Y-64095087D01*
X154968442Y-64151656D01*
X154968447Y-64151658D01*
X154968451Y-64151658D01*
X154968452Y-64151659D01*
X155113439Y-64180500D01*
X155113442Y-64180500D01*
X155113443Y-64180500D01*
X155261278Y-64180500D01*
X157623195Y-64180500D01*
X157661271Y-64186491D01*
X158913716Y-64590601D01*
X158971473Y-64629920D01*
X158998803Y-64694223D01*
X158987029Y-64763093D01*
X158939891Y-64814666D01*
X158931936Y-64819094D01*
X158834992Y-64868490D01*
X158670995Y-64987639D01*
X158527639Y-65130995D01*
X158408492Y-65294990D01*
X158316458Y-65475615D01*
X158253812Y-65668419D01*
X158222100Y-65868640D01*
X158222100Y-66071359D01*
X158253812Y-66271580D01*
X158316458Y-66464384D01*
X158408492Y-66645009D01*
X158527639Y-66809004D01*
X158670995Y-66952360D01*
X158824456Y-67063854D01*
X158834994Y-67071510D01*
X158920194Y-67114921D01*
X158948834Y-67129515D01*
X158999630Y-67177490D01*
X159016425Y-67245311D01*
X158993887Y-67311446D01*
X158948834Y-67350485D01*
X158834990Y-67408492D01*
X158670995Y-67527639D01*
X158527639Y-67670995D01*
X158408492Y-67834990D01*
X158316458Y-68015615D01*
X158253812Y-68208419D01*
X158222100Y-68408640D01*
X158222100Y-68611359D01*
X158253812Y-68811580D01*
X158316458Y-69004384D01*
X158408492Y-69185009D01*
X158527639Y-69349004D01*
X158670995Y-69492360D01*
X158824456Y-69603854D01*
X158834994Y-69611510D01*
X158920194Y-69654921D01*
X158948834Y-69669515D01*
X158999630Y-69717490D01*
X159016425Y-69785311D01*
X158993887Y-69851446D01*
X158948834Y-69890485D01*
X158834990Y-69948492D01*
X158670995Y-70067639D01*
X158527639Y-70210995D01*
X158408492Y-70374990D01*
X158316458Y-70555615D01*
X158253812Y-70748419D01*
X158222100Y-70948640D01*
X158222100Y-71151359D01*
X158253812Y-71351580D01*
X158316458Y-71544384D01*
X158408492Y-71725009D01*
X158527639Y-71889004D01*
X158670995Y-72032360D01*
X158824456Y-72143854D01*
X158834994Y-72151510D01*
X158920194Y-72194921D01*
X158948834Y-72209515D01*
X158999630Y-72257490D01*
X159016425Y-72325311D01*
X158993887Y-72391446D01*
X158948834Y-72430485D01*
X158834990Y-72488492D01*
X158670995Y-72607639D01*
X158527639Y-72750995D01*
X158408492Y-72914990D01*
X158316458Y-73095615D01*
X158253812Y-73288419D01*
X158222100Y-73488640D01*
X158222100Y-73691359D01*
X158253812Y-73891580D01*
X158316458Y-74084384D01*
X158408492Y-74265009D01*
X158527639Y-74429004D01*
X158670995Y-74572360D01*
X158824456Y-74683854D01*
X158834994Y-74691510D01*
X159015618Y-74783543D01*
X159208416Y-74846187D01*
X159408640Y-74877900D01*
X159408641Y-74877900D01*
X159611359Y-74877900D01*
X159611360Y-74877900D01*
X159811584Y-74846187D01*
X160004382Y-74783543D01*
X160185006Y-74691510D01*
X160277085Y-74624610D01*
X160349004Y-74572360D01*
X160349006Y-74572357D01*
X160349010Y-74572355D01*
X160492355Y-74429010D01*
X160492357Y-74429006D01*
X160492360Y-74429004D01*
X160544610Y-74357085D01*
X160611510Y-74265006D01*
X160703543Y-74084382D01*
X160766187Y-73891584D01*
X160797900Y-73691360D01*
X160797900Y-73488640D01*
X160766187Y-73288416D01*
X160703543Y-73095618D01*
X160611510Y-72914994D01*
X160603854Y-72904456D01*
X160492360Y-72750995D01*
X160349004Y-72607639D01*
X160185009Y-72488492D01*
X160185008Y-72488491D01*
X160185006Y-72488490D01*
X160071164Y-72430484D01*
X160020369Y-72382510D01*
X160003574Y-72314689D01*
X160026111Y-72248554D01*
X160071165Y-72209515D01*
X160185006Y-72151510D01*
X160277085Y-72084610D01*
X160349004Y-72032360D01*
X160349006Y-72032357D01*
X160349010Y-72032355D01*
X160492355Y-71889010D01*
X160492357Y-71889006D01*
X160492360Y-71889004D01*
X160544610Y-71817085D01*
X160611510Y-71725006D01*
X160703543Y-71544382D01*
X160766187Y-71351584D01*
X160797900Y-71151360D01*
X160797900Y-70948640D01*
X160766187Y-70748416D01*
X160703543Y-70555618D01*
X160611510Y-70374994D01*
X160603854Y-70364456D01*
X160492360Y-70210995D01*
X160349004Y-70067639D01*
X160185009Y-69948492D01*
X160185008Y-69948491D01*
X160185006Y-69948490D01*
X160071164Y-69890484D01*
X160020369Y-69842510D01*
X160003574Y-69774689D01*
X160026111Y-69708554D01*
X160071165Y-69669515D01*
X160185006Y-69611510D01*
X160277085Y-69544610D01*
X160349004Y-69492360D01*
X160349006Y-69492357D01*
X160349010Y-69492355D01*
X160492355Y-69349010D01*
X160492357Y-69349006D01*
X160492360Y-69349004D01*
X160544610Y-69277085D01*
X160611510Y-69185006D01*
X160703543Y-69004382D01*
X160766187Y-68811584D01*
X160797900Y-68611360D01*
X160797900Y-68408640D01*
X160766187Y-68208416D01*
X160703543Y-68015618D01*
X160611510Y-67834994D01*
X160571192Y-67779500D01*
X160492360Y-67670995D01*
X160349004Y-67527639D01*
X160185009Y-67408492D01*
X160185008Y-67408491D01*
X160185006Y-67408490D01*
X160071164Y-67350484D01*
X160020369Y-67302510D01*
X160003574Y-67234689D01*
X160026111Y-67168554D01*
X160071165Y-67129515D01*
X160185006Y-67071510D01*
X160277085Y-67004610D01*
X160349004Y-66952360D01*
X160349006Y-66952357D01*
X160349010Y-66952355D01*
X160492355Y-66809010D01*
X160492357Y-66809006D01*
X160492360Y-66809004D01*
X160544610Y-66737085D01*
X160611510Y-66645006D01*
X160703543Y-66464382D01*
X160766187Y-66271584D01*
X160797900Y-66071360D01*
X160797900Y-65868640D01*
X160766187Y-65668416D01*
X160703543Y-65475618D01*
X160611510Y-65294994D01*
X160528326Y-65180500D01*
X160492358Y-65130993D01*
X160488638Y-65127273D01*
X178109500Y-65127273D01*
X178109500Y-65140118D01*
X178109500Y-67740118D01*
X178109500Y-67780000D01*
X178109500Y-67832727D01*
X178136793Y-67934587D01*
X178189520Y-68025913D01*
X178264087Y-68100480D01*
X178355413Y-68153207D01*
X178457273Y-68180500D01*
X178457275Y-68180500D01*
X181562725Y-68180500D01*
X181562727Y-68180500D01*
X181664587Y-68153207D01*
X181755913Y-68100480D01*
X181830480Y-68025913D01*
X181883207Y-67934587D01*
X181910500Y-67832727D01*
X181910500Y-67780000D01*
X181910500Y-67740118D01*
X181910500Y-65140118D01*
X181910500Y-65127273D01*
X181883207Y-65025413D01*
X181830480Y-64934087D01*
X181755913Y-64859520D01*
X181685893Y-64819094D01*
X181664589Y-64806794D01*
X181664588Y-64806793D01*
X181664587Y-64806793D01*
X181562727Y-64779500D01*
X181549882Y-64779500D01*
X178549882Y-64779500D01*
X178510000Y-64779500D01*
X178457273Y-64779500D01*
X178355413Y-64806793D01*
X178355410Y-64806794D01*
X178264085Y-64859521D01*
X178189521Y-64934085D01*
X178136794Y-65025410D01*
X178136793Y-65025413D01*
X178109500Y-65127273D01*
X160488638Y-65127273D01*
X160349004Y-64987639D01*
X160185009Y-64868492D01*
X160185008Y-64868491D01*
X160185006Y-64868490D01*
X160071164Y-64810484D01*
X160020369Y-64762510D01*
X160003574Y-64694689D01*
X160026111Y-64628554D01*
X160071165Y-64589515D01*
X160185006Y-64531510D01*
X160277085Y-64464610D01*
X160349004Y-64412360D01*
X160349006Y-64412357D01*
X160349010Y-64412355D01*
X160492355Y-64269010D01*
X160492357Y-64269006D01*
X160492360Y-64269004D01*
X160556661Y-64180500D01*
X160611510Y-64105006D01*
X160703543Y-63924382D01*
X160766187Y-63731584D01*
X160797900Y-63531360D01*
X160797900Y-63328640D01*
X160766187Y-63128416D01*
X160703543Y-62935618D01*
X160611510Y-62754994D01*
X160556661Y-62679500D01*
X160492360Y-62590995D01*
X160349004Y-62447639D01*
X160185009Y-62328492D01*
X160185008Y-62328491D01*
X160185006Y-62328490D01*
X160071164Y-62270484D01*
X160020369Y-62222510D01*
X160003574Y-62154689D01*
X160026111Y-62088554D01*
X160071165Y-62049515D01*
X160088067Y-62040903D01*
X160185006Y-61991510D01*
X160277085Y-61924610D01*
X160349004Y-61872360D01*
X160349006Y-61872357D01*
X160349010Y-61872355D01*
X160492355Y-61729010D01*
X160492357Y-61729006D01*
X160492360Y-61729004D01*
X160544610Y-61657085D01*
X160611510Y-61565006D01*
X160703543Y-61384382D01*
X160766187Y-61191584D01*
X160797900Y-60991360D01*
X160797900Y-60788640D01*
X160766187Y-60588416D01*
X160703543Y-60395618D01*
X160611510Y-60214994D01*
X160603854Y-60204456D01*
X160492360Y-60050995D01*
X160349004Y-59907639D01*
X160185009Y-59788492D01*
X160185008Y-59788491D01*
X160185006Y-59788490D01*
X160071164Y-59730484D01*
X160020369Y-59682510D01*
X160003574Y-59614689D01*
X160026111Y-59548554D01*
X160071165Y-59509515D01*
X160185006Y-59451510D01*
X160277085Y-59384610D01*
X160349004Y-59332360D01*
X160349006Y-59332357D01*
X160349010Y-59332355D01*
X160492355Y-59189010D01*
X160492357Y-59189006D01*
X160492360Y-59189004D01*
X160544610Y-59117085D01*
X160611510Y-59025006D01*
X160703543Y-58844382D01*
X160766187Y-58651584D01*
X160797900Y-58451360D01*
X160797900Y-58248640D01*
X160766187Y-58048416D01*
X160703543Y-57855618D01*
X160611510Y-57674994D01*
X160603854Y-57664456D01*
X160492360Y-57510995D01*
X160349004Y-57367639D01*
X160185009Y-57248492D01*
X160185008Y-57248491D01*
X160185006Y-57248490D01*
X160071164Y-57190484D01*
X160020369Y-57142510D01*
X160003574Y-57074689D01*
X160026111Y-57008554D01*
X160071165Y-56969515D01*
X160185006Y-56911510D01*
X160319177Y-56814030D01*
X160349004Y-56792360D01*
X160349006Y-56792357D01*
X160349010Y-56792355D01*
X160492355Y-56649010D01*
X160492357Y-56649006D01*
X160492360Y-56649004D01*
X160544610Y-56577085D01*
X160611510Y-56485006D01*
X160703543Y-56304382D01*
X160766187Y-56111584D01*
X160797900Y-55911360D01*
X160797900Y-55708640D01*
X160766187Y-55508416D01*
X160703543Y-55315618D01*
X160611510Y-55134994D01*
X160595872Y-55113470D01*
X160492360Y-54970995D01*
X160349004Y-54827639D01*
X160185009Y-54708492D01*
X160185008Y-54708491D01*
X160185006Y-54708490D01*
X160071164Y-54650484D01*
X160020369Y-54602510D01*
X160003574Y-54534689D01*
X160026111Y-54468554D01*
X160071165Y-54429515D01*
X160075993Y-54427055D01*
X160185006Y-54371510D01*
X160277085Y-54304610D01*
X160349004Y-54252360D01*
X160349006Y-54252357D01*
X160349010Y-54252355D01*
X160492355Y-54109010D01*
X160492357Y-54109006D01*
X160492360Y-54109004D01*
X160544610Y-54037085D01*
X160611510Y-53945006D01*
X160703543Y-53764382D01*
X160766187Y-53571584D01*
X160797900Y-53371360D01*
X160797900Y-53168640D01*
X160766187Y-52968416D01*
X160703543Y-52775618D01*
X160611510Y-52594994D01*
X160603854Y-52584456D01*
X160492360Y-52430995D01*
X160349004Y-52287639D01*
X160185009Y-52168492D01*
X160185008Y-52168491D01*
X160185006Y-52168490D01*
X160071164Y-52110484D01*
X160020369Y-52062510D01*
X160003574Y-51994689D01*
X160026111Y-51928554D01*
X160071165Y-51889515D01*
X160185006Y-51831510D01*
X160277085Y-51764610D01*
X160349004Y-51712360D01*
X160349006Y-51712357D01*
X160349010Y-51712355D01*
X160492355Y-51569010D01*
X160492357Y-51569006D01*
X160492360Y-51569004D01*
X160544610Y-51497085D01*
X160611510Y-51405006D01*
X160703543Y-51224382D01*
X160766187Y-51031584D01*
X160797900Y-50831360D01*
X160797900Y-50628640D01*
X160766187Y-50428416D01*
X160703543Y-50235618D01*
X160611510Y-50054994D01*
X160603854Y-50044456D01*
X160492360Y-49890995D01*
X160349004Y-49747639D01*
X160185009Y-49628492D01*
X160185008Y-49628491D01*
X160185006Y-49628490D01*
X160071164Y-49570484D01*
X160020369Y-49522510D01*
X160003574Y-49454689D01*
X160026111Y-49388554D01*
X160071165Y-49349515D01*
X160185006Y-49291510D01*
X160277085Y-49224610D01*
X160349004Y-49172360D01*
X160349006Y-49172357D01*
X160349010Y-49172355D01*
X160492355Y-49029010D01*
X160492357Y-49029006D01*
X160492360Y-49029004D01*
X160563909Y-48930523D01*
X160611510Y-48865006D01*
X160703543Y-48684382D01*
X160766187Y-48491584D01*
X160797900Y-48291360D01*
X160797900Y-48088640D01*
X160766187Y-47888416D01*
X160703543Y-47695618D01*
X160611510Y-47514994D01*
X160556661Y-47439500D01*
X160492360Y-47350995D01*
X160349004Y-47207639D01*
X160185009Y-47088492D01*
X160185008Y-47088491D01*
X160185006Y-47088490D01*
X160071164Y-47030484D01*
X160020369Y-46982510D01*
X160003574Y-46914689D01*
X160026111Y-46848554D01*
X160071165Y-46809515D01*
X160088067Y-46800903D01*
X160185006Y-46751510D01*
X160277085Y-46684610D01*
X160349004Y-46632360D01*
X160349006Y-46632357D01*
X160349010Y-46632355D01*
X160492355Y-46489010D01*
X160492357Y-46489006D01*
X160492360Y-46489004D01*
X160556661Y-46400500D01*
X160611510Y-46325006D01*
X160703543Y-46144382D01*
X160766187Y-45951584D01*
X160797900Y-45751360D01*
X160797900Y-45548640D01*
X160766187Y-45348416D01*
X160703543Y-45155618D01*
X160611510Y-44974994D01*
X160603854Y-44964456D01*
X160492360Y-44810995D01*
X160349004Y-44667639D01*
X160185009Y-44548492D01*
X160185008Y-44548491D01*
X160185006Y-44548490D01*
X160071164Y-44490484D01*
X160020369Y-44442510D01*
X160003574Y-44374689D01*
X160026111Y-44308554D01*
X160071165Y-44269515D01*
X160185006Y-44211510D01*
X160277085Y-44144610D01*
X160349004Y-44092360D01*
X160349006Y-44092357D01*
X160349010Y-44092355D01*
X160492355Y-43949010D01*
X160492357Y-43949006D01*
X160492360Y-43949004D01*
X160556661Y-43860500D01*
X160611510Y-43785006D01*
X160703543Y-43604382D01*
X160766187Y-43411584D01*
X160797900Y-43211360D01*
X160797900Y-43008640D01*
X160781845Y-42907273D01*
X178059500Y-42907273D01*
X178059500Y-42920118D01*
X178059500Y-45520118D01*
X178059500Y-45560000D01*
X178059500Y-45612727D01*
X178086793Y-45714587D01*
X178139520Y-45805913D01*
X178214087Y-45880480D01*
X178305413Y-45933207D01*
X178407273Y-45960500D01*
X178407275Y-45960500D01*
X181512725Y-45960500D01*
X181512727Y-45960500D01*
X181614587Y-45933207D01*
X181705913Y-45880480D01*
X181780480Y-45805913D01*
X181833207Y-45714587D01*
X181860500Y-45612727D01*
X181860500Y-45560000D01*
X181860500Y-45520118D01*
X181860500Y-42920118D01*
X181860500Y-42907273D01*
X181833207Y-42805413D01*
X181780480Y-42714087D01*
X181705913Y-42639520D01*
X181614587Y-42586793D01*
X181512727Y-42559500D01*
X181499882Y-42559500D01*
X178499882Y-42559500D01*
X178460000Y-42559500D01*
X178407273Y-42559500D01*
X178305413Y-42586793D01*
X178305410Y-42586794D01*
X178214085Y-42639521D01*
X178139521Y-42714085D01*
X178086794Y-42805410D01*
X178086793Y-42805413D01*
X178059500Y-42907273D01*
X160781845Y-42907273D01*
X160766187Y-42808416D01*
X160703543Y-42615618D01*
X160611510Y-42434994D01*
X160603854Y-42424456D01*
X160492360Y-42270995D01*
X160349004Y-42127639D01*
X160185009Y-42008492D01*
X160185008Y-42008491D01*
X160185006Y-42008490D01*
X160071164Y-41950484D01*
X160020369Y-41902510D01*
X160003574Y-41834689D01*
X160026111Y-41768554D01*
X160071165Y-41729515D01*
X160185006Y-41671510D01*
X160277085Y-41604610D01*
X160349004Y-41552360D01*
X160349006Y-41552357D01*
X160349010Y-41552355D01*
X160492355Y-41409010D01*
X160492357Y-41409006D01*
X160492360Y-41409004D01*
X160580005Y-41288369D01*
X160611510Y-41245006D01*
X160703543Y-41064382D01*
X160766187Y-40871584D01*
X160797900Y-40671360D01*
X160797900Y-40468640D01*
X160766187Y-40268416D01*
X160703543Y-40075618D01*
X160611510Y-39894994D01*
X160603854Y-39884456D01*
X160492360Y-39730995D01*
X160349004Y-39587639D01*
X160185009Y-39468492D01*
X160185008Y-39468491D01*
X160185006Y-39468490D01*
X160071164Y-39410484D01*
X160020369Y-39362510D01*
X160003574Y-39294689D01*
X160026111Y-39228554D01*
X160071165Y-39189515D01*
X160185006Y-39131510D01*
X160285019Y-39058847D01*
X160349004Y-39012360D01*
X160349006Y-39012357D01*
X160349010Y-39012355D01*
X160492355Y-38869010D01*
X160492357Y-38869006D01*
X160492360Y-38869004D01*
X160544610Y-38797085D01*
X160611510Y-38705006D01*
X160703543Y-38524382D01*
X160766187Y-38331584D01*
X160797900Y-38131360D01*
X160797900Y-37928640D01*
X160766187Y-37728416D01*
X160703543Y-37535618D01*
X160611510Y-37354994D01*
X160603854Y-37344456D01*
X160492360Y-37190995D01*
X160349004Y-37047639D01*
X160185009Y-36928492D01*
X160185008Y-36928491D01*
X160185006Y-36928490D01*
X160004382Y-36836457D01*
X159811584Y-36773813D01*
X159811582Y-36773812D01*
X159811580Y-36773812D01*
X159671782Y-36751670D01*
X159611360Y-36742100D01*
X159408640Y-36742100D01*
X159362224Y-36749451D01*
X159208419Y-36773812D01*
X159208418Y-36773812D01*
X159015618Y-36836456D01*
X158946147Y-36871853D01*
X158933806Y-36877317D01*
X158032615Y-37218936D01*
X157859921Y-37284400D01*
X157653183Y-37362769D01*
X157609230Y-37370820D01*
X156822102Y-37370820D01*
X156772280Y-37360371D01*
X156694563Y-37326272D01*
X156429768Y-37210090D01*
X156135020Y-37080766D01*
X156061538Y-37057830D01*
X156059482Y-37057168D01*
X155981480Y-37031321D01*
X155878690Y-37020820D01*
X154878678Y-37020820D01*
X154878660Y-37020821D01*
X154775883Y-37031320D01*
X154775880Y-37031321D01*
X154609348Y-37086505D01*
X154609343Y-37086507D01*
X154460022Y-37178609D01*
X154340861Y-37297771D01*
X154279538Y-37331256D01*
X154209846Y-37326272D01*
X154153913Y-37284400D01*
X154129496Y-37218936D01*
X154129180Y-37210090D01*
X154129180Y-35745819D01*
X154148865Y-35678780D01*
X154201669Y-35633025D01*
X154253180Y-35621819D01*
X154526551Y-35621819D01*
X154526552Y-35621819D01*
X154586163Y-35615411D01*
X154721011Y-35565116D01*
X154836226Y-35478866D01*
X154922476Y-35363651D01*
X154972771Y-35228803D01*
X154979180Y-35169193D01*
X154979179Y-34473448D01*
X154972771Y-34413837D01*
X154972769Y-34413832D01*
X154922477Y-34278991D01*
X154922473Y-34278984D01*
X154836227Y-34163775D01*
X154836224Y-34163772D01*
X154721015Y-34077526D01*
X154721008Y-34077522D01*
X154586162Y-34027228D01*
X154586163Y-34027228D01*
X154526563Y-34020821D01*
X154526561Y-34020820D01*
X154526553Y-34020820D01*
X154526544Y-34020820D01*
X153230809Y-34020820D01*
X153230803Y-34020821D01*
X153171196Y-34027228D01*
X153036351Y-34077522D01*
X153036344Y-34077526D01*
X152921135Y-34163772D01*
X152921132Y-34163775D01*
X152834886Y-34278984D01*
X152834882Y-34278991D01*
X152784588Y-34413837D01*
X152778181Y-34473436D01*
X152778181Y-34473443D01*
X152778180Y-34473455D01*
X152778180Y-34831553D01*
X152773001Y-34849187D01*
X152772835Y-34867566D01*
X152759046Y-34896714D01*
X152758495Y-34898592D01*
X152757883Y-34899536D01*
X152757587Y-34899987D01*
X152713596Y-34965825D01*
X152712170Y-34969267D01*
X152706882Y-34977334D01*
X152684326Y-34996522D01*
X152663566Y-35017654D01*
X152658005Y-35018915D01*
X152653665Y-35022608D01*
X152624310Y-35026557D01*
X152595427Y-35033108D01*
X152590069Y-35031163D01*
X152584419Y-35031924D01*
X152557585Y-35019374D01*
X152529749Y-35009271D01*
X152526292Y-35004738D01*
X152521129Y-35002323D01*
X152505342Y-34977261D01*
X152487385Y-34953710D01*
X152486086Y-34946692D01*
X152483890Y-34943205D01*
X152483962Y-34935209D01*
X152479179Y-34909354D01*
X152479179Y-34473448D01*
X152472771Y-34413837D01*
X152463750Y-34389653D01*
X152458765Y-34319964D01*
X152463746Y-34302997D01*
X152472771Y-34278803D01*
X152479180Y-34219193D01*
X152479179Y-33523448D01*
X152472771Y-33463837D01*
X152463750Y-33439653D01*
X152458765Y-33369964D01*
X152463746Y-33352997D01*
X152472771Y-33328803D01*
X152479180Y-33269193D01*
X152479179Y-32573448D01*
X152479179Y-32573447D01*
X152778180Y-32573447D01*
X152778180Y-32573454D01*
X152778180Y-32573455D01*
X152778180Y-33269190D01*
X152778181Y-33269196D01*
X152784588Y-33328803D01*
X152834882Y-33463648D01*
X152834886Y-33463655D01*
X152921132Y-33578864D01*
X152921135Y-33578867D01*
X153036344Y-33665113D01*
X153036351Y-33665117D01*
X153171197Y-33715411D01*
X153171196Y-33715411D01*
X153178124Y-33716155D01*
X153230807Y-33721820D01*
X154526552Y-33721819D01*
X154586163Y-33715411D01*
X154586167Y-33715410D01*
X154612075Y-33705745D01*
X154626528Y-33700354D01*
X154694193Y-33694945D01*
X155164274Y-33789004D01*
X155704193Y-33897037D01*
X155704176Y-33897120D01*
X155720212Y-33901156D01*
X155750340Y-33911139D01*
X155750883Y-33911319D01*
X155853671Y-33921820D01*
X156903688Y-33921819D01*
X156903696Y-33921818D01*
X156903699Y-33921818D01*
X156927576Y-33919378D01*
X157006477Y-33911319D01*
X157058115Y-33894206D01*
X157081487Y-33888903D01*
X157090338Y-33887779D01*
X157820045Y-33686458D01*
X157889904Y-33687604D01*
X157898519Y-33690640D01*
X158903389Y-34086993D01*
X158914175Y-34091854D01*
X159015618Y-34143543D01*
X159208416Y-34206187D01*
X159283848Y-34218134D01*
X159299677Y-34221154D01*
X159302108Y-34221026D01*
X159408640Y-34237900D01*
X159408641Y-34237900D01*
X159611359Y-34237900D01*
X159611360Y-34237900D01*
X159811584Y-34206187D01*
X160004382Y-34143543D01*
X160185006Y-34051510D01*
X160277085Y-33984610D01*
X160349004Y-33932360D01*
X160349006Y-33932357D01*
X160349010Y-33932355D01*
X160492355Y-33789010D01*
X160492357Y-33789006D01*
X160492360Y-33789004D01*
X160560697Y-33694945D01*
X160611510Y-33625006D01*
X160703543Y-33444382D01*
X160766187Y-33251584D01*
X160797900Y-33051360D01*
X160797900Y-32848640D01*
X160766187Y-32648416D01*
X160703543Y-32455618D01*
X160611510Y-32274994D01*
X160603357Y-32263772D01*
X160492360Y-32110995D01*
X160349004Y-31967639D01*
X160185009Y-31848492D01*
X160185008Y-31848491D01*
X160185006Y-31848490D01*
X160004382Y-31756457D01*
X159811584Y-31693813D01*
X159811582Y-31693812D01*
X159811580Y-31693812D01*
X159671782Y-31671670D01*
X159611360Y-31662100D01*
X159408640Y-31662100D01*
X159360758Y-31669683D01*
X159249033Y-31687379D01*
X159242392Y-31688248D01*
X159221474Y-31690411D01*
X157967177Y-32005089D01*
X157904025Y-32004350D01*
X157090340Y-31779861D01*
X157090334Y-31779860D01*
X157063751Y-31774400D01*
X157049696Y-31770642D01*
X157006482Y-31756322D01*
X157006477Y-31756321D01*
X157006475Y-31756320D01*
X157006471Y-31756320D01*
X156903690Y-31745820D01*
X155853678Y-31745820D01*
X155853660Y-31745821D01*
X155750883Y-31756320D01*
X155750880Y-31756321D01*
X155584344Y-31811506D01*
X155580019Y-31813523D01*
X155568335Y-31818262D01*
X154673314Y-32129333D01*
X154603528Y-32132748D01*
X154589280Y-32128391D01*
X154586163Y-32127228D01*
X154526563Y-32120821D01*
X154526561Y-32120820D01*
X154526553Y-32120820D01*
X154526544Y-32120820D01*
X153230809Y-32120820D01*
X153230803Y-32120821D01*
X153171196Y-32127228D01*
X153036351Y-32177522D01*
X153036344Y-32177526D01*
X152921135Y-32263772D01*
X152921134Y-32263774D01*
X152834886Y-32378984D01*
X152834882Y-32378991D01*
X152784590Y-32513833D01*
X152784589Y-32513837D01*
X152778180Y-32573447D01*
X152479179Y-32573447D01*
X152472771Y-32513837D01*
X152422476Y-32378989D01*
X152422475Y-32378988D01*
X152422473Y-32378984D01*
X152336226Y-32263774D01*
X152336224Y-32263772D01*
X152221015Y-32177526D01*
X152221008Y-32177522D01*
X152086162Y-32127228D01*
X152086163Y-32127228D01*
X152026563Y-32120821D01*
X152026561Y-32120820D01*
X152026553Y-32120820D01*
X152026545Y-32120820D01*
X151990909Y-32120820D01*
X151961468Y-32112175D01*
X151931482Y-32105652D01*
X151926466Y-32101897D01*
X151923870Y-32101135D01*
X151903228Y-32084501D01*
X151857096Y-32038369D01*
X151415499Y-31596771D01*
X151382014Y-31535448D01*
X151379180Y-31509090D01*
X151379180Y-30425924D01*
X151388619Y-30378471D01*
X151398417Y-30354817D01*
X151429180Y-30200162D01*
X151429180Y-30042478D01*
X151429180Y-30042475D01*
X151429179Y-30042473D01*
X151405594Y-29923906D01*
X151398417Y-29887823D01*
X151396515Y-29883232D01*
X151338077Y-29742147D01*
X151338070Y-29742134D01*
X151250469Y-29611031D01*
X151250466Y-29611027D01*
X151138972Y-29499533D01*
X151138968Y-29499530D01*
X151007865Y-29411929D01*
X151007852Y-29411922D01*
X150862181Y-29351584D01*
X150862169Y-29351581D01*
X150707525Y-29320820D01*
X150707522Y-29320820D01*
X150549838Y-29320820D01*
X150549835Y-29320820D01*
X150395190Y-29351581D01*
X150395178Y-29351584D01*
X150249507Y-29411922D01*
X150249494Y-29411929D01*
X150118391Y-29499530D01*
X150118387Y-29499533D01*
X150006893Y-29611027D01*
X150006890Y-29611031D01*
X149919289Y-29742134D01*
X149919282Y-29742147D01*
X149858944Y-29887818D01*
X149858941Y-29887830D01*
X149828180Y-30042473D01*
X149828180Y-30200166D01*
X149858941Y-30354809D01*
X149858943Y-30354817D01*
X149868741Y-30378471D01*
X149878180Y-30425924D01*
X149878180Y-31945238D01*
X149878180Y-31945240D01*
X149878179Y-31945240D01*
X149907020Y-32090227D01*
X149907023Y-32090237D01*
X149948151Y-32189528D01*
X149963596Y-32226815D01*
X149988291Y-32263774D01*
X149988290Y-32263774D01*
X150045726Y-32349734D01*
X150045727Y-32349735D01*
X150045728Y-32349736D01*
X150241862Y-32545869D01*
X150275346Y-32607190D01*
X150278180Y-32633549D01*
X150278180Y-33269190D01*
X150278181Y-33269196D01*
X150284589Y-33328804D01*
X150293609Y-33352990D01*
X150298591Y-33422681D01*
X150293609Y-33439650D01*
X150284590Y-33463832D01*
X150284589Y-33463835D01*
X150284589Y-33463837D01*
X150278180Y-33523447D01*
X150278180Y-33523454D01*
X150278180Y-33523455D01*
X150278180Y-34219190D01*
X150278181Y-34219196D01*
X150284589Y-34278804D01*
X150293609Y-34302990D01*
X150298591Y-34372681D01*
X150293609Y-34389650D01*
X150284590Y-34413832D01*
X150284589Y-34413835D01*
X150284589Y-34413837D01*
X150278180Y-34473447D01*
X150278180Y-34473454D01*
X150278180Y-34473455D01*
X150278180Y-35169190D01*
X150278181Y-35169196D01*
X150284588Y-35228803D01*
X150334882Y-35363648D01*
X150334886Y-35363655D01*
X150421132Y-35478864D01*
X150421135Y-35478867D01*
X150536344Y-35565113D01*
X150536351Y-35565117D01*
X150671197Y-35615411D01*
X150671196Y-35615411D01*
X150678124Y-35616155D01*
X150730807Y-35621820D01*
X152026552Y-35621819D01*
X152086163Y-35615411D01*
X152221011Y-35565116D01*
X152336226Y-35478866D01*
X152404914Y-35387109D01*
X152460847Y-35345240D01*
X152530539Y-35340256D01*
X152591862Y-35373741D01*
X152625346Y-35435065D01*
X152628180Y-35461422D01*
X152628180Y-46510090D01*
X152621941Y-46531335D01*
X152620362Y-46553423D01*
X152612289Y-46564206D01*
X152608495Y-46577129D01*
X152591761Y-46591628D01*
X152578491Y-46609356D01*
X152565870Y-46614063D01*
X152555691Y-46622884D01*
X152533774Y-46626035D01*
X152513027Y-46633774D01*
X152499865Y-46630911D01*
X152486533Y-46632828D01*
X152466391Y-46623629D01*
X152444754Y-46618923D01*
X152427025Y-46605651D01*
X152422977Y-46603803D01*
X152416499Y-46597772D01*
X152395856Y-46577129D01*
X152357096Y-46538369D01*
X151367367Y-45548640D01*
X148345781Y-42527052D01*
X148345774Y-42527046D01*
X148270693Y-42476879D01*
X148270594Y-42476814D01*
X148222855Y-42444916D01*
X148222854Y-42444915D01*
X148222852Y-42444914D01*
X148086277Y-42388343D01*
X148086267Y-42388340D01*
X147941280Y-42359500D01*
X147941278Y-42359500D01*
X146156809Y-42359500D01*
X146118732Y-42353509D01*
X144866284Y-41949397D01*
X144808528Y-41910078D01*
X144781198Y-41845775D01*
X144792972Y-41776905D01*
X144840110Y-41725332D01*
X144848052Y-41720910D01*
X144945006Y-41671510D01*
X145028249Y-41611031D01*
X145109004Y-41552360D01*
X145109006Y-41552357D01*
X145109010Y-41552355D01*
X145252355Y-41409010D01*
X145252357Y-41409006D01*
X145252360Y-41409004D01*
X145340005Y-41288369D01*
X145371510Y-41245006D01*
X145463543Y-41064382D01*
X145526187Y-40871584D01*
X145557900Y-40671360D01*
X145557900Y-40468640D01*
X145526187Y-40268416D01*
X145463543Y-40075618D01*
X145371510Y-39894994D01*
X145363854Y-39884456D01*
X145252360Y-39730995D01*
X145109004Y-39587639D01*
X144945009Y-39468492D01*
X144945008Y-39468491D01*
X144945006Y-39468490D01*
X144831164Y-39410484D01*
X144780369Y-39362510D01*
X144763574Y-39294689D01*
X144786111Y-39228554D01*
X144831165Y-39189515D01*
X144945006Y-39131510D01*
X145045019Y-39058847D01*
X145109004Y-39012360D01*
X145109006Y-39012357D01*
X145109010Y-39012355D01*
X145252355Y-38869010D01*
X145252357Y-38869006D01*
X145252360Y-38869004D01*
X145304610Y-38797085D01*
X145371510Y-38705006D01*
X145463543Y-38524382D01*
X145526187Y-38331584D01*
X145557900Y-38131360D01*
X145557900Y-37928640D01*
X145526187Y-37728416D01*
X145463543Y-37535618D01*
X145371510Y-37354994D01*
X145363854Y-37344456D01*
X145252360Y-37190995D01*
X145109004Y-37047639D01*
X144945009Y-36928492D01*
X144945008Y-36928491D01*
X144945006Y-36928490D01*
X144831164Y-36870484D01*
X144780369Y-36822510D01*
X144763574Y-36754689D01*
X144786111Y-36688554D01*
X144831165Y-36649515D01*
X144945006Y-36591510D01*
X145037085Y-36524610D01*
X145109004Y-36472360D01*
X145109006Y-36472357D01*
X145109010Y-36472355D01*
X145252355Y-36329010D01*
X145252357Y-36329006D01*
X145252360Y-36329004D01*
X145304610Y-36257085D01*
X145371510Y-36165006D01*
X145463543Y-35984382D01*
X145526187Y-35791584D01*
X145557900Y-35591360D01*
X145557900Y-35388640D01*
X145526187Y-35188416D01*
X145463543Y-34995618D01*
X145371510Y-34814994D01*
X145363854Y-34804456D01*
X145252360Y-34650995D01*
X145109004Y-34507639D01*
X144945009Y-34388492D01*
X144945008Y-34388491D01*
X144945006Y-34388490D01*
X144831164Y-34330484D01*
X144780369Y-34282510D01*
X144763574Y-34214689D01*
X144786111Y-34148554D01*
X144831165Y-34109515D01*
X144945006Y-34051510D01*
X145037085Y-33984610D01*
X145109004Y-33932360D01*
X145109006Y-33932357D01*
X145109010Y-33932355D01*
X145252355Y-33789010D01*
X145252357Y-33789006D01*
X145252360Y-33789004D01*
X145320697Y-33694945D01*
X145371510Y-33625006D01*
X145463543Y-33444382D01*
X145526187Y-33251584D01*
X145557900Y-33051360D01*
X145557900Y-32848640D01*
X145526187Y-32648416D01*
X145463543Y-32455618D01*
X145371510Y-32274994D01*
X145363357Y-32263772D01*
X145252360Y-32110995D01*
X145109004Y-31967639D01*
X144945009Y-31848492D01*
X144945008Y-31848491D01*
X144945006Y-31848490D01*
X144764382Y-31756457D01*
X144571584Y-31693813D01*
X144571582Y-31693812D01*
X144571580Y-31693812D01*
X144431782Y-31671670D01*
X144371360Y-31662100D01*
X144168640Y-31662100D01*
X144122224Y-31669451D01*
X143968419Y-31693812D01*
X143968416Y-31693813D01*
X143776034Y-31756322D01*
X143775615Y-31756458D01*
X143594990Y-31848492D01*
X143430995Y-31967639D01*
X143287639Y-32110995D01*
X143168492Y-32274990D01*
X143076458Y-32455615D01*
X143013812Y-32648419D01*
X142982100Y-32848640D01*
X142982100Y-33051360D01*
X143013813Y-33251584D01*
X143076457Y-33444382D01*
X143144980Y-33578866D01*
X143168492Y-33625009D01*
X143287639Y-33789004D01*
X143430995Y-33932360D01*
X143552754Y-34020821D01*
X143594994Y-34051510D01*
X143664629Y-34086991D01*
X143708834Y-34109515D01*
X143759630Y-34157490D01*
X143776425Y-34225311D01*
X143753887Y-34291446D01*
X143708834Y-34330485D01*
X143594990Y-34388492D01*
X143430995Y-34507639D01*
X143287639Y-34650995D01*
X143168492Y-34814990D01*
X143076458Y-34995615D01*
X143013812Y-35188419D01*
X143004470Y-35247402D01*
X142982100Y-35388640D01*
X142982100Y-35591360D01*
X142988567Y-35632188D01*
X143013812Y-35791580D01*
X143076458Y-35984384D01*
X143168492Y-36165009D01*
X143287639Y-36329004D01*
X143430995Y-36472360D01*
X143584456Y-36583854D01*
X143594994Y-36591510D01*
X143680194Y-36634921D01*
X143708834Y-36649515D01*
X143759630Y-36697490D01*
X143776425Y-36765311D01*
X143753887Y-36831446D01*
X143708834Y-36870485D01*
X143594990Y-36928492D01*
X143430995Y-37047639D01*
X143287639Y-37190995D01*
X143168492Y-37354990D01*
X143076458Y-37535615D01*
X143013812Y-37728419D01*
X142982100Y-37928640D01*
X142982100Y-38131359D01*
X143013812Y-38331580D01*
X143076458Y-38524384D01*
X143168492Y-38705009D01*
X143287639Y-38869004D01*
X143430995Y-39012360D01*
X143571967Y-39114780D01*
X143594994Y-39131510D01*
X143680194Y-39174921D01*
X143708834Y-39189515D01*
X143759630Y-39237490D01*
X143776425Y-39305311D01*
X143753887Y-39371446D01*
X143708834Y-39410485D01*
X143594990Y-39468492D01*
X143430995Y-39587639D01*
X143287639Y-39730995D01*
X143168492Y-39894990D01*
X143076458Y-40075615D01*
X143013812Y-40268419D01*
X142982100Y-40468640D01*
X142982100Y-40671360D01*
X143013813Y-40871584D01*
X143042937Y-40961219D01*
X143076458Y-41064384D01*
X143168492Y-41245009D01*
X143287639Y-41409004D01*
X143430995Y-41552360D01*
X143584456Y-41663854D01*
X143594994Y-41671510D01*
X143680194Y-41714921D01*
X143708834Y-41729515D01*
X143759630Y-41777490D01*
X143776425Y-41845311D01*
X143753887Y-41911446D01*
X143708834Y-41950485D01*
X143594990Y-42008492D01*
X143430995Y-42127639D01*
X143287639Y-42270995D01*
X143168492Y-42434990D01*
X143076458Y-42615615D01*
X143013812Y-42808419D01*
X142982100Y-43008640D01*
X142982100Y-43211359D01*
X143013812Y-43411580D01*
X143076458Y-43604384D01*
X143168492Y-43785009D01*
X143287639Y-43949004D01*
X143430995Y-44092360D01*
X143584456Y-44203854D01*
X143594994Y-44211510D01*
X143680194Y-44254921D01*
X143708834Y-44269515D01*
X143759630Y-44317490D01*
X143776425Y-44385311D01*
X143753887Y-44451446D01*
X143708834Y-44490485D01*
X143594990Y-44548492D01*
X143430995Y-44667639D01*
X143287639Y-44810995D01*
X143168492Y-44974990D01*
X143076458Y-45155615D01*
X143013812Y-45348419D01*
X142982100Y-45548640D01*
X142982100Y-45751359D01*
X143013812Y-45951580D01*
X143076458Y-46144384D01*
X143168492Y-46325009D01*
X143287639Y-46489004D01*
X143430995Y-46632360D01*
X143584456Y-46743854D01*
X143594994Y-46751510D01*
X143691933Y-46800903D01*
X143742729Y-46848878D01*
X143759524Y-46916699D01*
X143736986Y-46982834D01*
X143682271Y-47026285D01*
X143673715Y-47029397D01*
X142421267Y-47433509D01*
X142383190Y-47439500D01*
X141559590Y-47439500D01*
X141492551Y-47419815D01*
X141471909Y-47403181D01*
X135357101Y-41288372D01*
X135357094Y-41288366D01*
X135257498Y-41221819D01*
X135257497Y-41221819D01*
X135234175Y-41206236D01*
X135234168Y-41206232D01*
X135097597Y-41149663D01*
X135097587Y-41149660D01*
X134952600Y-41120820D01*
X134952598Y-41120820D01*
X128202597Y-41120820D01*
X128054762Y-41120820D01*
X128054760Y-41120820D01*
X127909772Y-41149660D01*
X127909762Y-41149663D01*
X127773191Y-41206232D01*
X127773178Y-41206239D01*
X127650265Y-41288368D01*
X127563382Y-41375249D01*
X127523160Y-41402125D01*
X127499499Y-41411926D01*
X127499498Y-41411927D01*
X127368395Y-41499527D01*
X127368387Y-41499533D01*
X127256893Y-41611027D01*
X127256890Y-41611031D01*
X127169289Y-41742134D01*
X127169282Y-41742147D01*
X127108944Y-41887818D01*
X127108941Y-41887830D01*
X127078180Y-42042473D01*
X120329180Y-42042473D01*
X120329180Y-32374563D01*
X120329350Y-32368074D01*
X120336752Y-32226815D01*
X120346913Y-32032913D01*
X120348270Y-32020008D01*
X120378729Y-31827692D01*
X120400264Y-31691723D01*
X120402954Y-31679063D01*
X120488986Y-31357986D01*
X120492988Y-31345671D01*
X120612109Y-31035348D01*
X120617382Y-31023509D01*
X120768275Y-30727369D01*
X120774756Y-30716141D01*
X120955794Y-30437369D01*
X120963404Y-30426895D01*
X121172587Y-30168579D01*
X121181264Y-30158944D01*
X121416286Y-29923926D01*
X121425921Y-29915249D01*
X121684245Y-29706067D01*
X121694715Y-29698460D01*
X121973482Y-29517432D01*
X121984710Y-29510949D01*
X122280875Y-29360051D01*
X122292707Y-29354784D01*
X122603024Y-29235671D01*
X122615349Y-29231667D01*
X122936392Y-29145650D01*
X122949082Y-29142951D01*
X123277388Y-29090959D01*
X123290261Y-29089607D01*
X123626577Y-29071989D01*
X123633055Y-29071820D01*
X123668557Y-29071821D01*
X123668559Y-29071820D01*
X181588799Y-29071820D01*
X181625436Y-29071820D01*
X181631925Y-29071990D01*
G37*
%TD.AperFunction*%
%TD*%
%TA.AperFunction,Conductor*%
%TO.N,LED_STATUS*%
G36*
X159352823Y-62662480D02*
G01*
X159358625Y-62669301D01*
X159358962Y-62670597D01*
X159510540Y-63427703D01*
X159510540Y-63432297D01*
X159358962Y-64189402D01*
X159353978Y-64196841D01*
X159345193Y-64198577D01*
X159343897Y-64198240D01*
X157745837Y-63682615D01*
X157739016Y-63676813D01*
X157737730Y-63671480D01*
X157737730Y-63188519D01*
X157741157Y-63180246D01*
X157745836Y-63177384D01*
X159343898Y-62661759D01*
X159352823Y-62662480D01*
G37*
%TD.AperFunction*%
%TD*%
%TA.AperFunction,Conductor*%
%TO.N,VBUS_SENSE*%
G36*
X155386552Y-40127479D02*
G01*
X155971939Y-40659857D01*
X155975754Y-40667959D01*
X155974387Y-40674025D01*
X155631985Y-41315132D01*
X155625065Y-41320815D01*
X155621665Y-41321320D01*
X155135695Y-41321320D01*
X155127422Y-41317893D01*
X155125375Y-41315132D01*
X154782972Y-40674025D01*
X154782097Y-40665113D01*
X154785418Y-40659860D01*
X155370808Y-40127478D01*
X155379234Y-40124448D01*
X155386552Y-40127479D01*
G37*
%TD.AperFunction*%
%TD*%
%TA.AperFunction,Conductor*%
%TO.N,OLED_SDA*%
G36*
X150129022Y-143669760D02*
G01*
X150131617Y-143673700D01*
X150788464Y-145321123D01*
X150788345Y-145330077D01*
X150781929Y-145336324D01*
X150779892Y-145336929D01*
X149962296Y-145500540D01*
X149957704Y-145500540D01*
X149138951Y-145336698D01*
X149131511Y-145331714D01*
X149129774Y-145322929D01*
X149130044Y-145321851D01*
X149130264Y-145321123D01*
X149626172Y-143674658D01*
X149631839Y-143667725D01*
X149637375Y-143666333D01*
X150120749Y-143666333D01*
X150129022Y-143669760D01*
G37*
%TD.AperFunction*%
%TD*%
%TA.AperFunction,Conductor*%
%TO.N,VBAT*%
G36*
X159353335Y-32182027D02*
G01*
X159358672Y-32189218D01*
X159358796Y-32189768D01*
X159510540Y-32947703D01*
X159510540Y-32952297D01*
X159359133Y-33708548D01*
X159354149Y-33715987D01*
X159345364Y-33717723D01*
X159343368Y-33717135D01*
X157745137Y-33086741D01*
X157738698Y-33080518D01*
X157737730Y-33075857D01*
X157737730Y-32592946D01*
X157741157Y-32584673D01*
X157746579Y-32581599D01*
X159344478Y-32180717D01*
X159353335Y-32182027D01*
G37*
%TD.AperFunction*%
%TD*%
%TA.AperFunction,Conductor*%
%TO.N,VBAT*%
G36*
X155795314Y-32278164D02*
G01*
X155798283Y-32280222D01*
X156209069Y-32671367D01*
X156370972Y-32825528D01*
X156374600Y-32833715D01*
X156371377Y-32842069D01*
X156371154Y-32842297D01*
X155812435Y-33397888D01*
X155804152Y-33401292D01*
X155801889Y-33401065D01*
X154663084Y-33173201D01*
X154655644Y-33168217D01*
X154653680Y-33161728D01*
X154653680Y-32679640D01*
X154657107Y-32671367D01*
X154661537Y-32668589D01*
X155786376Y-32277643D01*
X155795314Y-32278164D01*
G37*
%TD.AperFunction*%
%TD*%
%TA.AperFunction,Conductor*%
%TO.N,VBUS_SENSE*%
G36*
X155629938Y-54674747D02*
G01*
X155631985Y-54677508D01*
X155974387Y-55318613D01*
X155975262Y-55327525D01*
X155971939Y-55332781D01*
X155386552Y-55865160D01*
X155378126Y-55868191D01*
X155370808Y-55865160D01*
X154785420Y-55332781D01*
X154781605Y-55324679D01*
X154782971Y-55318616D01*
X155125375Y-54677507D01*
X155132295Y-54671825D01*
X155135695Y-54671320D01*
X155621665Y-54671320D01*
X155629938Y-54674747D01*
G37*
%TD.AperFunction*%
%TD*%
%TA.AperFunction,Conductor*%
%TO.N,VBUS_SENSE*%
G36*
X155931913Y-55293668D02*
G01*
X156671681Y-55618249D01*
X156677880Y-55624711D01*
X156678680Y-55628963D01*
X156678680Y-56113676D01*
X156675253Y-56121949D01*
X156671681Y-56124390D01*
X155931913Y-56448971D01*
X155922960Y-56449157D01*
X155918691Y-56446275D01*
X155613512Y-56121949D01*
X155385223Y-55879336D01*
X155382050Y-55870964D01*
X155385223Y-55863303D01*
X155918692Y-55296363D01*
X155926856Y-55292687D01*
X155931913Y-55293668D01*
G37*
%TD.AperFunction*%
%TD*%
%TA.AperFunction,Conductor*%
%TO.N,OLED_SCL*%
G36*
X144436096Y-42341757D02*
G01*
X146034163Y-42857384D01*
X146040984Y-42863186D01*
X146042270Y-42868519D01*
X146042270Y-43351480D01*
X146038843Y-43359753D01*
X146034163Y-43362615D01*
X144436102Y-43878240D01*
X144427176Y-43877519D01*
X144421374Y-43870698D01*
X144421040Y-43869414D01*
X144269459Y-43112292D01*
X144269459Y-43107707D01*
X144421038Y-42350595D01*
X144426021Y-42343158D01*
X144434806Y-42341422D01*
X144436096Y-42341757D01*
G37*
%TD.AperFunction*%
%TD*%
%TA.AperFunction,Conductor*%
%TO.N,VBUS_SENSE*%
G36*
X159352556Y-55042752D02*
G01*
X159358585Y-55049373D01*
X159359051Y-55051044D01*
X159510540Y-55807703D01*
X159510540Y-55812297D01*
X159358873Y-56569843D01*
X159353889Y-56577282D01*
X159345104Y-56579018D01*
X159344197Y-56578799D01*
X159312747Y-56569843D01*
X159040838Y-56492410D01*
X157746226Y-56123739D01*
X157739207Y-56118177D01*
X157737730Y-56112486D01*
X157737730Y-55629538D01*
X157741157Y-55621265D01*
X157745460Y-55618532D01*
X159343613Y-55042335D01*
X159352556Y-55042752D01*
G37*
%TD.AperFunction*%
%TD*%
%TA.AperFunction,Conductor*%
%TO.N,+5V*%
G36*
X155931913Y-37543668D02*
G01*
X156671681Y-37868249D01*
X156677880Y-37874711D01*
X156678680Y-37878963D01*
X156678680Y-38363676D01*
X156675253Y-38371949D01*
X156671681Y-38374390D01*
X155931913Y-38698971D01*
X155922960Y-38699157D01*
X155918691Y-38696275D01*
X155613512Y-38371949D01*
X155385223Y-38129336D01*
X155382050Y-38120964D01*
X155385223Y-38113303D01*
X155918692Y-37546363D01*
X155926856Y-37542687D01*
X155931913Y-37543668D01*
G37*
%TD.AperFunction*%
%TD*%
%TA.AperFunction,Conductor*%
%TO.N,OLED_SDA*%
G36*
X144436096Y-44881757D02*
G01*
X146034163Y-45397384D01*
X146040984Y-45403186D01*
X146042270Y-45408519D01*
X146042270Y-45891480D01*
X146038843Y-45899753D01*
X146034163Y-45902615D01*
X144436102Y-46418240D01*
X144427176Y-46417519D01*
X144421374Y-46410698D01*
X144421040Y-46409414D01*
X144269459Y-45652292D01*
X144269459Y-45647707D01*
X144421038Y-44890595D01*
X144426021Y-44883158D01*
X144434806Y-44881422D01*
X144436096Y-44881757D01*
G37*
%TD.AperFunction*%
%TD*%
%TA.AperFunction,Conductor*%
%TO.N,VBAT*%
G36*
X156955889Y-32267154D02*
G01*
X158095093Y-32581450D01*
X158102155Y-32586954D01*
X158103680Y-32592729D01*
X158103680Y-33074910D01*
X158100253Y-33083183D01*
X158095092Y-33086189D01*
X156955897Y-33400484D01*
X156947010Y-33399380D01*
X156944535Y-33397501D01*
X156631470Y-33086189D01*
X156386021Y-32842114D01*
X156382572Y-32833853D01*
X156385976Y-32825570D01*
X156944536Y-32270137D01*
X156952818Y-32266734D01*
X156955889Y-32267154D01*
G37*
%TD.AperFunction*%
%TD*%
%TA.AperFunction,Conductor*%
%TO.N,OLED_SCL*%
G36*
X152132025Y-143927119D02*
G01*
X152132119Y-143927214D01*
X152416290Y-144218240D01*
X153196918Y-145017697D01*
X153200246Y-145026010D01*
X153196721Y-145034242D01*
X153195057Y-145035593D01*
X152501944Y-145499698D01*
X152497703Y-145501454D01*
X151679997Y-145663125D01*
X151671217Y-145661368D01*
X151666250Y-145653916D01*
X151666032Y-145651911D01*
X151628938Y-143935644D01*
X151632185Y-143927300D01*
X151640382Y-143923695D01*
X151640635Y-143923692D01*
X152123752Y-143923692D01*
X152132025Y-143927119D01*
G37*
%TD.AperFunction*%
%TD*%
%TA.AperFunction,Conductor*%
%TO.N,+5V*%
G36*
X159352427Y-37262895D02*
G01*
X159358564Y-37269416D01*
X159359096Y-37271266D01*
X159510540Y-38027703D01*
X159510540Y-38032297D01*
X159358831Y-38790056D01*
X159353847Y-38797495D01*
X159345062Y-38799231D01*
X159344349Y-38799065D01*
X157746420Y-38373633D01*
X157739307Y-38368193D01*
X157737730Y-38362327D01*
X157737730Y-37879396D01*
X157741157Y-37871123D01*
X157745279Y-37868458D01*
X159343478Y-37262623D01*
X159352427Y-37262895D01*
G37*
%TD.AperFunction*%
%TD*%
%TA.AperFunction,Conductor*%
%TO.N,RGB_LEDS*%
G36*
X144112823Y-47422480D02*
G01*
X144118625Y-47429301D01*
X144118962Y-47430597D01*
X144270540Y-48187703D01*
X144270540Y-48192297D01*
X144118962Y-48949402D01*
X144113978Y-48956841D01*
X144105193Y-48958577D01*
X144103897Y-48958240D01*
X142505837Y-48442615D01*
X142499016Y-48436813D01*
X142497730Y-48431480D01*
X142497730Y-47948519D01*
X142501157Y-47940246D01*
X142505836Y-47937384D01*
X144103898Y-47421759D01*
X144112823Y-47422480D01*
G37*
%TD.AperFunction*%
%TD*%
M02*
