%TF.GenerationSoftware,KiCad,Pcbnew,9.0.2+dfsg-1*%
%TF.CreationDate,2026-05-12T16:28:09+03:00*%
%TF.ProjectId,bottom,626f7474-6f6d-42e6-9b69-6361645f7063,rev?*%
%TF.SameCoordinates,Original*%
%TF.FileFunction,Legend,Bot*%
%TF.FilePolarity,Positive*%
%FSLAX46Y46*%
G04 Gerber Fmt 4.6, Leading zero omitted, Abs format (unit mm)*
G04 Created by KiCad (PCBNEW 9.0.2+dfsg-1) date 2026-05-12 16:28:09*
%MOMM*%
%LPD*%
G01*
G04 APERTURE LIST*
%ADD10C,0.254000*%
%ADD11C,0.150000*%
%ADD12C,0.000000*%
%ADD13C,0.120000*%
%ADD14C,0.200000*%
G04 APERTURE END LIST*
D10*
X153868442Y-31695638D02*
X153868442Y-30425638D01*
X152537965Y-31574685D02*
X152598441Y-31635162D01*
X152598441Y-31635162D02*
X152779870Y-31695638D01*
X152779870Y-31695638D02*
X152900822Y-31695638D01*
X152900822Y-31695638D02*
X153082251Y-31635162D01*
X153082251Y-31635162D02*
X153203203Y-31514209D01*
X153203203Y-31514209D02*
X153263680Y-31393257D01*
X153263680Y-31393257D02*
X153324156Y-31151352D01*
X153324156Y-31151352D02*
X153324156Y-30969923D01*
X153324156Y-30969923D02*
X153263680Y-30728019D01*
X153263680Y-30728019D02*
X153203203Y-30607066D01*
X153203203Y-30607066D02*
X153082251Y-30486114D01*
X153082251Y-30486114D02*
X152900822Y-30425638D01*
X152900822Y-30425638D02*
X152779870Y-30425638D01*
X152779870Y-30425638D02*
X152598441Y-30486114D01*
X152598441Y-30486114D02*
X152537965Y-30546590D01*
X151328441Y-31695638D02*
X152054156Y-31695638D01*
X151691299Y-31695638D02*
X151691299Y-30425638D01*
X151691299Y-30425638D02*
X151812251Y-30607066D01*
X151812251Y-30607066D02*
X151933203Y-30728019D01*
X151933203Y-30728019D02*
X152054156Y-30788495D01*
D11*
X156521537Y-42326139D02*
X156854870Y-41849948D01*
X157092965Y-42326139D02*
X157092965Y-41326139D01*
X157092965Y-41326139D02*
X156712013Y-41326139D01*
X156712013Y-41326139D02*
X156616775Y-41373758D01*
X156616775Y-41373758D02*
X156569156Y-41421377D01*
X156569156Y-41421377D02*
X156521537Y-41516615D01*
X156521537Y-41516615D02*
X156521537Y-41659472D01*
X156521537Y-41659472D02*
X156569156Y-41754710D01*
X156569156Y-41754710D02*
X156616775Y-41802329D01*
X156616775Y-41802329D02*
X156712013Y-41849948D01*
X156712013Y-41849948D02*
X157092965Y-41849948D01*
X156140584Y-41421377D02*
X156092965Y-41373758D01*
X156092965Y-41373758D02*
X155997727Y-41326139D01*
X155997727Y-41326139D02*
X155759632Y-41326139D01*
X155759632Y-41326139D02*
X155664394Y-41373758D01*
X155664394Y-41373758D02*
X155616775Y-41421377D01*
X155616775Y-41421377D02*
X155569156Y-41516615D01*
X155569156Y-41516615D02*
X155569156Y-41611853D01*
X155569156Y-41611853D02*
X155616775Y-41754710D01*
X155616775Y-41754710D02*
X156188203Y-42326139D01*
X156188203Y-42326139D02*
X155569156Y-42326139D01*
X154616775Y-42326139D02*
X155188203Y-42326139D01*
X154902489Y-42326139D02*
X154902489Y-41326139D01*
X154902489Y-41326139D02*
X154997727Y-41468996D01*
X154997727Y-41468996D02*
X155092965Y-41564234D01*
X155092965Y-41564234D02*
X155188203Y-41611853D01*
X156521537Y-54576139D02*
X156854870Y-54099948D01*
X157092965Y-54576139D02*
X157092965Y-53576139D01*
X157092965Y-53576139D02*
X156712013Y-53576139D01*
X156712013Y-53576139D02*
X156616775Y-53623758D01*
X156616775Y-53623758D02*
X156569156Y-53671377D01*
X156569156Y-53671377D02*
X156521537Y-53766615D01*
X156521537Y-53766615D02*
X156521537Y-53909472D01*
X156521537Y-53909472D02*
X156569156Y-54004710D01*
X156569156Y-54004710D02*
X156616775Y-54052329D01*
X156616775Y-54052329D02*
X156712013Y-54099948D01*
X156712013Y-54099948D02*
X157092965Y-54099948D01*
X156140584Y-53671377D02*
X156092965Y-53623758D01*
X156092965Y-53623758D02*
X155997727Y-53576139D01*
X155997727Y-53576139D02*
X155759632Y-53576139D01*
X155759632Y-53576139D02*
X155664394Y-53623758D01*
X155664394Y-53623758D02*
X155616775Y-53671377D01*
X155616775Y-53671377D02*
X155569156Y-53766615D01*
X155569156Y-53766615D02*
X155569156Y-53861853D01*
X155569156Y-53861853D02*
X155616775Y-54004710D01*
X155616775Y-54004710D02*
X156188203Y-54576139D01*
X156188203Y-54576139D02*
X155569156Y-54576139D01*
X155188203Y-53671377D02*
X155140584Y-53623758D01*
X155140584Y-53623758D02*
X155045346Y-53576139D01*
X155045346Y-53576139D02*
X154807251Y-53576139D01*
X154807251Y-53576139D02*
X154712013Y-53623758D01*
X154712013Y-53623758D02*
X154664394Y-53671377D01*
X154664394Y-53671377D02*
X154616775Y-53766615D01*
X154616775Y-53766615D02*
X154616775Y-53861853D01*
X154616775Y-53861853D02*
X154664394Y-54004710D01*
X154664394Y-54004710D02*
X155235822Y-54576139D01*
X155235822Y-54576139D02*
X154616775Y-54576139D01*
D12*
%TO.C,G\u002A\u002A\u002A*%
G36*
X147754531Y-135996809D02*
G01*
X147912711Y-136193119D01*
X147911511Y-136445817D01*
X147763777Y-136577892D01*
X147518261Y-136622332D01*
X147272517Y-136578307D01*
X147123784Y-136445817D01*
X147115270Y-136214928D01*
X147261115Y-136010536D01*
X147517647Y-135926710D01*
X147754531Y-135996809D01*
G37*
G36*
X154629351Y-137004639D02*
G01*
X154866555Y-137114619D01*
X154965382Y-137302878D01*
X154888937Y-137518604D01*
X154763342Y-137616270D01*
X154507984Y-137687634D01*
X154342962Y-137656352D01*
X154127030Y-137518604D01*
X154074212Y-137434896D01*
X154070142Y-137223793D01*
X154227030Y-137059869D01*
X154507984Y-136993937D01*
X154629351Y-137004639D01*
G37*
G36*
X161390469Y-136352241D02*
G01*
X161467258Y-136497511D01*
X161433538Y-136686338D01*
X161261644Y-136963729D01*
X161214326Y-137041004D01*
X161212132Y-137187412D01*
X161367687Y-137368096D01*
X161562411Y-137612194D01*
X161571939Y-137850221D01*
X161377886Y-138104393D01*
X161354413Y-138126731D01*
X161226467Y-138305610D01*
X161244334Y-138498333D01*
X161411410Y-138772596D01*
X161484047Y-138935896D01*
X161399021Y-139119445D01*
X161362675Y-139158584D01*
X161099143Y-139278159D01*
X160771688Y-139219446D01*
X160417755Y-138987478D01*
X160080881Y-138686481D01*
X160280804Y-138381360D01*
X160393102Y-138152848D01*
X160431027Y-137723771D01*
X160262339Y-137291179D01*
X160204300Y-137194100D01*
X160123702Y-136939869D01*
X160209655Y-136718750D01*
X160477333Y-136472990D01*
X160827436Y-136260555D01*
X161148450Y-136207584D01*
X161390469Y-136352241D01*
G37*
G36*
X150720784Y-136515201D02*
G01*
X151121061Y-136612810D01*
X151376569Y-136849873D01*
X151466387Y-137208470D01*
X151466387Y-137570984D01*
X151768581Y-137397548D01*
X151774124Y-137394395D01*
X152037201Y-137294503D01*
X152248833Y-137292440D01*
X152255734Y-137295232D01*
X152393047Y-137454982D01*
X152426055Y-137723264D01*
X152358681Y-138027325D01*
X152194842Y-138294411D01*
X152146178Y-138339750D01*
X151854996Y-138488058D01*
X151500334Y-138548238D01*
X151165243Y-138514569D01*
X150932773Y-138381331D01*
X150870060Y-138328793D01*
X150601466Y-138246900D01*
X150145966Y-138219613D01*
X149984630Y-138218608D01*
X149639933Y-138200457D01*
X149413639Y-138136542D01*
X149235374Y-137997328D01*
X149034767Y-137753284D01*
X148920542Y-137577101D01*
X148805137Y-137226687D01*
X148834634Y-136920149D01*
X148998889Y-136702914D01*
X149287756Y-136620407D01*
X149321892Y-136622172D01*
X149525423Y-136728842D01*
X149711682Y-137020617D01*
X149902306Y-137420827D01*
X149983244Y-137120517D01*
X150112238Y-136789696D01*
X150329651Y-136577281D01*
X150655288Y-136513684D01*
X150720784Y-136515201D01*
G37*
G36*
X146230404Y-128319802D02*
G01*
X146483504Y-128420571D01*
X146800761Y-128612794D01*
X147198829Y-128909052D01*
X147694364Y-129321922D01*
X148304018Y-129863985D01*
X149044448Y-130547817D01*
X149125269Y-130623107D01*
X149584574Y-131033653D01*
X149943539Y-131315031D01*
X150238522Y-131493279D01*
X150505883Y-131594435D01*
X150668801Y-131626497D01*
X151077133Y-131665916D01*
X151670070Y-131689527D01*
X152457054Y-131697637D01*
X153447524Y-131690554D01*
X155908913Y-131657802D01*
X156649204Y-130985209D01*
X157014087Y-130671004D01*
X157730498Y-130142545D01*
X158444633Y-129721484D01*
X159116225Y-129430150D01*
X159705002Y-129290872D01*
X159965865Y-129267572D01*
X160237386Y-129271504D01*
X160425028Y-129337303D01*
X160605234Y-129481124D01*
X160735947Y-129623003D01*
X161030770Y-130060156D01*
X161353635Y-130674924D01*
X161696350Y-131445767D01*
X162050726Y-132351145D01*
X162408574Y-133369519D01*
X162761705Y-134479348D01*
X163101928Y-135659093D01*
X163421055Y-136887214D01*
X163450876Y-137007343D01*
X163582852Y-137510114D01*
X163703363Y-137926155D01*
X163800146Y-138215069D01*
X163860939Y-138336459D01*
X163896617Y-138456564D01*
X163921971Y-138748127D01*
X163933780Y-139167227D01*
X163929805Y-139670493D01*
X163899580Y-140942676D01*
X163499370Y-140133127D01*
X163436797Y-140004618D01*
X163264518Y-139627929D01*
X163144324Y-139329998D01*
X163099160Y-139166261D01*
X163095872Y-139125417D01*
X163056050Y-138894162D01*
X162980572Y-138535560D01*
X162881485Y-138108163D01*
X162794992Y-137752906D01*
X162707018Y-137400934D01*
X162614547Y-137044582D01*
X162504277Y-136633570D01*
X162362901Y-136117622D01*
X162177113Y-135446458D01*
X162102723Y-135187992D01*
X161959214Y-134717274D01*
X161796570Y-134206453D01*
X161634757Y-133716713D01*
X161493741Y-133309234D01*
X161393487Y-133045197D01*
X161333088Y-132903440D01*
X161201586Y-132594887D01*
X161025168Y-132180988D01*
X160824896Y-131711163D01*
X160655051Y-131310080D01*
X160480888Y-130892583D01*
X160351635Y-130575630D01*
X160286996Y-130406991D01*
X160216693Y-130281523D01*
X159970486Y-130164477D01*
X159575134Y-130197750D01*
X159032222Y-130381373D01*
X159023071Y-130385220D01*
X158676122Y-130537438D01*
X158415369Y-130663434D01*
X158296639Y-130736275D01*
X158243900Y-130783939D01*
X158051359Y-130929194D01*
X157778823Y-131119865D01*
X157486500Y-131338594D01*
X157104975Y-131657362D01*
X156742899Y-131988601D01*
X156171431Y-132542094D01*
X153898951Y-132498525D01*
X153819504Y-132496990D01*
X153069164Y-132481365D01*
X152329372Y-132464145D01*
X151650845Y-132446632D01*
X151084300Y-132430127D01*
X150680453Y-132415932D01*
X149734434Y-132376907D01*
X148599360Y-131263293D01*
X148127951Y-130806015D01*
X147539460Y-130256707D01*
X147068212Y-129848997D01*
X146700141Y-129571666D01*
X146421181Y-129413495D01*
X146217267Y-129363264D01*
X146019625Y-129444132D01*
X145769376Y-129713435D01*
X145499846Y-130150264D01*
X145222733Y-130732506D01*
X144949739Y-131438048D01*
X144692564Y-132244777D01*
X144658222Y-132360852D01*
X144540075Y-132731186D01*
X144434945Y-133025464D01*
X144355286Y-133283485D01*
X144315967Y-133545635D01*
X144313145Y-133578035D01*
X144241581Y-133817269D01*
X144091103Y-134180898D01*
X143885256Y-134620350D01*
X143647583Y-135087052D01*
X143401628Y-135532432D01*
X143170935Y-135907918D01*
X143051729Y-136100686D01*
X142755050Y-136675090D01*
X142471027Y-137339055D01*
X142234281Y-138007358D01*
X142079432Y-138594777D01*
X142022181Y-138875508D01*
X141930691Y-139296648D01*
X141853829Y-139621024D01*
X141851964Y-139628340D01*
X141783151Y-140001165D01*
X141754622Y-140357639D01*
X141730150Y-140549404D01*
X141626618Y-140815819D01*
X141425654Y-141149092D01*
X141109763Y-141577582D01*
X140661451Y-142129648D01*
X140494813Y-142335144D01*
X140270793Y-142630280D01*
X140127838Y-142842644D01*
X140123954Y-142849401D01*
X140053776Y-142946056D01*
X140010087Y-142916294D01*
X139982905Y-142731115D01*
X139962250Y-142361519D01*
X139950476Y-142017632D01*
X139969017Y-141758510D01*
X140046869Y-141550507D01*
X140211420Y-141323309D01*
X140490063Y-141006605D01*
X140498866Y-140996305D01*
X140632758Y-140752795D01*
X140783728Y-140350087D01*
X140938388Y-139836544D01*
X141083350Y-139260527D01*
X141205228Y-138670400D01*
X141290633Y-138114525D01*
X141326406Y-137885032D01*
X141411572Y-137535018D01*
X141507315Y-137301829D01*
X141574951Y-137087722D01*
X141559303Y-136824161D01*
X141471564Y-136605141D01*
X141330373Y-136513684D01*
X141255978Y-136451158D01*
X141223677Y-136268343D01*
X141251347Y-136059235D01*
X141337781Y-135920498D01*
X141400805Y-135816351D01*
X141405903Y-135593825D01*
X141413168Y-135394370D01*
X141599898Y-135096675D01*
X141775355Y-134844958D01*
X141878625Y-134536587D01*
X141916091Y-134391126D01*
X142087003Y-134206173D01*
X142338230Y-134180583D01*
X142613230Y-134330237D01*
X142775865Y-134434585D01*
X142954030Y-134458067D01*
X142969154Y-134446832D01*
X143063399Y-134286180D01*
X143199542Y-133971378D01*
X143363117Y-133543115D01*
X143539659Y-133042076D01*
X143714704Y-132508950D01*
X143873784Y-131984422D01*
X144002436Y-131509181D01*
X144082936Y-131226850D01*
X144297366Y-130656541D01*
X144571637Y-130079149D01*
X144883555Y-129529264D01*
X145210925Y-129041475D01*
X145531553Y-128650373D01*
X145823243Y-128390546D01*
X146063803Y-128296584D01*
X146230404Y-128319802D01*
G37*
D13*
%TO.C,C12*%
X155643680Y-33610068D02*
X155643680Y-34132572D01*
X157113680Y-33610068D02*
X157113680Y-34132572D01*
D14*
%TO.C,IC1*%
X152328680Y-32421320D02*
X152328680Y-35321320D01*
X152328680Y-35321320D02*
X152928680Y-35321320D01*
X152928680Y-32421320D02*
X152328680Y-32421320D01*
X152928680Y-35321320D02*
X152928680Y-32421320D01*
X154478680Y-32271320D02*
X153278680Y-32271320D01*
D13*
%TO.C,R21*%
X154643680Y-39348384D02*
X154643680Y-38894256D01*
X156113680Y-39348384D02*
X156113680Y-38894256D01*
%TO.C,R22*%
X154643680Y-57098384D02*
X154643680Y-56644256D01*
X156113680Y-57098384D02*
X156113680Y-56644256D01*
%TD*%
M02*
